<svg version="1.1"
      xmlns="http://www.w3.org/2000/svg"
      xmlns:xlink="http://www.w3.org/1999/xlink"  id="snapshot-08282" width="250" height="250" viewBox="0 0 250 250"><desc>This image was made on Patterninja.com</desc><defs>
<!-- image 77381 -->
<g id="transformed-77381" data-image="77381" transform="translate(18.586093275832496, 212.18651204608028) rotate(337, 21.413906724167504, 35.4534879539197)"><g><svg version="1.1" width="42.82781344833501px" height="70.9069759078394px" viewBox="0 0 42.82781344833501 70.9069759078394"><g id="original-77381"><svg xmlns="http://www.w3.org/2000/svg" fill="none" viewBox="0 0 87 144" xmlns:xlink="http://www.w3.org/1999/xlink" version="1.1" preserveAspectRatio="xMidYMid meet">
  <path d="M33.509 39.293c-.76.03-1.4.61-1.4 1.4 0 .7 0 1.4.01 2.1v1.03c0 .17-.01.34 0 .52.02.47.21.84.5 1.2.18.22.6.38.88.37.31-.01.68-.11.88-.37.29-.36.48-.73.5-1.2.01-.16 0-.32 0-.48v-1.07c0-.7 0-1.4.01-2.1.02-.73-.63-1.43-1.38-1.4z" fill="#ddd" stroke="none"/>
  <path d="M48.119 43.563l-.24-1.86c-.05-.38-.12-.7-.41-.99-.24-.24-.64-.42-.99-.41-.36.02-.74.13-.99.41-.23.25-.45.63-.41.99l.24 1.9c.09.73.16 1.47.32 2.19.15.66.86 1.06 1.49.97.64-.09 1.2-.66 1.18-1.34-.01-.62-.11-1.24-.19-1.86z" fill="#ddd" stroke="none"/>
  <path d="M47.709 36.003c-.1-.16-.23-.29-.39-.39a.824.824 0 0 0-.4-.13.788.788 0 0 0-.43.02c-.34.14-.69.27-1.01.45-.24.14-.49.28-.73.43-.26.15-.47.42-.55.71a.84.84 0 0 0-.02.47c.01.16.05.31.14.44.16.25.41.48.71.55.31.07.64.05.92-.12.24-.15.48-.3.72-.44.31-.19.59-.44.88-.67.06-.07.11-.15.17-.22.08-.12.12-.26.13-.4.03-.1.03-.19 0-.29a.838.838 0 0 0-.14-.41z" fill="#ddd" stroke="none"/>
  <path d="M42.889 50.893c-.25-.32-.64-.56-1.07-.54-.92.04-1.85-.03-2.76-.05-.24 0-.47.07-.67.18-.4-.07-.8.01-1.12.33-.43.42-.5.97-.4 1.54.04.25.09.5.15.75.1.46.21.93.33 1.39.27 1.01.55 2.06.98 3.01.22.47.59.92 1.04 1.19.72.43 1.59.34 2.22-.21.45-.39.6-.95.7-1.51.09-.49.17-.97.26-1.46.2-1.14.43-2.28.6-3.43.05-.46.03-.82-.26-1.19z" fill="#ddd" stroke="none"/>
  <path d="M85.629 82.773c-1.25-.64-2.54-1.2-3.84-1.73.46-.37.9-.75 1.31-1.16 2.4-2.43 3.33-5.46 2.74-8.83-.93-5.37-5.71-9.52-11.03-9.37-2.05-11.93-4.52-23.91-7.92-35.51-1.34-4.55-3.06-9.08-5.43-13.19-2.39-4.15-5.48-7.55-9.44-10.26-1.91-1.3-4-2.12-6.25-2.65-.48-.11-.91-.09-1.29.02-.08-.01-.16-.03-.24-.04-5.77-.41-11.32 2.29-15.39 6.24-4.33 4.2-6.87 9.88-8.82 15.5-3.96 11.4-6.88 23.22-9.21 35.06-.77-.62-1.55-1.23-2.32-1.85l-1.91-1.52c-.32-.25-.64-.51-.96-.76-.46-.37-.96-.88-1.48-1.12-.58-.26-1.11-.41-1.76-.33-.58.08-1.18.32-1.58.76-.32.35-.56.76-.71 1.22-.19.58-.11 1.62.28 2.12.24.31.45.62.76.87.16.13.32.25.48.38.32.25.64.51.96.76.66.52 1.31 1.05 1.97 1.57 1.29 1.03 2.59 2.06 3.88 3.09.41.33.81.58 1.28.71a284.98 284.98 0 0 0-3.97 34.71c-.32 6.05-.69 12.23-.13 18.27.54 5.77 2.18 11.27 6 15.75 6.48 7.59 17.07 9.74 26.49 10.89 11.09 1.35 23.61 2.29 32.16-6.32 8.63-8.69 9.83-21.49 9.28-33.1-.27-5.79-.74-11.58-1.35-17.36 1.58.56 3.13 1.22 4.63 1.99 1.34.69 3.02.35 3.81-1 .72-1.24.34-3.13-1-3.81zm-4.95-10.3c.41 1.83-.44 2.98-1.75 4.16-.54.48-1.09.87-1.66 1.19-.46-3.52-.97-7.03-1.53-10.53.85.1 1.68.42 2.42.99 1.27.96 2.15 2.52 2.52 4.19zm-6.49 37.61c-.11 5.39-.91 10.97-3.32 15.86-2.01 4.07-5.01 7.62-9.07 9.74-4.84 2.52-10.59 2.51-15.9 2.21-8.8-.5-18.61-1.29-26.26-6.1-3.78-2.38-6.53-5.88-7.85-10.16-1.6-5.18-1.44-10.71-1.31-16.07.29-12.08 1.35-24.14 3.23-36.08 1.9-12.09 4.61-24.03 8.11-35.75 2.88-9.65 5.9-22.21 15.9-26.92 2.06-.97 4.26-1.33 6.52-1.17.48.03.94-.1 1.34-.34 3.44 1.07 6.28 3.16 8.57 6.13 2.49 3.23 4.31 7.05 5.7 10.89 1.73 4.77 2.93 9.71 4.13 14.63 1.48 6.05 2.82 12.13 4.02 18.24a361.49 361.49 0 0 1 4.08 25.53c-.24.79-.13 1.7.29 2.42.34 2.91.64 5.82.89 8.74.55 6.04 1.05 12.13.93 18.2z" fill="#ddd" stroke="none"/>
</svg>
</g></svg></g></g>
<!-- /image 77381 -->

<!-- image 24305 -->
<g id="transformed-24305" data-image="24305" transform="translate(203.25877052875842, 10.898876605838645) rotate(343, 31.731229471241605, 33.33112339416135)"><g><svg version="1.1" width="63.46245894248321px" height="66.6622467883227px" viewBox="0 0 63.46245894248321 66.6622467883227"><g id="original-24305"><svg xmlns="http://www.w3.org/2000/svg" fill="none" viewBox="0 0 107 112" xmlns:xlink="http://www.w3.org/1999/xlink" version="1.1" preserveAspectRatio="xMidYMid meet">
  <path d="M21.499 35.933c-.71.03-1.18.54-1.23 1.23-.07.95-.14 1.89-.22 2.84-.04.46-.07.93-.11 1.39-.05.64-.18 1.42.4 1.88.39.3.84.42 1.29.17.74-.41.72-1.25.78-1.99.03-.46.07-.93.1-1.39.07-.97.15-1.93.22-2.9.05-.64-.6-1.26-1.23-1.23z" fill="#ddd" stroke="none"/>
  <path d="M31.139 41.033v-1.91c0-.11-.02-.22-.05-.32 0-.41 0-.83-.02-1.24-.04-.7-.59-1.37-1.33-1.33-.75.03-1.3.59-1.33 1.33-.02.41-.02.82-.02 1.23-.03.11-.05.22-.05.34v1.91c0 .63-.04 1.28.01 1.91 0 .03.01.05.01.08 0 .21.05.43.18.62l.03.03c.08.13.18.25.31.34.01.01.03.02.04.03.04.03.07.06.12.09.09.05.19.09.29.12.02.01.03.02.04.02.02.01.05 0 .07 0 .15.04.31.05.47.03h.03c.06-.01.11-.01.17-.03.06-.02.11-.06.17-.09.05-.02.11-.03.16-.05.04-.02.07-.05.1-.08.03-.02.05-.04.07-.06.11-.09.2-.19.27-.3.01-.02.04-.04.05-.06.11-.19.15-.37.17-.56.01-.05.02-.09.02-.14.06-.63.02-1.28.02-1.91z" fill="#ddd" stroke="none"/>
  <path d="M27.809 50.443c-.06-.55-.43-1.08-1.05-1.05-.83.03-1.66-.03-2.49.04-.58.05-1.15.13-1.72.23-.07-.03-.12-.08-.19-.1-.31-.08-.72-.05-.99.13-.62.4-.78 1.11-.46 1.76.24.5.62.97.95 1.42.39.53.79 1.05 1.22 1.56.78.92 1.62 1.84 2.61 2.55.32.23.82.19 1.14 0 .36-.21.54-.57.56-.98v-.06c.01-.04.01-.08.02-.12l.06-.37c.04-.28.08-.55.11-.83.06-.46.11-.92.15-1.39.09-.91.18-1.88.08-2.79zm-3.05 2.15s0-.01-.01-.01c-.08-.1-.16-.21-.23-.31-.16-.22-.32-.45-.48-.68-.02-.03-.04-.07-.06-.1l.35-.03c.39-.03.78-.04 1.16-.04h.15c-.03.59-.06 1.18-.11 1.76l-.03.27c-.22-.24-.44-.48-.64-.73-.03-.05-.07-.09-.1-.13z" fill="#ddd" stroke="none"/>
  <path d="M38.189 31.773c-.03-.24-.29-.54-.5-.65-.27-.14-.54-.17-.84-.11-.24.05-.44.18-.65.3-.15.08-.28.2-.41.31l-.01.01c-.07.04-.14.09-.21.13h-.01c-.06.01-.2.07-.24.08-.01 0-.02 0-.03.01-.15.01-.29.01-.44 0-.05-.01-.11-.02-.16-.04.06.02.02.01-.04-.01-.05-.02-.09-.03-.14-.05.07.02.1.04.14.05l-.06-.03c-.05-.03-.11-.06-.16-.09-.07-.07-.15-.13-.22-.21a.12.12 0 0 0-.05-.05c-.01-.01-.02-.02-.02-.03-.06-.09-.11-.19-.16-.29-.01-.04-.03-.08-.04-.12-.02-.06-.02-.11-.03-.17-.01-.16-.01-.32 0-.48.03-.28-.01-.55-.16-.81-.16-.27-.47-.53-.78-.6-.64-.14-1.47.19-1.6.91-.17.94-.04 1.86.43 2.7.45.81 1.18 1.39 2.05 1.7.75.27 1.65.23 2.4-.02.38-.13.75-.28 1.07-.52.29-.21.52-.43.68-.75.07-.15.15-.3.19-.45.07-.29.03-.45 0-.72z" fill="#ddd" stroke="none"/>
  <path d="M34.679 31.803s.01 0 0 0c0 0-.03-.01-.04-.01h.01c.01 0 .02.01.03.01z" fill="#ddd" stroke="none"/>
  <path d="M74.379 93.303a20.515 20.515 0 0 0-7.61-7.53c-1.03-.58-2.53-.28-3.1.81-.57 1.07-.29 2.48.81 3.1.66.37 1.3.79 1.91 1.24 1.1.87 2.09 1.86 2.97 2.96.4.54.78 1.11 1.12 1.69.6 1.02 2.07 1.47 3.1.81 1.02-.65 1.43-1.99.8-3.08z" fill="#ddd" stroke="none"/>
  <path d="M105.629 94.973c-1.09-3.28-3.33-6.03-5.99-8.19-2.77-2.25-5.92-3.94-9.35-4.94-3.34-.97-6.63-.98-10.06-.96-1.28.01-2.65-.09-3.54-.89-.9-.81-1.31-2.05-1.54-3.3-.45-2.42.07-5.39 1.19-7.69 1.25-2.56 3.19-4.66 5.61-6.16.55-.34.9-.77 1.1-1.25 9.75-7.78 15.05-20.94 11.27-33.18-3.92-12.69-15.21-21.97-27.55-25.93-12.16-3.9-25.4-2.68-36.77 3.04-11.16 5.61-20.36 15.35-25.51 26.7-3.07 6.77-4.77 14.11-3.55 21.54 1.01 6.18 4.11 12.08 8.39 16.62 9.39 9.97 24.71 12.3 36.82 5.99 1.33-.69 2.58-1.73 3.98-2.27.29-.11.62-.19.93-.24-.41.07.48.14.09.02.52.16.15-.09.33.05-.34 1.23-1.55 2.38-2.29 3.37-1.11 1.49-2.18 3.02-3.15 4.61-.54.88-1.04 1.78-1.52 2.7-.31-.16-.67-.27-1.06-.31-2.19-.2-4.43.06-6.55.66-1.11.32-2.2.75-3.24 1.25-1.03.5-2.18 1.12-2.95 1.97-.81.89-.93 2.17-.19 3.13s2.01 1.17 3.08.61c.86-.45 1.63-1.1 2.49-1.56.37-.2.76-.42 1.16-.56-.59.21.18-.06.29-.1.23-.08.46-.17.7-.24.47-.14.95-.26 1.43-.36.18-.04.36-.07.54-.1l.18-.03c.03 0 .06-.01.11-.01.71-.06 1.41-.07 2.11-.06-.3.84-.56 1.69-.78 2.55-.83 3.27-1.24 7.04-.09 10.29 2.63 7.38 11.29 7.72 17.88 8.38 7.96.79 15.97 1.08 23.96.87 6.9-.18 15.32-.09 20.07-6 2.3-2.83 3.15-6.49 1.97-10.02zm-5.03 3.83c-.3 2.37-2.42 4.22-4.56 5.12-2.97 1.25-6.34 1.29-9.51 1.42-3.75.15-7.51.2-11.26.13-3.92-.07-7.83-.26-11.74-.56-3.41-.27-6.9-.51-10.23-1.12-2.32-.42-5.12-1.1-6.15-3.46-1.12-2.54-.41-5.85.34-8.38.93-3.11 2.49-5.97 4.27-8.66.87-1.31 1.79-2.59 2.74-3.84 1.07-1.4 2.14-2.77 2.47-4.56.69-3.75-2.44-6.61-6.06-6.58-3.51.03-6.3 2.81-9.4 4.1-5.36 2.22-11.36 2.53-16.96 1.07-11.13-2.89-18.88-13.54-18.64-24.98.13-6.58 2.72-13 6.04-18.61 2.95-4.98 6.73-9.42 11.14-13.18 8.64-7.35 19.75-11.48 31.12-10.91 11.3.57 22.35 5.68 29.52 14.52 3.76 4.64 6.28 10.47 6.24 16.49-.04 5.52-2.08 10.92-5.36 15.33a26.364 26.364 0 0 1-5.67 5.59c-.42.3-.76.69-1 1.12-4.76 3.49-7.79 9.09-8.3 14.97-.25 2.87.24 6.04 1.85 8.49 2.11 3.22 5.47 4.22 9.17 4.14 3.1-.07 5.93.02 8.91 1 2.7.89 5.26 2.36 7.35 4.29 1.91 1.76 4.03 4.28 3.68 7.06z" fill="#ddd" stroke="none"/>
</svg>
</g></svg></g></g>
<!-- /image 24305 -->

<!-- image 65030 -->
<g id="transformed-65030" data-image="65030" transform="translate(160.71857342739705, 67.117825508806) rotate(358, 26.411426572602956, 31.44217449119399)"><g><svg version="1.1" width="52.82285314520591px" height="62.88434898238798px" viewBox="0 0 52.82285314520591 62.88434898238798"><g id="original-65030"><svg xmlns="http://www.w3.org/2000/svg" fill="none" viewBox="0 0 96 114" xmlns:xlink="http://www.w3.org/1999/xlink" version="1.1" preserveAspectRatio="xMidYMid meet">
  <path d="M93.269 80.713c-1.05-.37-2.11-.71-3.18-1.05-1.14-4.62-3.83-8.92-7.58-11.84-.26-.2-.53-.37-.8-.56 6.44-3.86 11.11-10.49 13-17.8 2.62-10.11-.4-20.92-6.43-29.23-12.65-17.44-36.72-24.66-56.95-17.37a51.767 51.767 0 0 0-21.08 14.23c-.86.09-1.66.6-2.19 1.36-6.26 9.07-9.24 20.8-6.81 31.67 2.23 9.95 9.36 17.74 19.03 20.89 4.45 1.45 9.3 1.78 13.88.77 4.62-1.02 8.44-3.59 11.7-6.95 1.69-1.75 3.27-3.61 5.01-5.32 1.44-1.41 3.1-2.82 4.74-3.35 1.19-.39 3.69-.76 4.54.79-.02-.03.04.34.08.4-.01.06-.03.11-.05.16-.05.07-.11.14-.14.19-.12.08-.28.2-.35.26-.36.24-.74.46-1.12.66-1.72.89-3.59 1.5-5.19 2.62-2.39 1.67-3.74 4.08-3.92 7-.14 2.36.63 4.62 1.89 6.57-3.75-1.7-8.2-1.85-12.04-.36-10.78 4.19-15.56 18.85-9.91 28.84 5.6 9.91 19.83 10.91 29.89 9.94 11.47-1.11 22.9-6.36 28.51-16.93 1.75-3.3 2.76-6.91 2.9-10.58.36.12.72.23 1.08.36 1.38.48 3.12-.55 3.44-1.95.35-1.54-.47-2.9-1.95-3.42zm-9.03 9.89c-3.28 9.88-13.17 15.26-22.9 16.82-5.04.81-10.57.78-15.56-.18-4.25-.81-8.79-2.45-11.31-6.18-5.1-7.52-.74-21.11 8.94-22.25 2.01-.24 4.13.04 5.91.97 2.16 1.12 3.22 3.01 4.7 4.86 1.75 2.18 4.33 3.39 7.13 2.88 2.9-.53 4.84-3.48 3.97-6.36-1.53-5.04-8.49-5.91-9.9-11.02-.23-.83-.28-1.75-.07-2.5.08-.29.19-.64.36-.89.11-.16.28-.31.42-.45.04-.04.3-.25.37-.31 1.51-1.07 3.33-1.66 4.97-2.5 1.87-.95 3.57-2.33 4.24-4.38.91-2.77-.43-5.57-2.7-7.2-4.19-3.01-9.63-1.39-13.36 1.5-3.63 2.81-6.27 6.62-9.73 9.62-2.79 2.42-6.65 3.68-10.29 3.78-7.74.21-15.84-3.89-19.86-10.66-5.05-8.49-4.39-19.44-.43-28.24.44-.98.93-1.93 1.44-2.87 10.17-14.52 28.53-22.14 46.02-18.59 9.26 1.88 17.91 6.47 24.31 13.47 6.03 6.61 9.99 15.53 9.1 24.59-.86 8.8-7 17.53-15.72 19.99-2.6.73-2.7 4.69 0 5.37 4.19 1.05 7.37 4.08 9.29 7.98l.03.06c-.51-.12-1.03-.25-1.54-.36-1.42-.31-3.09.42-3.44 1.95-.32 1.41.42 3.11 1.95 3.44 1.54.33 3.08.72 4.6 1.13.09 2.16-.23 4.37-.94 6.53z" fill="#ddd" stroke="none"/>
  <path d="M22.819 53.013s.01-.01 0 0c-.03.01-.06.03-.08.05.03-.03.06-.04.08-.05z" fill="#ddd" stroke="none"/>
  <path d="M24.869 50.813c-.84-.11-1.53.52-1.56 1.35 0 .02 0 .04-.01.06.01-.03.01-.04.02-.09-.02.12-.03.23-.05.35-.01.02-.02.05-.03.06-.02.03-.1.13-.09.13l-.02.02c-.1.11-.2.22-.32.31.01 0 .01-.01.02-.01-.01 0-.02.01-.03.02-.08.07-.09.06-.07.04-.04.03-.08.06-.11.08-.05.03-.31.22-.36.19.16-.06.19-.08.1-.05-.04.01-.08.03-.12.04l-.2.06c-.01 0-.09.02-.15.03h-.05c-.02 0-.17.01-.28.01h-.02a.503.503 0 0 0-.12-.02c-.07-.02-.14-.03-.2-.05-.01 0-.05-.01-.1-.02-.04-.02-.08-.04-.11-.05-.13-.06-.24-.14-.36-.21-.01 0-.01 0-.01-.01-.05-.05-.11-.09-.16-.14l-.15-.15c-.03-.03-.06-.06-.08-.1-.06-.07-.04-.04.06.09-.07-.02-.19-.29-.22-.36-.02-.04-.04-.07-.06-.11-.01-.02 0-.01-.01-.02-.01-.05-.02-.11-.03-.12-.18-.62-.88-1.08-1.53-.87-.63.2-1.07.86-.87 1.53.54 1.81 2.35 3.22 4.28 3.1.99-.06 1.88-.45 2.63-1.1.33-.29.58-.64.82-1 .09-.13.18-.28.26-.43.01-.02.02-.03.04-.05.06-.06.11-.13.14-.21.09-.16.16-.37.22-.55.32-.82-.35-1.65-1.11-1.75z" fill="#ddd" stroke="none"/>
  <path d="M23.299 52.223c-.03.16-.01.1 0 0z" fill="#ddd" stroke="none"/>
  <path d="M15.819 41.603c.01-.19-.03-.37-.12-.54a1.09 1.09 0 0 0-.29-.45c-.27-.24-.62-.43-.99-.41-.36.02-.73.14-.99.41-.34.37-.65.78-.91 1.21-.1.17-.19.34-.27.51-.08.19-.17.38-.24.58-.01.03-.02.05-.03.08-.02.12-.03.25-.05.37v.03a1.519 1.519 0 0 0 .22.74l.2.26c.12.13.26.22.42.27.1.06.21.09.33.09.17.04.34.03.52-.02.34-.08.74-.34.9-.67.03-.07.06-.14.1-.21.06-.13.13-.27.2-.4.12-.23.27-.44.43-.65.06-.07.11-.14.18-.21.23-.27.39-.62.39-.99z" fill="#ddd" stroke="none"/>
  <path d="M27.939 42.643c-.02-.12-.03-.24-.05-.37a.48.48 0 0 0-.07-.2.652.652 0 0 0-.18-.31c-.04-.06-.08-.12-.13-.17-.07-.08-.15-.15-.23-.23-.16-.15-.32-.3-.5-.43-.43-.34-.87-.67-1.35-.93a1.45 1.45 0 0 0-1.08-.14c-.18.04-.34.13-.47.25-.15.1-.27.23-.36.39-.17.32-.26.72-.14 1.08.11.34.32.66.64.83.3.17.58.36.85.56.11.09.22.18.33.28.08.07.16.15.23.22l.12.12.28.22c.11.05.22.09.33.14.13.04.29.04.42.06-.12-.02-.24-.03-.36-.05.04.01.08.01.11.02.22.06.45.06.67 0a.86.86 0 0 0 .43-.23c.14-.09.25-.21.33-.36.11-.2.17-.41.17-.64.02-.03.02-.07.01-.11z" fill="#ddd" stroke="none"/>
</svg>
</g></svg></g></g>
<!-- /image 65030 -->

<!-- image 09339 -->
<g id="transformed-09339" data-image="09339" transform="translate(109.90085547427978, 115.27612764346128) rotate(343, 25.809144525720225, 27.573872356538708)"><g><svg version="1.1" width="51.61828905144045px" height="55.147744713077415px" viewBox="0 0 51.61828905144045 55.147744713077415"><g id="original-09339"><svg xmlns="http://www.w3.org/2000/svg" fill="none" viewBox="0 0 103 110" xmlns:xlink="http://www.w3.org/1999/xlink" version="1.1" preserveAspectRatio="xMidYMid meet">
  <path d="M37.968 56.993c-.86.18-1.72.38-2.57.59-.24.06-.45.2-.62.39-.22-.01-.45.02-.67.14-.81.43-.9 1.51-.91 2.32-.01.63.08 1.27.24 1.88.31 1.2.96 2.37 1.92 3.16.78.65 1.85.4 2.19-.58.05-.14.05-.15 0-.02.03-.07.06-.15.09-.22.08-.18.15-.35.22-.53.11-.26.21-.52.31-.78.2-.52.39-1.05.55-1.59.16-.53.32-1.07.45-1.62.06-.27.11-.55.15-.83.03-.19.05-.38.07-.57-.03.24.04-.22.05-.27.22-.92-.57-1.66-1.47-1.47zm-1.43 2.9a23.322 23.322 0 0 1-.48 1.56c-.02-.08-.04-.16-.05-.24-.01-.05-.02-.09-.02-.14-.02-.11-.01-.06.02.13-.04-.04-.03-.32-.03-.38a2.41 2.41 0 0 1 0-.38c0-.1.01-.19.01-.29 0-.04.01-.08.01-.12h.07c.15-.05.31-.1.47-.14z" fill="#ddd" stroke="none"/>
  <path d="M102.478 63.203c-.02-.64-.22-1.16-.56-1.57-1-.57-2.34-.75-3.43-.78-1.77-.06-4.09.36-5.05-1.59-.9-1.83-.36-4.69-.14-6.63.2-1.72.45-3.44.71-5.16.13-1.27.26-2.53.32-3.77.26-5.32.09-10.67-.89-15.91-1.78-9.56-6.9-18.5-15.48-23.45a27.314 27.314 0 0 0-5.84-2.52c-.18-.1-.37-.18-.61-.24-21.19-4.94-37.87 15.2-48.07 30.87-2.81 4.32-5.35 8.81-7.6 13.44-1.29 2.66-2.52 5.36-3.59 8.13-2.13-1.11-4.22-2.27-6.27-3.53-1.16-.71-2.69-1.26-3.96-.45-.95.6-1.33 1.72-1.04 2.79.24.89.85 1.53 1.57 2.06 1.3.96 2.77 1.73 4.18 2.53 1.22.69 2.46 1.34 3.7 1.98-.06.2-.12.39-.17.59-1.34 4.98-1.92 10.26-.81 15.35.97 4.46 3.42 8.57 6.77 11.67 8.65 8 20.91 9.08 32.14 8.11.04 0 .08-.01.11-.02-.09.16-.18.32-.25.5-.16.42-.31.84-.45 1.27-.16.29-.31.59-.44.91-.91 2.28-.73 4.97 1.06 6.78.54.55 1.19.98 1.88 1.34.44.33.91.62 1.41.87 3.96 2.01 8.81 2.61 13.19 2.85 2.35.13 4.71.07 7.05-.17 2.3-.24 4.77-.47 6.96-1.24 4.62-1.63 6.21-6.45 7.9-10.62.99-2.44 1.88-4.92 2.65-7.44.56-1.83 1.29-3.84 1.48-5.82.18-.45.35-.89.52-1.34.15-.22.25-.47.33-.72.79-.15 1.57-.41 2.23-.68 2.48-1.05 4.64-3.03 6-5.38.04-.09.091-.17.141-.26.23-.48.449-.96.669-1.44 1.48-3.59 1.81-7.49 1.68-11.31zm-3.72 8.22c-.47 1.53-1.42 2.94-2.48 4.14-.66.75-1.47 1.29-2.34 1.71-.71.45-1.47.83-2.23 1.17-.44.2-.9.3-1.36.42-.39.18-.78.35-1.17.54-.15.07-.31.15-.46.23-.21.26-.42.52-.6.8-.67 1.01-1.19 2.12-1.63 3.26-.56 2.64-.97 5.33-1.55 7.85-.66 2.85-1.46 5.84-2.97 8.37-.52.86-1.18 1.53-1.94 2.05-1.13 1.35-2.69 1.98-4.36 2.5-4.13 1.28-8.53 1.44-12.79.87-2.07-.28-4.12-.72-6.12-1.32-1.84-.56-3.49-1.11-4.69-2.69-.5-.65-.08-1.53.54-1.91.38-.82 1.01-1.56 1.54-2.28.73-.99 1.29-1.96 1.75-3.1.34-.85-.1-1.82-.65-2.45-1.17-1.34-2.79-1.8-4.34-1.54-.47-.05-.93-.06-1.4-.03-.34-.17-.71-.26-1.1-.23-9.02.62-18.66.63-26.42-4.7-3.06-2.1-5.68-5.11-6.91-8.65-1.45-4.18-1.27-8.67-.32-12.94 2-9 6.49-17.63 11.23-25.47 4.78-7.89 10.43-15.49 17.14-21.85 4.14-3.93 9.2-7.39 14.7-9.18.2-.14.42-.23.63-.22.01 0 .02-.01.02-.01v.01c.08.01.17 0 .25 0 4.93-1.76 10.04-1.42 14.97.88.4.19.77.41 1.14.63 2.52.91 4.78 2.4 6.7 4.41 2.74 2.87 4.66 6.35 5.69 10.18.12.44.21.88.31 1.32.26.71.49 1.43.68 2.17 1.98 7.7 1.28 15.99.75 23.83-.14 2.07-.34 4.13-.51 6.2-.04 1.49-.05 2.98.06 4.45.02.28.07.55.11.81.36.63.79 1.21 1.33 1.69 1.07.96 2.36 1.32 3.77 1.4.85.05 1.7.05 2.55.09.55.02 1.28-.04 1.81.21.31.09.6.3.73.67.25.27.33.68.25 1.06.03 1.55.15 3.13-.31 4.65z" fill="#ddd" stroke="none"/>
  <path d="M70.149 58.993c-.16-.58-.57-1.09-1.09-1.4-.62-.36-1.27-.4-1.97-.27-.3.05-.6.14-.89.23-.62.21-1.24.44-1.86.65-1.29.44-2.57.9-3.86 1.33-.66.22-1.25.62-1.61 1.24-.34.58-.48 1.43-.27 2.08.21.65.61 1.28 1.24 1.61.61.32 1.4.52 2.08.27 1.28-.46 2.57-.93 3.83-1.46.78-.32 1.55-.64 2.32-.98.28-.12.56-.25.81-.42.96-.61 1.59-1.71 1.27-2.88z" fill="#ddd" stroke="none"/>
  <path d="M45.489 44.923c-.89-.23-1.88-.38-2.73.08-.87.48-1.32 1.48-1.07 2.46.09.37.31.69.52 1 .23.34.47.66.73.98.46.59 1 1.34 1.76 1.53a.97.97 0 0 0 1.18-1.18c-.11-.43-.39-.77-.68-1.1l-.3-.36c-.02-.03-.16-.17-.16-.2l.09.11c-.03-.04-.06-.08-.09-.11-.19-.25-.36-.5-.53-.76a.21.21 0 0 0-.04-.06h.1c.17.03.35.07.52.11.66.17 1.45-.22 1.6-.91.17-.67-.19-1.41-.9-1.59z" fill="#ddd" stroke="none"/>
  <path d="M32.449 43.803a7.99 7.99 0 0 0-1.19-.2c-.4-.03-.8.01-1.2.09-.49.09-.82.71-.67 1.18.1.31.31.5.56.6-.48.48-.99.94-1.42 1.47-.21.25-.35.51-.35.85 0 .29.13.64.35.85.49.45 1.21.46 1.69 0 .5-.47.93-1.04 1.39-1.56.5-.57 1.01-1.15 1.43-1.79.35-.54.02-1.35-.59-1.49z" fill="#ddd" stroke="none"/>
</svg>
</g></svg></g></g>
<!-- /image 09339 -->

<!-- image 88528 -->
<g id="transformed-88528" data-image="88528" transform="translate(67.15982047130862, 163.502395356985) rotate(0, 25.420179528691385, 33.447604643014984)"><g><svg version="1.1" width="50.84035905738277px" height="66.89520928602997px" viewBox="0 0 50.84035905738277 66.89520928602997"><g id="original-88528"><svg xmlns="http://www.w3.org/2000/svg" fill="none" viewBox="0 0 102 134" xmlns:xlink="http://www.w3.org/1999/xlink" version="1.1" preserveAspectRatio="xMidYMid meet">
  <path d="M22.989 50.763c-.62-.14-1.4.19-1.53.87-.22 1.13-.38 2.27-.45 3.42-.07 1.14-.09 2.3.11 3.43.1.59.78.93 1.31.86.59-.08 1.02-.57 1.04-1.18.03-1.02-.03-2.03.03-3.05.03-.5.08-1 .14-1.49 0-.03.01-.04.01-.06 0-.02.01-.04.01-.08l.06-.36.15-.83c.12-.64-.19-1.38-.88-1.53z" fill="#ddd" stroke="none"/>
  <path d="M36.289 56.253a8.238 8.238 0 0 1 .38-1.49c.21-.62-.24-1.39-.87-1.54-.69-.16-1.31.21-1.54.87-.34 1.02-.52 2.11-.52 3.18 0 .57.07 1.13.22 1.68.15.57.34 1.43.92 1.71.47.22 1 .13 1.3-.34.23-.37.16-.74.11-1.14.03.25-.01-.15-.02-.19-.01-.1-.01-.19-.02-.29-.02-.47-.03-.95-.03-1.42 0-.23.01-.46.03-.69.01-.11.01-.23.04-.34z" fill="#ddd" stroke="none"/>
  <path d="M31.159 67.653c-.34-.14-.78-.08-1.04.2-.42.45-.66 1.02-.98 1.53-.16.25-.33.48-.5.72l-.14.17c-.09.11-.19.22-.29.33-.08.09-.17.19-.26.27-.05.05-.1.09-.15.14-.01.01-.01 0-.02.01-.05.03-.09.05-.14.08.17-.11.03-.03-.03 0h-.01c-.02 0-.09-.01-.13-.01l-.08-.02c-.02-.01-.02 0-.03-.01-.12-.06-.23-.12-.34-.19l-.18-.12c-.02-.01-.08-.06-.1-.07-.09-.08-.18-.15-.27-.23-.4-.35-1.05-.42-1.44 0-.35.38-.43 1.07 0 1.44.58.49 1.22.99 1.98 1.15.91.19 1.7-.1 2.37-.73.53-.49.98-1.08 1.39-1.67.18-.26.36-.54.52-.82.24-.42.4-.83.45-1.31.05-.36-.26-.73-.58-.86z" fill="#ddd" stroke="none"/>
  <path d="M5.229 81.503c.11-.09.22-.17.33-.25l.14-.11c-.16.11-.32.24-.47.36z" fill="#ddd" stroke="none"/>
  <path d="M101.159 36.293c-1.6-8.95-7.6-17.42-16.13-20.91-1.9-.78-3.88-1.2-5.92-1.38-.3-.61-.83-1.13-1.66-1.39-10.16-3.24-20.32-6.47-30.48-9.71-4.64-1.48-9.62-3.13-14.45-1.42-3.71 1.32-6.53 3.99-8.73 7.19-2.19 3.18-3.67 6.84-4.88 10.49-1.59 4.77-2.98 9.61-4.22 14.49-2.49 9.81-4.26 19.79-5.39 29.85-.59 5.32-.98 10.66-1.18 16-.16.05-.32.12-.48.22-.73.47-1.42.99-2.1 1.52-.83.64-1.64 1.3-2.41 2.02-.34.32-.68.66-1 1-.54.57-1.16 1.22-1.33 2-.2.93.06 1.85.83 2.45.33.26.68.4 1.1.46.56.08.97-.05 1.48-.28.6-.26 1.03-.9 1.45-1.38a23.233 23.233 0 0 1 2.31-2.33c-.04 4.12.03 8.25.22 12.37.06 1.35.84 2.2 2.04 2.68 5.36 2.17 10.99.52 16.49.05 2.11-.18 3.86-.17 5.74.6 1.59.65 3.27 1.83 4.06 3.07.22.34.42.77.43.79.08.22.14.45.19.68-.02-.11-.02-.49.01.1.01.16 0 .31 0 .47-.01.07-.02.17-.03.21-.14.55-.17.58-.5 1.1-.02.03-.03.05-.04.07l-.08.08c-.12.12-.23.24-.35.36-.03.03-.1.09-.15.13-.1.07-.19.13-.29.19-.18.11-.37.21-.55.31-.04.02-.23.11-.31.15-.19.06-.86.29-1.12.37-3.39.96-6.96.95-10.23 2.38-4.19 1.83-6.35 6.32-5.01 10.74 1.54 5.1 6.22 7.86 11.17 8.92 5.34 1.14 10.99 1.64 16.43 1.92 5.39.28 10.87.04 16.14-1.21 9.24-2.2 17.07-7.9 22.12-15.93 4.77-7.59 6.72-16.88 5.15-25.72-.47-2.61-1.41-5.14-3.18-7.16-1.31-1.5-3.04-2.63-4.68-3.73-1.55-1.04-2.69-1.66-3.81-2.94.07.06-.28-.41-.36-.54-.01-.02-.01-.02-.02-.03.04.06.05.08-.01-.06-.01-.02-.02-.07-.04-.13 0-.09 0-.28-.01-.37.01-.03.02-.05.03-.08.04-.1.07-.21.1-.31.03-.04.07-.12.11-.19.05-.04.09-.08.08-.1.02-.02.04-.04.06-.05.1-.06.21-.12.31-.18h.03c.27-.05.55-.14.82-.2.06-.01.12-.02.16-.02.21-.01.42-.03.63-.04 1.71-.07 3.43.12 5.14.19 4.07.16 8.28-.58 10.5-4.4 1.36-2.34 2.14-5.18 2.98-7.74.9-2.74 1.69-5.53 2.27-8.36 1.22-5.73 1.58-11.56.55-17.33zm-9.55 28.18c-.35.94-.65 2.01-1.27 2.82-.14.18-.31.34-.47.49-.02.01-.03.02-.05.03-.14.09-.28.17-.43.25-.06.03-.09.06-.12.07-.03.01-.07.02-.14.04a9.034 9.034 0 0 1-1.33.32 23.544 23.544 0 0 1-2.76.06c-3.24-.11-6.96-.78-9.92.95-3.42 2.01-4.18 6.67-1.86 9.78 2.17 2.92 5.98 4.5 8.4 6.68 2.96 2.66 3.24 7.43 3.13 11.17a30 30 0 0 1-2.63 11.43c-3.29 7.3-9.16 13.57-16.74 16.43-9.69 3.66-20.4 2.61-30.44 1.28-3.89-.51-9.18-1.14-10.93-5.2a4.56 4.56 0 0 1-.38-2.07c.02-.31.05-.5.21-.89 0 .01.43-.62.41-.63.17-.19.35-.37.54-.53.05-.01.58-.37.68-.43.17-.09.34-.18.52-.26.04-.01.07-.03.12-.04.42-.15.85-.28 1.29-.4 3.32-.87 6.78-.92 9.95-2.34 3.68-1.64 5.98-5.5 5.08-9.52-.95-4.24-5.11-7.21-8.98-8.54-4.76-1.64-9.75-.14-14.58.28-1.8.16-3.52.15-5.22-.22-.67-18.48 1.01-37.01 5.1-55.05 1.07-4.7 2.29-9.36 3.67-13.97 1.13-3.78 2.24-7.66 3.96-11.17 1.4-2.87 3.26-5.83 5.81-7.48 1.31-.84 2.57-1.38 4.22-1.47 2.31-.11 4.52.53 6.69 1.21 10.96 3.41 21.87 6.97 32.81 10.46.05.02.09.02.14.03.47.86 1.4 1.41 2.44 1.48 7.71.53 13.92 7.31 16.3 14.52 3.33 10 .28 20.91-3.22 30.43z" fill="#ddd" stroke="none"/>
  <path d="M63.309 91.603c-.21-.49-.43-.97-.67-1.45-.48-.95-1.02-1.88-1.61-2.76-1.28-1.92-2.78-3.71-4.49-5.27-1.08-.99-2.9-1.15-3.95 0-.99 1.07-1.15 2.9 0 3.95.75.68 1.45 1.4 2.12 2.17.17.19.33.38.49.58.06.07.12.14.17.22.28.43.61.83.89 1.25.56.84 1.07 1.72 1.52 2.62.22.44.43.9.63 1.35.1.24.19.49.3.72.19.41.44.79.77 1.1.79.74 1.91.97 2.91.55 1.04-.44 1.53-1.34 1.64-2.43.09-.91-.38-1.81-.72-2.6z" fill="#ddd" stroke="none"/>
</svg>
</g></svg></g></g>
<!-- /image 88528 -->

<!-- image 38547 -->
<g id="transformed-38547" data-image="38547" transform="translate(184.69713221267182, 169.30456722221015) rotate(359, 28.932867787328174, 26.965432777789864)"><g><svg version="1.1" width="57.86573557465635px" height="53.93086555557973px" viewBox="0 0 57.86573557465635 53.93086555557973"><g id="original-38547"><svg xmlns="http://www.w3.org/2000/svg" fill="none" viewBox="0 0 109 102" xmlns:xlink="http://www.w3.org/1999/xlink" version="1.1" preserveAspectRatio="xMidYMid meet">
  <path d="M22.948 69.753c-.01.01-.01.02-.02.02.06-.07.12-.14.14-.17-.04.05-.07.1-.12.15z" fill="#ddd" stroke="none"/>
  <path d="M25.669 62.983c-1.18-1.09-2.77-1.02-3.95 0a22.174 22.174 0 0 0-4.65 5.56c-.65 1.1-1.15 2.31-1.6 3.5-.43 1.16-.76 2.56-.67 3.78.07.95.64 1.92 1.64 2.15.99.22 1.98-.16 2.52-1.03.18-.29.34-.55.48-.87.09-.21.17-.41.25-.62.09-.22.04-.14-.01-.02.12-.43.45-.89.63-1.27.46-.98.98-1.91 1.56-2.83.28-.45.57-.88.88-1.31.06-.09.13-.17.19-.26-.02.02-.03.04-.05.05a.55.55 0 0 0 .07-.09c.12-.16.15-.18.11-.14.1-.13.21-.26.31-.38.7-.82 1.47-1.58 2.29-2.29 1.11-.93 1.06-2.96 0-3.93z" fill="#ddd" stroke="none"/>
  <path d="M101.869 63.703c-.13-.08-.19-.09.22.16-.01-.01-.02-.01-.03-.02-.06-.05-.12-.1-.19-.14z" fill="#ddd" stroke="none"/>
  <path d="M107.519 61.313c-1.32-1.48-3.01-2.72-4.76-3.65-1.77-.94-3.7-1.65-5.68-1.98-.76-.13-1.46-.12-2.15.28-.2.11-.38.28-.56.45-.85-4.91-2.65-9.62-5.27-13.88-1.5-2.45-3.28-4.75-5.26-6.84-1.89-2-4.04-3.66-6.17-5.39-2.93-2.38-8.25-6.34-6.84-10.59.68-2.05 2.52-3.69 3.72-5.44 1.44-2.11 2.16-4.71 1.28-7.2-1.68-4.73-7.55-6.06-11.99-6.13-5.47-.09-11 .74-16.28 2.15-10.58 2.84-20.4 8.18-28.48 15.58-8.02 7.35-14.21 16.77-17.19 27.26-1.92 6.79-2.47 14.14-1.21 21.13.61 9.66 6.17 18.67 13.67 24.63 9.59 7.62 21.94 10.27 34 9.39 6.34-.46 12.61-1.75 18.64-3.74 5.9-1.95 11.63-4.59 16.34-8.71 7.79-6.81 12.01-17.56 11.52-27.88.22.14.46.25.74.29 1.17.2 2.3.54 3.4.97.89.4 1.74.87 2.55 1.42.11.08.23.16.34.25.06.03.13.08.18.12l.02.02c.02.02.05.04.07.05-.02-.01-.03-.02-.05-.03.1.08.2.16.3.25.42.36.82.73 1.22 1.11 1.04 1.01 2.89 1.11 3.91 0 1.05-1.14 1.01-2.74-.01-3.89zm-22.5 17.69c-6.16 9.22-17.39 13.04-27.76 15.24-10.83 2.3-22.95 2.3-33.04-2.78-4.37-2.2-8.34-5.33-11.46-9.13.14-.82-.14-1.7-.72-2.4-2.59-3.14-4.35-6.61-5.43-10.27-.36-1.81-.51-3.58-.49-5.49.01-.87-.31-1.52-.79-1.96-.7-12.26 4.84-25.35 12.54-34.28 6.42-7.45 14.64-13.41 23.72-17.22 4.67-1.96 9.61-3.31 14.61-4.06 2.39-.36 4.83-.56 7.25-.65 2.03-.08 4.13-.02 6.02.81 1.32.58 2.35 1.5 2.12 2.88-.29 1.79-2.12 3.28-3.22 4.62-1.6 1.96-2.76 4.24-2.74 6.82.02 2.35 1 4.57 2.37 6.44 3.05 4.16 7.5 6.76 11.18 10.26 3.65 3.47 6.69 7.74 8.53 12.45 3.72 9.44 3 20.21-2.69 28.72z" fill="#ddd" stroke="none"/>
  <path d="M57.119 45.343c.12.26.01-.15 0-.21l-.07-.36c-.05-.26-.1-.52-.16-.78-.11-.5-.22-1-.34-1.5l-.69-3.05c-.16-.71-1.02-1.2-1.72-.98-.75.24-1.15.95-.98 1.72.23 1.02.47 2.03.7 3.05.11.5.22 1 .34 1.49.06.24.12.48.18.71l.09.36.06.24c.01.07.02.1.03.11.07.83.9 1.44 1.72 1.21.33-.09.65-.33.82-.63.29-.45.24-.93.02-1.38z" fill="#ddd" stroke="none"/>
  <path d="M68.399 43.063c-.12-.39-.23-.78-.35-1.17-.24-.81-.49-1.62-.73-2.43-.21-.7-.99-1.21-1.72-.98-.71.23-1.2.97-.98 1.72.24.81.49 1.62.73 2.43.12.39.23.78.35 1.17.14.48.25 1.07.53 1.48.33.48.93.81 1.52.62.58-.19.97-.69.99-1.3.02-.52-.2-1.05-.34-1.54z" fill="#ddd" stroke="none"/>
  <path d="M70.479 55.103c-.72-2.2-2.48-3.97-4.56-4.94-.68-.32-1.51-.19-1.91.5-.01.01-.01.03-.02.05-.23.06-.46.16-.63.34-1.55 1.59-2.79 3.61-2.86 5.88-.07 2.01.98 4.22 2.81 5.16 1.97 1.02 4.28.45 5.79-1.11a5.84 5.84 0 0 0 1.38-5.88zm-2.5 2.09c0 .02-.01.1-.01.15-.01.05-.03.13-.03.15-.02.07-.03.13-.05.2-.01.04-.12.34-.12.36-.08.17-.17.34-.27.49-.05.08-.1.15-.15.23l-.01.01-.03.03c-.11.12-.21.24-.33.35-.06.05-.11.1-.17.15-.03.02-.06.04-.07.05-.17.11-.34.21-.52.3-.02.01-.01.01-.02.01h-.01c-.06.02-.12.04-.19.06-.05.01-.31.07-.35.08-.12.01-.25.01-.37.01.04-.01-.27-.05-.35-.07-.06-.02-.12-.04-.17-.06-.03-.02-.08-.04-.1-.05-.05-.03-.44-.3-.26-.15-.14-.11-.25-.24-.38-.36 0 0-.03-.03-.05-.06-.04-.05-.12-.16-.13-.18-.1-.15-.18-.31-.26-.46a.794.794 0 0 1-.04-.09c-.02-.07-.05-.13-.07-.2-.05-.15-.09-.3-.12-.46 0-.02-.02-.09-.03-.15-.01-.07-.02-.2-.02-.22-.04-.75.16-1.56.49-2.2.44-.87.89-1.43 1.55-2.11.06.04.12.06.18.1.14.09.28.19.42.28.02.02.02.01.03.02.01.01.01.01.03.02.09.08.18.15.27.23.27.24.51.5.75.77.02.03.03.03.03.04.01.01 0 0 .01.02a7.825 7.825 0 0 1 .49.77c.04.08.08.17.13.25 0 0 .02.04.03.08.02.05.05.15.06.17.03.09.06.18.08.27.04.16.08.31.11.47.06.28.01.11.01.04.01.14.02.28.02.42-.01.1-.01.17-.01.24z" fill="#ddd" stroke="none"/>
</svg>
</g></svg></g></g>
<!-- /image 38547 -->

<!-- image 24867 -->
<g id="transformed-24867" data-image="24867" transform="translate(132.68445611140868, -24.80130431748484) rotate(0, 26.405543888591325, 30.58130431748484)"><g><svg version="1.1" width="52.81108777718265px" height="61.16260863496968px" viewBox="0 0 52.81108777718265 61.16260863496968"><g id="original-24867"><svg xmlns="http://www.w3.org/2000/svg" fill="none" viewBox="0 0 105 122" xmlns:xlink="http://www.w3.org/1999/xlink" version="1.1" preserveAspectRatio="xMidYMid meet">
  <path d="M101.389 68.713c-2.57-.2-5.13-.27-7.68-.21 1.29-2.42 2.49-4.89 3.55-7.42 4.55-10.84 6.03-24.08-1-34.28-.66-.96-1.39-1.82-2.16-2.64-.24-.41-.57-.78-.98-1.07l-.42-.27c-.73-.63-1.49-1.24-2.33-1.79-.31-.2-.63-.32-.94-.36a133.642 133.642 0 0 0-30.66-14.38c-6.01-1.93-12.15-3.43-18.38-4.47-6.38-1.06-13.3-2.14-19.62-.13-11.44 3.65-15.48 15.86-18.26 26.34-1.67 6.29-2.89 13.27-.49 19.54 2.05 5.37 6.11 9.55 10.94 12.54 5.26 3.25 11.29 4.87 17.31 6.02 3.36.64 6.75 1.16 10.11 1.81 2.82.55 5.82 1.06 8.36 2.47 4.91 2.72 5.35 8.7 3.29 13.45-2.41 5.55-7.16 9.36-10.83 14.01-3.55 4.49-5.94 9.97-4.19 15.73 1.67 5.5 6.88 8.75 12.55 7.44 6.1-1.41 10.61-6.58 14.61-11.02 4.41-4.89 8.6-9.98 12.55-15.24 4-5.32 7.76-10.82 11.27-16.48.89-1.43 1.77-2.87 2.63-4.33 3.44-.31 6.9-.4 10.34-.28 1.7.9 3.82-.59 3.82-2.45.01-1.89-1.75-2.92-3.39-2.53zm-24.12 15.93c-3.55 5.18-7.31 10.2-11.27 15.06a228.65 228.65 0 0 1-5.87 6.93c-1.97 2.23-3.93 4.53-6.2 6.48-2.92 2.5-8.5 5.42-11.16 1.12-2.33-3.76-.65-8.5 1.77-12 3.27-4.73 7.82-8.41 10.68-13.47 2.84-5.02 3.84-11 1.49-16.41-2.36-5.43-7.78-7.54-13.21-8.69-6.31-1.33-12.76-2.02-18.97-3.79-5.02-1.43-9.88-3.69-13.61-7.42-3.87-3.87-5.48-8.75-5.09-14.19.23-3.15 1.05-6.23 1.92-9.26.71-2.46 1.46-4.92 2.34-7.32 1.63-4.44 3.83-8.95 7.49-12.04 4.18-3.53 9.91-3.77 15.16-3.28 5.81.54 11.6 1.73 17.24 3.19 11.58 2.99 22.69 7.6 32.98 13.69 2.3 1.36 4.55 2.8 6.76 4.3 5.98 6.78 6.97 16.33 4.61 25.07-1.56 5.77-4.26 11.12-7.21 16.29-.01.02-.02.03-.03.05-1.89.21-3.77.48-5.65.83-1.45.27-2.28 2.03-1.91 3.37.42 1.52 1.91 2.19 3.37 1.91.21-.04.42-.07.63-.11-2 3.28-4.09 6.52-6.26 9.69z" fill="#ddd" stroke="none"/>
  <path d="M36.999 45.503c-.08.02-.17.04-.25.07-.02.01-.02.01-.03.01h-.01c-.11 0-.21.01-.32.01-.06 0-.26-.04-.29-.04-.16-.04-.31-.08-.47-.13.01.01.02.01.03.02-.01-.01-.02-.01-.03-.02-.05-.02-.11-.05-.09-.05-.05-.03-.1-.05-.16-.08a4.01 4.01 0 0 1-.27-.17c-.02-.01-.02-.01-.03-.02l-.02-.02c-.08-.07-.16-.14-.23-.22-.04-.04-.17-.22-.19-.23-.07-.11-.14-.22-.2-.34 0-.01-.01-.01-.01-.01 0-.01 0-.02-.01-.04-.02-.1-.05-.21-.08-.31-.01-.02-.01-.03-.01-.05v-.1c0-.15-.01-.31-.01-.46 0-.31 0-.61-.03-.92-.27-2.82-3.32-4.49-5.86-3.26-.66.32-.89 1.31-.5 1.91.44.68 1.21.84 1.91.5.01 0 .01-.01.02-.01s.02 0 .04-.01c.05-.01.21-.03.21-.04.05 0 .1-.01.15-.01.1 0 .39.08.05-.01.1.03.21.04.31.08.08.02.37.17.07.01.06.03.13.06.19.1.08.04.41.32.16.09.08.07.15.15.23.22.02.01.02.02.03.03 0 .01.01.01.01.02.05.09.11.18.16.27-.17-.3-.02-.01.01.06.01.03.02.05.02.06.02.14.02.29.02.43.01.36-.01.72.02 1.07.17 2.15 1.84 3.96 3.96 4.35 1.17.22 3.46.15 3.47-1.53 0-1.06-1.06-1.45-1.97-1.23z" fill="#ddd" stroke="none"/>
  <path d="M35.629 45.423c-.06-.03-.09-.05-.1-.05.03.02.06.03.1.05 0 0-.01 0 0 0z" fill="#ddd" stroke="none"/>
  <path d="M17.319 37.943c-.8-.12-1.56-.22-2.36-.07-.83.15-1.53.62-2.02 1.3-.73 1.01-.63 2.3-.5 3.47.03.29.06.57.08.86.01.23.04.54-.01.78-.02.06-.05.14-.06.16l-.03.09c-.01.03-.02.05-.03.07-.05.08-.12.17-.13.2-.01.02-.01.01-.02.03-.02.02-.04.05-.06.07-.08.09-.18.17-.27.26-.04.03-.08.05-.12.08-.1.06-.21.12-.32.17-.05.02-.1.03-.14.05-.02.01-.13.04-.22.07-.02 0-.04 0-.07.01-.06 0-.13.01-.19.01s-.13 0-.19-.01h-.06c-.1-.03-.21-.06-.24-.07-.7-.19-1.54.23-1.71.97-.18.79.24 1.44.97 1.71 1.2.45 2.72.12 3.74-.6 1.16-.81 1.86-1.99 1.95-3.41.04-.57-.04-1.14-.1-1.71a18.5 18.5 0 0 1-.07-.74c-.01-.11-.08-.74.01-.8-.03.21-.03.25 0 .09.01-.06.03-.11.04-.16.01-.02.03-.05.04-.07l.06-.06c.01 0 0 0 .01-.01.02-.01.03-.02.04-.02.08-.02.2-.05.22-.06.11-.01.22-.02.33-.01.16 0 .31.02.47.03.04.01.07.01.09.01.04.01.08.01.11.02.72.11 1.54-.18 1.72-.98.17-.68-.19-1.61-.96-1.73z" fill="#ddd" stroke="none"/>
  <path d="M17.029 25.863c-.78-.18-1.47.23-1.72.98-.33.96-.54 1.96-.65 2.98-.05.52-.1 1.11.06 1.61.02.06.04.11.06.17v-.04c.01.09.01.19.02.28.01.19.02.4.07.59.06.27.18.44.36.66.46.56 1.39.33 1.73-.22.2-.33.2-.66.19-1.02v-.24c.04-.1.04-.1 0-.01v-.01c.11-.28.15-.45.18-.78l.03-.28c0-.02.01-.12.02-.19s.02-.17.03-.19c.01-.08.02-.14.03-.2 0-.03.01-.05.01-.08l.06-.37c.04-.22.08-.43.13-.64.1-.43.22-.85.37-1.26.23-.71-.28-1.58-.98-1.74z" fill="#ddd" stroke="none"/>
  <path d="M25.149 44.543c-.04-.18-.13-.35-.19-.52.06.12.13.18-.1-.23-.05-.09-.11-.17-.18-.25-.15-.19-.32-.35-.54-.47-.42-.23-.91-.26-1.38-.23-.88.05-1.77.18-2.64.37-.3.06-.55.27-.71.53-.59 0-1.15.37-1.3.96-.19.72-.13 1.49-.04 2.22.09.74.23 1.47.48 2.17.51 1.42 1.56 3.56 3.44 3.08.87-.22 1.37-.91 1.67-1.71.25-.67.43-1.37.64-2.05.22-.73.45-1.45.66-2.18.1-.36.19-.71.23-1.08.03-.21 0-.41-.04-.61zm-3.33 2.63l-.48 1.54c-.04-.08-.08-.15-.12-.23a.107.107 0 0 0-.03-.05c-.01-.02-.01-.03-.02-.05-.05-.13-.1-.26-.14-.38-.08-.24-.15-.48-.2-.73-.03-.13-.05-.25-.07-.38 0-.04-.01-.13-.02-.19-.03-.36-.01-.73.01-1.09h.03c.29-.07.57-.13.86-.18l.37-.06c.05-.01.05-.01.08-.01.05-.01.11-.01.16-.02s.11-.01.16-.01c-.02.06-.04.13-.06.19-.17.54-.35 1.1-.53 1.65z" fill="#ddd" stroke="none"/>
  <path d="M31.659 29.303c.18-.67-.23-1.48-.93-1.64-.7-.16-1.45.21-1.64.93-.15.57-.27 1.15-.36 1.73-.06.37-.11.74-.15 1.11-.03.24-.03.47-.02.69-.06.28-.12.56-.08.83.03.25.12.48.18.73.11.49.65.9 1.16.88.51-.02 1.05-.35 1.16-.88.01-.04.02-.16.04-.24.04-.1.09-.2.13-.3.07-.29.03-.55 0-.83.06-.35.1-.7.13-1.05.08-.66.21-1.32.38-1.96z" fill="#ddd" stroke="none"/>
</svg>
</g></svg></g></g>
<!-- /image 24867 -->

<!-- image 00775 -->
<g id="transformed-00775" data-image="00775" transform="translate(89.87571016120371, 20.049205939067356) rotate(11, 24.584289838796284, 32.010794060932646)"><g><svg version="1.1" width="49.16857967759257px" height="64.02158812186529px" viewBox="0 0 49.16857967759257 64.02158812186529"><g id="original-00775"><svg xmlns="http://www.w3.org/2000/svg" fill="none" viewBox="0 0 101 131" xmlns:xlink="http://www.w3.org/1999/xlink" version="1.1" preserveAspectRatio="xMidYMid meet">
  <path d="M54.928 42.013a6.472 6.472 0 0 0-1.51-3.38c-.56-.65-1.37-1.24-2.24-1.51-.22-.49-.68-.81-1.27-.84-2.48-.13-4.84 1.59-5.79 3.82-.51 1.2-.7 2.51-.36 3.8a5.12 5.12 0 0 0 1.78 2.7c1.84 1.45 4.35 1.84 6.51.89 2.12-.92 3.18-3.23 2.88-5.48zm-2.74 1.08v.05c-.01.04-.03.17-.04.21-.02.1-.05.19-.08.29-.02.06-.07.16-.09.24 0 .01-.01.01-.01.02-.03.07-.21.29-.28.43.05-.06.12-.09.02 0-.01.02-.03.03-.04.05 0 .01-.01.03-.01.03 0-.01.01-.02.01-.03-.01.02-.03.03-.04.05-.07.07-.14.14-.22.21l-.03.03c-.08.04-.17.13-.23.16-.07.04-.15.09-.22.13-.02.01-.06.03-.11.05-.05.02-.11.05-.14.05-.11.04-.22.07-.33.1l-.25.06c-.01 0-.02 0-.04.01-.15-.04-.42.03-.57.03-.1 0-.2-.01-.3-.01-.02 0-.05 0-.08-.01-.06-.01-.17-.03-.19-.03-.1-.02-.2-.04-.3-.07-.18-.05-.36-.11-.54-.17-.01-.01-.01-.01-.03-.01-.09-.05-.18-.09-.27-.14-.09-.05-.39-.3-.49-.32-.09-.07-.17-.15-.25-.23-.06-.06-.12-.12-.17-.19-.01-.01-.02-.02-.02-.03-.1-.17-.21-.33-.3-.5 0-.01-.01-.02-.01-.04l-.09-.27c-.03-.09-.04-.19-.07-.29-.01-.02-.01-.04-.01-.05v-.06c-.01-.21-.01-.42.01-.63v-.04c0-.01 0-.01.01-.03.03-.11.05-.22.08-.33.03-.13.08-.25.12-.37 0-.01.01-.04.02-.06 0-.01 0 0 .01-.01.12-.24.24-.47.38-.69l.12-.18c.01-.01.01-.01.01-.02l.16-.19c.17-.18.35-.35.53-.51.04-.03.1-.07.11-.08.09-.06.19-.13.29-.18.11-.07.23-.12.35-.18.02-.01.05-.02.07-.03.02 0 .02 0 .04-.01.06-.02.23-.09.39-.14.16.19.37.34.62.43.18.06.35.12.53.18.07.02.14.06.22.09.02.01.05.02.07.04.16.08.31.18.46.28l.02.02c.07.07.15.13.22.2s.14.14.2.22l.03.03s-.01-.01 0-.01l.01.01c.02.02.04.04.06.07.09.11.01.05-.03-.01.06.13.26.37.3.44.04.08.08.15.12.23.01.02.02.06.04.09.06.17.12.33.17.51.04.15.05.34.1.49v.03c.01.11.01.23.01.34-.02.06-.02.16-.03.25z" fill="#ddd" stroke="none"/>
  <path d="M51.438 40.613c0 .02.01.04.02.06-.01-.03-.02-.05-.02-.06z" fill="#ddd" stroke="none"/>
  <path d="M51.678 44.373c0-.02.01-.03.02-.05-.02.02-.02.04-.02.05z" fill="#ddd" stroke="none"/>
  <path d="M47.119 22.373c-.72-.16-1.52.22-1.71.97-.22.9-.45 1.8-.67 2.71l-.33 1.33c-.06.23-.11.46-.16.69-.1.5-.16.94.11 1.41.34.59 1.16.82 1.76.46.34-.21.56-.47.68-.85l.09-.29c.07-.23.13-.46.18-.69l.34-1.33.69-2.7c.17-.71-.23-1.54-.98-1.71z" fill="#ddd" stroke="none"/>
  <path d="M60.129 26.853c-.17-.29-.5-.57-.83-.64-.36-.08-.76-.06-1.08.14-.28.18-.59.48-.64.83-.11.76-.23 1.52-.34 2.28-.14.91-.39 1.88-.14 2.79.13.46.53.8 1 .86.49.07.93-.16 1.2-.57.45-.7.51-1.58.63-2.38.12-.74.23-1.49.35-2.23.05-.39.06-.73-.15-1.08z" fill="#ddd" stroke="none"/>
  <path d="M99.629 100.823c-.48-.49-.98-.89-1.61-1.18-.47-.22-.93-.44-1.39-.67-.92-.46-1.83-.95-2.72-1.47a48.46 48.46 0 0 1-3.25-2.09c-1.12-2.04-2.58-3.83-4.14-5.64-1.67-1.93-3.52-4.04-3.78-6.68-.27-2.79 1.12-5.44 2.57-7.77 1.7-2.74 3.75-5.25 5.48-7.97 1.79-2.82 3.19-5.92 4.19-9.11 3.96-12.61 1.43-26.69-6.18-37.42-7.17-10.1-18.13-17.35-30.29-19.78-11.65-2.33-24.15-.73-34.63 4.97-10.31 5.61-17.81 15.18-21.08 26.43-3.19 10.96-2.4 23.2 3.05 33.33 2.78 5.16 6.81 9.58 11.24 13.4.12 4.43 1.48 8.78 4.52 12.12.17.19.36.34.54.46a57.52 57.52 0 0 0-2.17 4.47c-2.76 6.49-3.9 13.7-.62 20.23 2.67 5.32 7.75 8.94 13.19 11.06 2.75 1.08 5.65 1.67 8.59 1.97.42.04.81-.08 1.17-.28 14.03 1.82 29.47 3.07 41.3-6.25 5.09-4.01 8.39-9.78 9.14-16.23.13-1.14.17-2.31.11-3.47.35.18.69.39 1.05.56.46.23.93.45 1.4.67.39.18.79.38 1.2.49.44.11.9.12 1.35.13 2.2.04 3.27-2.76 1.77-4.28zm-14.46 11.87c-6.24 11.48-21.22 12.95-32.81 12.05-3.55-.28-7.08-.74-10.6-1.2-.73-.1-1.41.24-1.92.77-4.58-.69-9.13-2.69-12.49-5.88-4.13-3.93-5.77-9.21-4.62-14.82.68-3.32 2.01-6.44 3.58-9.43 1.57-3 3.86-6.07 3.1-9.65-.67-3.18-3.89-4.97-6.21-6.89-.19-.16-.38-.32-.58-.48.04-.54.09-1.08.17-1.6.76-5.5 3.18-10.62 4.24-16.05.29-1.47-.42-2.99-1.93-3.41-1.4-.39-3.06.47-3.41 1.93-1.17 4.95-3.01 9.76-3.98 14.76-.63-.61-1.25-1.23-1.85-1.87-3.81-4.05-6.74-8.76-8.37-14.1-1.54-5.02-1.98-10.28-1.5-15.5.96-10.32 5.95-20.26 13.97-26.87 8.32-6.86 19.45-9.91 30.12-9.34 11.09.59 21.65 5.29 29.45 13.19 8.3 8.41 12.78 19.82 11.56 31.66-.63 6.04-2.96 11.61-6.42 16.56-3.4 4.86-7.94 10.23-7.48 16.58.24 3.31 1.71 6.05 3.73 8.61 1.19 1.5 2.54 2.89 3.68 4.43-.05.36-.04.72.08 1.07.24.74.67 1.21 1.28 1.67.12.09.25.18.38.27 1.77 4.32 1.04 9.47-1.17 13.54zm-61.6-28.37c.79.62 1.34 1.16 1.18 2.19-.48-.69-.87-1.42-1.18-2.19z" fill="#ddd" stroke="none"/>
</svg>
</g></svg></g></g>
<!-- /image 00775 -->

<!-- image 33653 -->
<g id="transformed-33653" data-image="33653" transform="translate(36.22062724001862, 74.29274012147634) rotate(356, 30.289372759981383, 30.657259878523664)"><g><svg version="1.1" width="60.578745519962766px" height="61.31451975704733px" viewBox="0 0 60.578745519962766 61.31451975704733"><g id="original-33653"><svg xmlns="http://www.w3.org/2000/svg" fill="none" viewBox="0 0 119 120" xmlns:xlink="http://www.w3.org/1999/xlink" version="1.1" preserveAspectRatio="xMidYMid meet">
  <path d="M33.169 110.213c.01.02.01.03.02.05l.03.06c-.03-.22-.1-.24-.05-.11z" fill="#ddd" stroke="none"/>
  <path d="M33.589 107.073c-.01.01-.01.02-.02.03.02-.02.03-.04.05-.07 0 .01-.02.03-.03.04z" fill="#ddd" stroke="none"/>
  <path d="M48.339 54.013c-1.45-.28-2.87-.63-4.28-1.07-.68-.22-1.35-.45-2.02-.7-.17-.06-.33-.13-.5-.19-.02-.01-.18-.07-.27-.11-.09-.04-.27-.11-.29-.13-.2-.09-.41-.18-.61-.27-1.29-.6-2.55-1.27-3.77-2.02-1.55-.95-3.22-2.73-5.17-2.16a2.624 2.624 0 0 0-1.87 2.45c-.02 2.17 2.37 3.37 3.99 4.38 1.32.83 2.7 1.57 4.12 2.22 2.94 1.35 6 2.39 9.18 3 1.43.27 3.08-.4 3.44-1.95.32-1.4-.41-3.16-1.95-3.45z" fill="#ddd" stroke="none"/>
  <path d="M114.828 33.483c-.47.3-.87.62-1.23 1.05-.24.29-.46.58-.68.88a14.846 14.846 0 0 1-1.97 2.08l-.28.22c-.06.04-.109.08-.139.1-.17.12-.34.24-.51.35-.55.36-1.14.66-1.73.94-.7.27-1.42.5-2.16.66-.1.02-.201.07-.301.1a50.202 50.202 0 0 0-2.599-5.82c-2.27-6.75-6.52-12.96-11.35-17.94-7.42-7.66-17.35-13.01-27.88-14.8-5.29-.9-10.53-.9-15.78-.25-1.69.14-3.38.36-5.05.68-11.9 2.23-22.5 9.1-29.95 18.57-7.49 9.52-12.16 21.35-12.88 33.48-.37 6.27.53 12.87 3.7 18.38 2.95 5.11 7.76 8.57 12.96 11.14 5.6 2.77 11.81 4.73 16.79 8.61.94.73 2.43 1.83 2.66 3.1.22 1.22-1.19 2.35-1.94 3.15-1.26 1.35-2.57 2.67-3.9 3.96-1.83 2.81-3.96 5.45-4.07 8.9-.01.37-.01.73 0 1.1 3.02 3.84 7.66 6.18 12.49 6.87 6.44.92 12.71-.98 18.34-4.06 5.74-3.13 11-7.29 15.98-11.5 5.04-4.25 9.77-8.85 14.16-13.76 4.35-4.87 8.39-10.05 12.05-15.46 3.689-5.46 7.099-11.45 8.139-18.04.59-3.76.401-7.43-.339-10.98.08-.01.16-.01.25-.03 2.33-.5 4.52-1.57 6.4-3.02.9-.69 1.74-1.44 2.47-2.31 1.02-1.22 2.019-2.58 1.989-4.25-.03-1.78-2.06-3.11-3.64-2.1zm-17.48 33.84c-3.09 5.16-6.7 10.04-10.55 14.66-7.67 9.21-16.52 17.55-26.35 24.43-5.13 3.59-11.05 7.13-17.5 7.28-3.06.07-6.22-.64-8.81-2.21-.05-.04-.1-.09-.14-.13-.15-.14-.28-.29-.42-.44-.03-.05-.07-.09-.1-.14-.09-.15-.17-.3-.26-.45.01.03.01.05.02.09 0-.04-.03-.09-.05-.15 0 0 0-.01-.01-.01-.01-.02-.01-.03-.02-.04-.01-.02-.02-.04-.02-.05-.07-.21-.13-.43-.18-.65 0-.02-.01-.04-.01-.06 0-.03 0-.05-.01-.09-.01-.22 0-.43.01-.65.01-.06.02-.13.04-.19.05-.22.12-.44.2-.66.03-.09.06-.17.09-.26 0-.01.01-.02.01-.04.06-.09.2-.33.28-.46-.02.02-.03.04-.04.03l.06-.06c.01-.02.03-.04.03-.05.12-.17.06-.08 0 .01l.14-.16c.11-.12.74-.64.23-.25.36-.27.66-.55.85-.92.78-.76 1.55-1.51 2.3-2.3 2.3-2.42 5.13-5.09 4.77-8.73-.36-3.54-3.2-5.99-5.9-7.95-2.25-1.64-4.71-2.94-7.22-4.13-4.89-2.3-10.08-4.17-14.51-7.33-4.55-3.24-7.1-8.11-8.04-13.56-.96-5.55-.25-11.41 1.09-16.83a55.96 55.96 0 0 1 6.42-15.57c5.29-8.76 13.16-16.03 22.71-19.81 1.75-1.02 3.95-1.48 5.79-2.15 1.09-.4 2.2-.75 3.33-1.05.28.03.57.02.87-.03 9.45-1.64 19.94.18 28.51 4.39 6.8 3.34 12.66 8.27 17.12 14.32.82 1.68 1.6 3.43 2.28 5.24a74.25 74.25 0 0 1 2.82 4.46c1.05 1.8 2.02 3.68 2.841 5.62.31.79.609 1.58.909 2.37.9 2.62 1.491 5.33 1.581 8.11.18 5.98-2.141 11.5-5.16 16.55z" fill="#ddd" stroke="none"/>
  <path d="M70.889 29.343c-.08-.47-.15-.95-.23-1.42l-.46-2.9c-.05-.32-.36-.66-.63-.82-.29-.17-.73-.24-1.05-.14-.77.25-1.08.92-.96 1.68l.48 2.9c.08.47.16.95.23 1.42.04.25.08.49.16.73.19.52.52.82 1.03 1.03.37.15.79-.05 1.07-.28.66-.56.48-1.47.36-2.2z" fill="#ddd" stroke="none"/>
  <path d="M80.609 30.893l-.18-1.63c-.12-1.12-.24-2.25-.37-3.37-.04-.38-.13-.71-.41-.99-.24-.24-.64-.42-.99-.41-.69.03-1.48.62-1.4 1.4.12 1.12.24 2.25.37 3.37l.18 1.63c.1.89.35 2.11 1.5 2.11.62 0 1.11-.48 1.24-1.06.08-.36.1-.7.06-1.05z" fill="#ddd" stroke="none"/>
  <path d="M79.278 38.253c-1.85-1.21-4.31-1.26-6.23-.17-.09.05-.18.12-.25.2-.25-.18-.56-.27-.88-.22-.44.06-.96.41-1.04.9-.05.32-.08.59-.02.9.03.15.06.3.1.44.07.31.16.62.25.93.21.67.46 1.32.75 1.96.25.55.52 1.09.83 1.61.33.55.68 1.16 1.16 1.59.64.56 1.45.82 2.29.65.57-.12 1.12-.47 1.5-.9.86-.97 1.18-2.15 1.21-3.42.01-.27.01-.55.02-.82l.03-.41c.01-.06.05-.24 0-.04-.06.22.01-.03.02-.08.03-.14.06-.28.1-.42 0-.01.01-.03.02-.04-.03.06-.06.09.01-.05 0 0 0-.01.01-.01.01-.02.02-.05.02-.05 0 .01 0 .02-.01.04.01-.03.03-.05.04-.08.01-.01.02-.03.02-.04.03-.03.06-.07.06-.07.01-.02.02-.02.02-.03.83-.64.86-1.79-.03-2.37zm-3.1 4.45c0 .14-.07.42-.04.57 0 .02-.01.04-.01.06-.03.12-.06.23-.1.34-.01.03-.01.04-.02.06-.05.1-.1.2-.16.3-.01.02-.04.07-.08.11-.03.03-.07.08-.11.12-.03-.03-.05-.06-.08-.08-.02-.03-.04-.04-.05-.06-.01-.01-.01-.01-.01-.02l-.25-.37c-.31-.47-.59-.96-.84-1.47-.07-.15-.15-.31-.22-.46-.02-.05-.05-.1-.07-.16.11.25 0 0-.02-.05-.12-.3-.23-.6-.33-.9v-.01c.22 0 .45-.06.66-.18.09-.05.17-.1.26-.14.02-.01.04-.02.05-.03.06-.01.23-.08.26-.1.09-.03.19-.06.29-.08l.28-.06c.2-.01.39-.03.58-.02.08 0 .17.01.25.01h.05c.01 0 .02.01.03.01-.13.39-.22.8-.27 1.23-.03.46-.04.92-.05 1.38z" fill="#ddd" stroke="none"/>
  <path d="M79.138 40.883c.02-.03.03-.05.03-.08 0 .01-.01.01-.01.02-.01.03-.02.04-.02.06z" fill="#ddd" stroke="none"/>
</svg>
</g></svg></g></g>
<!-- /image 33653 -->

<!-- image 89145 -->
<g id="transformed-89145" data-image="89145" transform="translate(-16.370748043222576, 121.95902990981479) rotate(352, 29.990748043222574, 29.270970090185205)"><g><svg version="1.1" width="59.98149608644515px" height="58.54194018037041px" viewBox="0 0 59.98149608644515 58.54194018037041"><g id="original-89145"><svg xmlns="http://www.w3.org/2000/svg" fill="none" viewBox="0 0 133 130" xmlns:xlink="http://www.w3.org/1999/xlink" version="1.1" preserveAspectRatio="xMidYMid meet">
  <path d="M53.109 40.083c-.76-.17-1.48.23-1.72.98-.39 1.22-.62 2.47-.75 3.75-.12 1.23-.2 2.61.11 3.81.14.55.73 1.03 1.31 1 .11-.01.25-.03.36-.05.59-.11.98-.75 1-1.31.02-.56-.06-1.13-.06-1.69s.02-1.13.07-1.69c.01-.13.03-.26.04-.39 0-.03.01-.06.01-.07 0-.02.01-.04.01-.07.05-.3.1-.6.16-.9.12-.55.26-1.1.43-1.64.22-.71-.26-1.57-.97-1.73z" fill="#ddd" stroke="none"/>
  <path d="M74.349 48.253c-.09-.27-.19-.51-.4-.72-.14-.14-.31-.23-.47-.34-.2-.12-.4-.24-.6-.35-.38-.2-.77-.41-1.15-.61l-.63-.33c.4-.35.81-.69 1.21-1.04.56-.48.53-1.49 0-1.98-.59-.54-1.38-.51-1.98 0-.89.77-1.79 1.53-2.68 2.3-.67.58-.47 1.79.28 2.19.79.42 1.59.84 2.38 1.27.38.2.77.41 1.15.61.19.1.39.2.59.29.18.08.39.2.58.25.28.08.57.05.85-.03.62-.16 1.08-.88.87-1.51z" fill="#ddd" stroke="none"/>
  <path d="M67.529 57.913c-.31-.39-.82-.58-1.31-.45-1.53.41-3.08.76-4.6 1.21-1.52.45-3.02.98-4.49 1.55-.42.16-.76.47-.9.87-.44.35-.61 1.05-.32 1.57.39.68 1.12 1.09 1.76 1.5.58.37 1.17.73 1.76 1.09.6.37 1.2.83 1.89 1.01.83.22 1.62-.09 2.22-.66.47-.44.83-1.02 1.22-1.53.38-.49.73-1 1.07-1.52a22.43 22.43 0 0 0 1.79-3.26c.21-.46.25-.95-.09-1.38zm-5.39 5.43c-.04.04-.15.17-.25.28-.42-.38-1.01-.66-1.48-.97-.26-.17-.53-.36-.8-.55 1.47-.55 2.96-1.06 4.47-1.5-.58.96-1.21 1.89-1.94 2.74z" fill="#ddd" stroke="none"/>
  <path d="M132.139 49.773c-.1-.39-.26-.76-.46-1.11-.34-1.16-1.09-2.21-2.14-2.84-.69-.42-1.47-.64-2.27-.7.05-.19.09-.37.16-.56l.09-.18c.13-.24.27-.49.35-.76l.09-.64c0-.02 0-.03.01-.05.01-.23-.04-.46-.11-.69 0-.01 0-.01-.01-.02a.142.142 0 0 1-.02-.06l-.09-.24c-.03-.07-.06-.13-.09-.19-.01-.01-.01-.03-.02-.04 0 .01.01.02.01.03-.2-.36-.5-.7-.84-.88-.18-.08-.37-.16-.55-.23-.22-.06-.45-.08-.67-.08-.16 0-.51.05-.64.08-.18.05-.45.17-.62.27-.38.24-.71.58-.93.97-.08.14-.14.27-.21.42-.14.32-.27.64-.39.96-.13.17-.25.33-.36.5-.4.59-.74 1.21-1.03 1.86-.15.23-.23.48-.24.76-.01.05-.01.1-.01.14-.01.01-.01.02-.02.03-.08.11-.14.24-.2.36-.37.29-.66.66-.85 1.08-1.63 1.75-3.43 3.38-5.13 5.06-1.4 1.38-2.79 2.76-4.19 4.13-1.07-5.31-2.44-10.56-3.97-15.69-3.12-10.47-7.3-21.08-14.66-29.34-3.57-4.01-7.93-7.24-12.92-9.26-6-2.44-12.64-2.72-18.96-1.51-12.66 2.41-22.81 11.05-30.43 21.04-6.84 8.98-12.26 19.57-15.35 30.72-3.19-.92-6.8-.12-9.42 1.86-3.29 2.49-4.68 6.5-3.9 10.53.76 3.96 3.6 7.39 6.94 9.51 1.17.74 2.38 1.3 3.62 1.76.06 1.17.16 2.34.28 3.51-.81.6-1.62 1.2-2.43 1.79-1.22.9-2.63 1.73-3.65 2.85-2.07 2.25.52 5.52 3.21 4.16 1.22-.61 2.3-1.63 3.38-2.47.14-.11.28-.21.41-.32.47 2.26 1.06 4.51 1.8 6.72 6.75 20.38 27.22 37.13 49.3 35.89 1.2-.07 2.39-.2 3.58-.37.4.29.89.48 1.49.51 11.25.63 21.96-5 29.53-13.04 8.45-8.97 12.89-20.45 13.99-32.63.41-4.5.36-9.01 0-13.51a5.39 5.39 0 0 1-.18-1.03c-.17-1.94-.3-3.9-.45-5.87.36-.12.71-.32 1-.61 1.87-1.9 3.75-3.8 5.62-5.7 1.33-1.35 2.63-2.75 3.98-4.09.28.31.6.6.95.84s.74.43 1.15.59c.38.23.77.43 1.19.6 1.37.55 2.98.54 4.31-.11.7-.34 1.31-.98 1.65-1.67.2-.4.32-.8.38-1.21 0-.01.01-.02.01-.03.05-.13.06-.27.07-.41.14-.44.11-.97-.14-1.39zm-120.5 22.01c-2.49-1.41-4.52-3.38-5.34-6.15-.73-2.46-.08-4.65 1.85-6.09.7-.52 1.58-.9 2.62-1.13.44-.1.77-.12 1.46-.07.14.01.52.1.92.22-.89 4.37-1.41 8.79-1.51 13.22zm87.78 34.33c-5.4 8.22-13.65 14.9-23.35 16.92-1.25.26-2.53.42-3.83.5-.44-.23-.97-.33-1.58-.18-.38.09-.76.17-1.14.25h-.42a2.64 2.64 0 0 0-1.4.33c-18.68 2.88-37.25-9.62-45.66-25.91-2.46-4.76-4.05-9.8-4.9-14.95.78-.61 1.56-1.22 2.35-1.83 1.18-.92 2.51-1.75 3.2-3.12.58-1.14.17-2.96-1.31-3.22-1.56-.27-3.29-.64-5.01-1.17-.06-14.41 4.87-29.1 12.18-41.13 5.94-9.79 13.81-19.07 24.34-24.04 10.07-4.75 22.19-4.6 31.16 2.43 7.84 6.15 12.4 15.66 15.65 24.86 4.17 11.81 7.29 24.42 7.79 36.97.45 11.67-1.59 23.43-8.07 33.29zm-26.88-71.21c-.01.01-.02.02-.03.04-.05.06-.09.12-.14.18.05-.07.11-.15.17-.22zm.01-1.51c-.27-.27-.6-.31-.96-.25-.51.08-.89.53-1.2.91-.29.35-.58.71-.85 1.08-.45.61-.84 1.27-1.16 1.96-.12.27-.19.54-.11.83.07.25.26.52.5.64.48.25 1.22.16 1.48-.39a11.48 11.48 0 0 1 1.27-2.13c.01-.01.02-.02.02-.03.05-.06.1-.13.15-.19.26-.31.55-.58.8-.89.13-.17.26-.35.3-.58.09-.35.02-.69-.24-.96z" fill="#ddd" stroke="none"/>
</svg>
</g></svg></g></g>
<!-- /image 89145 -->
</defs><rect x="0" y="0" width="250" height="250" fill="rgba(32, 61, 210, 0)"></rect><use xlink:href="#transformed-77381" transform="translate(-250, -250)"></use><use xlink:href="#transformed-77381" transform="translate(0, -250)"></use><use xlink:href="#transformed-77381" transform="translate(250, -250)"></use><use xlink:href="#transformed-77381" transform="translate(-250, 0)"></use><use xlink:href="#transformed-77381" transform="translate(0, 0)"></use><use xlink:href="#transformed-77381" transform="translate(250, 0)"></use><use xlink:href="#transformed-77381" transform="translate(-250, 250)"></use><use xlink:href="#transformed-77381" transform="translate(0, 250)"></use><use xlink:href="#transformed-77381" transform="translate(250, 250)"></use><use xlink:href="#transformed-24305" transform="translate(-250, -250)"></use><use xlink:href="#transformed-24305" transform="translate(0, -250)"></use><use xlink:href="#transformed-24305" transform="translate(250, -250)"></use><use xlink:href="#transformed-24305" transform="translate(-250, 0)"></use><use xlink:href="#transformed-24305" transform="translate(0, 0)"></use><use xlink:href="#transformed-24305" transform="translate(250, 0)"></use><use xlink:href="#transformed-24305" transform="translate(-250, 250)"></use><use xlink:href="#transformed-24305" transform="translate(0, 250)"></use><use xlink:href="#transformed-24305" transform="translate(250, 250)"></use><use xlink:href="#transformed-65030" transform="translate(-250, -250)"></use><use xlink:href="#transformed-65030" transform="translate(0, -250)"></use><use xlink:href="#transformed-65030" transform="translate(250, -250)"></use><use xlink:href="#transformed-65030" transform="translate(-250, 0)"></use><use xlink:href="#transformed-65030" transform="translate(0, 0)"></use><use xlink:href="#transformed-65030" transform="translate(250, 0)"></use><use xlink:href="#transformed-65030" transform="translate(-250, 250)"></use><use xlink:href="#transformed-65030" transform="translate(0, 250)"></use><use xlink:href="#transformed-65030" transform="translate(250, 250)"></use><use xlink:href="#transformed-09339" transform="translate(-250, -250)"></use><use xlink:href="#transformed-09339" transform="translate(0, -250)"></use><use xlink:href="#transformed-09339" transform="translate(250, -250)"></use><use xlink:href="#transformed-09339" transform="translate(-250, 0)"></use><use xlink:href="#transformed-09339" transform="translate(0, 0)"></use><use xlink:href="#transformed-09339" transform="translate(250, 0)"></use><use xlink:href="#transformed-09339" transform="translate(-250, 250)"></use><use xlink:href="#transformed-09339" transform="translate(0, 250)"></use><use xlink:href="#transformed-09339" transform="translate(250, 250)"></use><use xlink:href="#transformed-88528" transform="translate(-250, -250)"></use><use xlink:href="#transformed-88528" transform="translate(0, -250)"></use><use xlink:href="#transformed-88528" transform="translate(250, -250)"></use><use xlink:href="#transformed-88528" transform="translate(-250, 0)"></use><use xlink:href="#transformed-88528" transform="translate(0, 0)"></use><use xlink:href="#transformed-88528" transform="translate(250, 0)"></use><use xlink:href="#transformed-88528" transform="translate(-250, 250)"></use><use xlink:href="#transformed-88528" transform="translate(0, 250)"></use><use xlink:href="#transformed-88528" transform="translate(250, 250)"></use><use xlink:href="#transformed-38547" transform="translate(-250, -250)"></use><use xlink:href="#transformed-38547" transform="translate(0, -250)"></use><use xlink:href="#transformed-38547" transform="translate(250, -250)"></use><use xlink:href="#transformed-38547" transform="translate(-250, 0)"></use><use xlink:href="#transformed-38547" transform="translate(0, 0)"></use><use xlink:href="#transformed-38547" transform="translate(250, 0)"></use><use xlink:href="#transformed-38547" transform="translate(-250, 250)"></use><use xlink:href="#transformed-38547" transform="translate(0, 250)"></use><use xlink:href="#transformed-38547" transform="translate(250, 250)"></use><use xlink:href="#transformed-24867" transform="translate(-250, -250)"></use><use xlink:href="#transformed-24867" transform="translate(0, -250)"></use><use xlink:href="#transformed-24867" transform="translate(250, -250)"></use><use xlink:href="#transformed-24867" transform="translate(-250, 0)"></use><use xlink:href="#transformed-24867" transform="translate(0, 0)"></use><use xlink:href="#transformed-24867" transform="translate(250, 0)"></use><use xlink:href="#transformed-24867" transform="translate(-250, 250)"></use><use xlink:href="#transformed-24867" transform="translate(0, 250)"></use><use xlink:href="#transformed-24867" transform="translate(250, 250)"></use><use xlink:href="#transformed-00775" transform="translate(-250, -250)"></use><use xlink:href="#transformed-00775" transform="translate(0, -250)"></use><use xlink:href="#transformed-00775" transform="translate(250, -250)"></use><use xlink:href="#transformed-00775" transform="translate(-250, 0)"></use><use xlink:href="#transformed-00775" transform="translate(0, 0)"></use><use xlink:href="#transformed-00775" transform="translate(250, 0)"></use><use xlink:href="#transformed-00775" transform="translate(-250, 250)"></use><use xlink:href="#transformed-00775" transform="translate(0, 250)"></use><use xlink:href="#transformed-00775" transform="translate(250, 250)"></use><use xlink:href="#transformed-33653" transform="translate(-250, -250)"></use><use xlink:href="#transformed-33653" transform="translate(0, -250)"></use><use xlink:href="#transformed-33653" transform="translate(250, -250)"></use><use xlink:href="#transformed-33653" transform="translate(-250, 0)"></use><use xlink:href="#transformed-33653" transform="translate(0, 0)"></use><use xlink:href="#transformed-33653" transform="translate(250, 0)"></use><use xlink:href="#transformed-33653" transform="translate(-250, 250)"></use><use xlink:href="#transformed-33653" transform="translate(0, 250)"></use><use xlink:href="#transformed-33653" transform="translate(250, 250)"></use><use xlink:href="#transformed-89145" transform="translate(-250, -250)"></use><use xlink:href="#transformed-89145" transform="translate(0, -250)"></use><use xlink:href="#transformed-89145" transform="translate(250, -250)"></use><use xlink:href="#transformed-89145" transform="translate(-250, 0)"></use><use xlink:href="#transformed-89145" transform="translate(0, 0)"></use><use xlink:href="#transformed-89145" transform="translate(250, 0)"></use><use xlink:href="#transformed-89145" transform="translate(-250, 250)"></use><use xlink:href="#transformed-89145" transform="translate(0, 250)"></use><use xlink:href="#transformed-89145" transform="translate(250, 250)"></use></svg>
