<svg width="109" height="102" viewBox="0 0 109 102" fill="none" xmlns="http://www.w3.org/2000/svg">
<path d="M22.9485 69.7532C22.9385 69.7632 22.9386 69.7732 22.9286 69.7732C22.9886 69.7032 23.0486 69.6332 23.0686 69.6032C23.0286 69.6532 22.9985 69.7032 22.9485 69.7532Z" fill="white"/>
<path d="M25.6686 62.9832C24.4886 61.8932 22.8986 61.9632 21.7186 62.9832C19.8886 64.5532 18.2886 66.4632 17.0686 68.5432C16.4186 69.6432 15.9186 70.8532 15.4686 72.0432C15.0386 73.2032 14.7086 74.6032 14.7986 75.8232C14.8686 76.7732 15.4386 77.7432 16.4386 77.9732C17.4286 78.1932 18.4185 77.8132 18.9585 76.9432C19.1385 76.6532 19.2986 76.3932 19.4386 76.0732C19.5286 75.8632 19.6086 75.6632 19.6886 75.4532C19.7786 75.2332 19.7286 75.3132 19.6786 75.4332C19.7986 75.0032 20.1286 74.5432 20.3086 74.1632C20.7686 73.1832 21.2886 72.2532 21.8686 71.3332C22.1486 70.8832 22.4386 70.4532 22.7486 70.0232C22.8086 69.9332 22.8786 69.8532 22.9386 69.7632C22.9186 69.7832 22.9085 69.8032 22.8885 69.8132C22.9185 69.7832 22.9385 69.7532 22.9585 69.7232C23.0785 69.5632 23.1086 69.5432 23.0686 69.5832C23.1686 69.4532 23.2786 69.3232 23.3786 69.2032C24.0786 68.3832 24.8486 67.6232 25.6686 66.9132C26.7786 65.9832 26.7286 63.9532 25.6686 62.9832Z" fill="white"/>
<path d="M101.869 63.7032C101.739 63.6232 101.679 63.6132 102.089 63.8632C102.079 63.8532 102.069 63.8532 102.059 63.8432C101.999 63.7932 101.939 63.7432 101.869 63.7032Z" fill="white"/>
<path d="M107.519 61.3132C106.199 59.8332 104.509 58.5932 102.759 57.6632C100.989 56.7232 99.0586 56.0132 97.0786 55.6832C96.3186 55.5532 95.6186 55.5632 94.9286 55.9632C94.7286 56.0732 94.5486 56.2432 94.3686 56.4132C93.5186 51.5032 91.7186 46.7932 89.0986 42.5332C87.5986 40.0832 85.8186 37.7832 83.8386 35.6932C81.9486 33.6932 79.7986 32.0332 77.6686 30.3032C74.7386 27.9232 69.4186 23.9632 70.8286 19.7132C71.5086 17.6632 73.3486 16.0232 74.5486 14.2732C75.9886 12.1632 76.7086 9.56317 75.8286 7.07317C74.1486 2.34317 68.2786 1.01317 63.8386 0.943167C58.3686 0.853167 52.8386 1.68319 47.5586 3.09319C36.9786 5.93319 27.1586 11.2732 19.0786 18.6732C11.0586 26.0232 4.86858 35.4432 1.88858 45.9332C-0.0314243 52.7232 -0.581385 60.0732 0.678615 67.0632C1.28861 76.7232 6.8486 85.7332 14.3486 91.6932C23.9386 99.3132 36.2886 101.963 48.3486 101.083C54.6886 100.623 60.9586 99.3332 66.9886 97.3432C72.8886 95.3932 78.6186 92.7532 83.3286 88.6332C91.1186 81.8232 95.3386 71.0732 94.8486 60.7532C95.0686 60.8932 95.3086 61.0032 95.5886 61.0432C96.7586 61.2432 97.8886 61.5832 98.9886 62.0132C99.8786 62.4132 100.729 62.8832 101.539 63.4332C101.649 63.5132 101.769 63.5932 101.879 63.6832C101.939 63.7132 102.009 63.7632 102.059 63.8032C102.069 63.8132 102.069 63.8132 102.079 63.8232C102.099 63.8432 102.129 63.8632 102.149 63.8732C102.129 63.8632 102.119 63.8532 102.099 63.8432C102.199 63.9232 102.299 64.0032 102.399 64.0932C102.819 64.4532 103.219 64.8232 103.619 65.2032C104.659 66.2132 106.509 66.3132 107.529 65.2032C108.579 64.0632 108.539 62.4632 107.519 61.3132ZM85.0186 79.0032C78.8586 88.2232 67.6286 92.0432 57.2586 94.2432C46.4286 96.5432 34.3086 96.5432 24.2186 91.4632C19.8486 89.2632 15.8786 86.1332 12.7586 82.3332C12.8986 81.5132 12.6186 80.6332 12.0386 79.9332C9.4486 76.7932 7.68861 73.3232 6.60861 69.6632C6.24861 67.8532 6.09862 66.0832 6.11862 64.1732C6.12862 63.3032 5.80858 62.6532 5.32858 62.2132C4.62858 49.9532 10.1686 36.8632 17.8686 27.9332C24.2886 20.4832 32.5086 14.5232 41.5886 10.7132C46.2586 8.75319 51.1986 7.40319 56.1986 6.65319C58.5886 6.29319 61.0286 6.09316 63.4486 6.00316C65.4786 5.92316 67.5786 5.98319 69.4686 6.81319C70.7886 7.39319 71.8186 8.31317 71.5886 9.69317C71.2986 11.4832 69.4686 12.9732 68.3686 14.3132C66.7686 16.2732 65.6086 18.5532 65.6286 21.1332C65.6486 23.4832 66.6286 25.7032 67.9986 27.5732C71.0486 31.7332 75.4986 34.3332 79.1786 37.8332C82.8286 41.3032 85.8686 45.5732 87.7086 50.2832C91.4286 59.7232 90.7086 70.4932 85.0186 79.0032Z" fill="white"/>
<path d="M57.1186 45.3432C57.2386 45.6032 57.1286 45.1932 57.1186 45.1332L57.0486 44.7732C56.9986 44.5132 56.9485 44.2532 56.8885 43.9932C56.7785 43.4932 56.6686 42.9932 56.5486 42.4932C56.3186 41.4732 56.0886 40.4632 55.8586 39.4432C55.6986 38.7332 54.8385 38.2432 54.1385 38.4632C53.3885 38.7032 52.9885 39.4132 53.1585 40.1832C53.3885 41.2032 53.6286 42.2132 53.8586 43.2332C53.9686 43.7332 54.0785 44.2332 54.1985 44.7232C54.2585 44.9632 54.3186 45.2032 54.3786 45.4332C54.4086 45.5532 54.4385 45.6732 54.4685 45.7932C54.4885 45.8732 54.5085 45.9532 54.5285 46.0332C54.5385 46.1032 54.5486 46.1332 54.5586 46.1432C54.6286 46.9732 55.4585 47.5832 56.2785 47.3532C56.6085 47.2632 56.9285 47.0232 57.0985 46.7232C57.3885 46.2732 57.3386 45.7932 57.1186 45.3432Z" fill="white"/>
<path d="M68.3986 43.0632C68.2786 42.6732 68.1686 42.2832 68.0486 41.8932C67.8086 41.0832 67.5586 40.2732 67.3186 39.4632C67.1086 38.7632 66.3286 38.2532 65.5986 38.4832C64.8886 38.7132 64.3986 39.4532 64.6186 40.2032C64.8586 41.0132 65.1086 41.8232 65.3486 42.6332C65.4686 43.0232 65.5786 43.4132 65.6986 43.8032C65.8386 44.2832 65.9486 44.8732 66.2286 45.2832C66.5586 45.7632 67.1586 46.0932 67.7486 45.9032C68.3286 45.7132 68.7186 45.2132 68.7386 44.6032C68.7586 44.0832 68.5386 43.5532 68.3986 43.0632Z" fill="white"/>
<path d="M70.4786 55.1032C69.7586 52.9032 67.9986 51.1332 65.9186 50.1632C65.2386 49.8432 64.4086 49.9732 64.0086 50.6632C63.9986 50.6732 63.9986 50.6932 63.9886 50.7132C63.7586 50.7732 63.5286 50.8732 63.3586 51.0532C61.8086 52.6432 60.5686 54.6632 60.4986 56.9332C60.4286 58.9432 61.4786 61.1532 63.3086 62.0932C65.2786 63.1132 67.5886 62.5432 69.0986 60.9832C70.6086 59.4332 71.1486 57.1832 70.4786 55.1032ZM67.9786 57.1932C67.9786 57.2132 67.9686 57.2932 67.9686 57.3432C67.9586 57.3932 67.9386 57.4732 67.9386 57.4932C67.9186 57.5632 67.9085 57.6232 67.8885 57.6932C67.8785 57.7332 67.7686 58.0332 67.7686 58.0532C67.6886 58.2232 67.5986 58.3932 67.4986 58.5432C67.4486 58.6232 67.3986 58.6932 67.3486 58.7732C67.3386 58.7832 67.3486 58.7732 67.3386 58.7832C67.3286 58.7932 67.3286 58.7932 67.3086 58.8132C67.1986 58.9332 67.0986 59.0532 66.9786 59.1632C66.9186 59.2132 66.8686 59.2632 66.8086 59.3132C66.7786 59.3332 66.7486 59.3532 66.7386 59.3632C66.5686 59.4732 66.3986 59.5732 66.2186 59.6632C66.1986 59.6732 66.2085 59.6732 66.1985 59.6732C66.1885 59.6732 66.1986 59.6732 66.1886 59.6732C66.1286 59.6932 66.0686 59.7132 65.9986 59.7332C65.9486 59.7432 65.6886 59.8032 65.6486 59.8132C65.5286 59.8232 65.3986 59.8232 65.2786 59.8232C65.3186 59.8132 65.0086 59.7732 64.9286 59.7532C64.8686 59.7332 64.8086 59.7132 64.7586 59.6932C64.7286 59.6732 64.6786 59.6532 64.6586 59.6432C64.6086 59.6132 64.2186 59.3432 64.3986 59.4932C64.2586 59.3832 64.1486 59.2532 64.0186 59.1332C64.0186 59.1332 63.9886 59.1032 63.9686 59.0732C63.9286 59.0232 63.8486 58.9132 63.8386 58.8932C63.7386 58.7432 63.6585 58.5832 63.5785 58.4332C63.5685 58.4132 63.5486 58.3732 63.5386 58.3432C63.5186 58.2732 63.4886 58.2132 63.4686 58.1432C63.4186 57.9932 63.3786 57.8432 63.3486 57.6832C63.3486 57.6632 63.3286 57.5932 63.3186 57.5332C63.3086 57.4632 63.2986 57.3332 63.2986 57.3132C63.2586 56.5632 63.4586 55.7532 63.7886 55.1132C64.2286 54.2432 64.6786 53.6832 65.3386 53.0032C65.3986 53.0432 65.4586 53.0632 65.5186 53.1032C65.6586 53.1932 65.7986 53.2932 65.9386 53.3832C65.9586 53.4032 65.9586 53.3932 65.9686 53.4032C65.9786 53.4132 65.9786 53.4132 65.9986 53.4232C66.0886 53.5032 66.1786 53.5732 66.2686 53.6532C66.5386 53.8932 66.7786 54.1532 67.0186 54.4232C67.0386 54.4532 67.0486 54.4532 67.0486 54.4632C67.0586 54.4732 67.0486 54.4632 67.0586 54.4832C67.1186 54.5632 67.1686 54.6332 67.2186 54.7132C67.3386 54.8932 67.4486 55.0732 67.5486 55.2532C67.5886 55.3332 67.6286 55.4232 67.6786 55.5032C67.6786 55.5032 67.6986 55.5432 67.7086 55.5832C67.7286 55.6332 67.7586 55.7332 67.7686 55.7532C67.7986 55.8432 67.8286 55.9332 67.8486 56.0232C67.8886 56.1832 67.9286 56.3332 67.9586 56.4932C68.0186 56.7732 67.9686 56.6032 67.9686 56.5332C67.9786 56.6732 67.9886 56.8132 67.9886 56.9532C67.9786 57.0532 67.9786 57.1232 67.9786 57.1932Z" fill="white"/>
</svg>
