<svg width="87" height="144" viewBox="0 0 87 144" fill="none" xmlns="http://www.w3.org/2000/svg">
<path d="M33.5086 39.2932C32.7486 39.3232 32.1086 39.9032 32.1086 40.6932C32.1086 41.3932 32.1086 42.0932 32.1186 42.7932C32.1186 43.1332 32.1186 43.4832 32.1186 43.8232C32.1186 43.9932 32.1086 44.1632 32.1186 44.3432C32.1386 44.8132 32.3286 45.1832 32.6186 45.5432C32.7986 45.7632 33.2186 45.9232 33.4986 45.9132C33.8086 45.9032 34.1786 45.8032 34.3786 45.5432C34.6686 45.1832 34.8586 44.8132 34.8786 44.3432C34.8886 44.1832 34.8786 44.0232 34.8786 43.8632C34.8786 43.5032 34.8786 43.1532 34.8786 42.7932C34.8786 42.0932 34.8785 41.3932 34.8885 40.6932C34.9085 39.9632 34.2586 39.2632 33.5086 39.2932Z" fill="white"/>
<path d="M48.1186 43.5632C48.0386 42.9432 47.9586 42.3232 47.8786 41.7032C47.8286 41.3232 47.7585 41.0032 47.4685 40.7132C47.2285 40.4732 46.8286 40.2932 46.4786 40.3032C46.1186 40.3232 45.7386 40.4332 45.4886 40.7132C45.2586 40.9632 45.0385 41.3432 45.0785 41.7032L45.3186 43.6032C45.4086 44.3332 45.4785 45.0732 45.6385 45.7932C45.7885 46.4532 46.4986 46.8532 47.1286 46.7632C47.7686 46.6732 48.3286 46.1032 48.3086 45.4232C48.2986 44.8032 48.1986 44.1832 48.1186 43.5632Z" fill="white"/>
<path d="M47.7085 36.0032C47.6085 35.8432 47.4786 35.7132 47.3186 35.6132C47.1986 35.5332 47.0586 35.4932 46.9186 35.4832C46.7786 35.4532 46.6286 35.4532 46.4886 35.5032C46.1486 35.6432 45.7986 35.7732 45.4786 35.9532C45.2386 36.0932 44.9886 36.2332 44.7486 36.3832C44.4886 36.5332 44.2785 36.8032 44.1985 37.0932C44.1485 37.2532 44.1386 37.4132 44.1786 37.5632C44.1886 37.7232 44.2286 37.8732 44.3186 38.0032C44.4786 38.2532 44.7285 38.4832 45.0285 38.5532C45.3385 38.6232 45.6685 38.6032 45.9485 38.4332C46.1885 38.2832 46.4286 38.1332 46.6686 37.9932C46.9786 37.8032 47.2586 37.5532 47.5486 37.3232C47.6086 37.2532 47.6585 37.1732 47.7185 37.1032C47.7985 36.9832 47.8386 36.8432 47.8486 36.7032C47.8786 36.6032 47.8786 36.5132 47.8486 36.4132C47.8386 36.2632 47.7885 36.1232 47.7085 36.0032Z" fill="white"/>
<path d="M42.8885 50.8932C42.6385 50.5732 42.2486 50.3332 41.8186 50.3532C40.8986 50.3932 39.9686 50.3232 39.0586 50.3032C38.8186 50.3032 38.5885 50.3732 38.3885 50.4832C37.9885 50.4132 37.5885 50.4932 37.2685 50.8132C36.8385 51.2332 36.7686 51.7832 36.8686 52.3532C36.9086 52.6032 36.9585 52.8532 37.0185 53.1032C37.1185 53.5632 37.2285 54.0332 37.3485 54.4932C37.6185 55.5032 37.8985 56.5532 38.3285 57.5032C38.5485 57.9732 38.9186 58.4232 39.3686 58.6932C40.0886 59.1232 40.9585 59.0332 41.5885 58.4832C42.0385 58.0932 42.1885 57.5332 42.2885 56.9732C42.3785 56.4832 42.4586 56.0032 42.5486 55.5132C42.7486 54.3732 42.9785 53.2332 43.1485 52.0832C43.1985 51.6232 43.1785 51.2632 42.8885 50.8932Z" fill="white"/>
<path d="M85.6286 82.7732C84.3786 82.1332 83.0886 81.5732 81.7886 81.0432C82.2486 80.6732 82.6886 80.2932 83.0986 79.8832C85.4986 77.4532 86.4286 74.4232 85.8386 71.0532C84.9086 65.6832 80.1286 61.5332 74.8086 61.6832C72.7586 49.7532 70.2886 37.7732 66.8886 26.1732C65.5486 21.6232 63.8286 17.0932 61.4586 12.9832C59.0686 8.83318 55.9786 5.43318 52.0186 2.72318C50.1086 1.42318 48.0186 0.60318 45.7686 0.0731796C45.2886 -0.0368204 44.8586 -0.0168238 44.4786 0.0931762C44.3986 0.0831762 44.3186 0.0631829 44.2386 0.0531829C38.4686 -0.356817 32.9186 2.34318 28.8486 6.29318C24.5186 10.4932 21.9786 16.1732 20.0286 21.7932C16.0686 33.1932 13.1486 45.0132 10.8186 56.8532C10.0486 56.2332 9.26862 55.6232 8.49862 55.0032L6.58858 53.4832C6.26858 53.2332 5.94862 52.9732 5.62862 52.7232C5.16862 52.3532 4.66858 51.8432 4.14858 51.6032C3.56858 51.3432 3.03857 51.1932 2.38857 51.2732C1.80857 51.3532 1.20861 51.5932 0.808614 52.0332C0.488614 52.3832 0.248592 52.7932 0.0985922 53.2532C-0.0914078 53.8332 -0.0113785 54.8732 0.378621 55.3732C0.618621 55.6832 0.82857 55.9932 1.13857 56.2432C1.29857 56.3732 1.45861 56.4932 1.61861 56.6232C1.93861 56.8732 2.25857 57.1332 2.57857 57.3832C3.23857 57.9032 3.8886 58.4332 4.5486 58.9532C5.8386 59.9832 7.13861 61.0132 8.42861 62.0432C8.83861 62.3732 9.23858 62.6232 9.70858 62.7532C7.67858 74.2232 6.34861 85.8332 5.73861 97.4632C5.41861 103.513 5.0486 109.693 5.6086 115.733C6.1486 121.503 7.7886 127.003 11.6086 131.483C18.0886 139.073 28.6786 141.223 38.0986 142.373C49.1886 143.723 61.7086 144.663 70.2586 136.053C78.8886 127.363 80.0886 114.563 79.5386 102.953C79.2686 97.1632 78.7986 91.3732 78.1886 85.5932C79.7686 86.1532 81.3186 86.8132 82.8186 87.5832C84.1586 88.2732 85.8386 87.9332 86.6286 86.5832C87.3486 85.3432 86.9686 83.4532 85.6286 82.7732ZM80.6786 72.4732C81.0886 74.3032 80.2386 75.4532 78.9286 76.6332C78.3886 77.1132 77.8386 77.5032 77.2686 77.8232C76.8086 74.3032 76.2986 70.7932 75.7386 67.2932C76.5886 67.3932 77.4186 67.7132 78.1586 68.2832C79.4286 69.2432 80.3086 70.8032 80.6786 72.4732ZM74.1886 110.083C74.0786 115.473 73.2786 121.053 70.8686 125.943C68.8586 130.013 65.8586 133.563 61.7986 135.683C56.9586 138.203 51.2086 138.193 45.8986 137.893C37.0986 137.393 27.2886 136.603 19.6386 131.793C15.8586 129.413 13.1086 125.913 11.7886 121.633C10.1886 116.453 10.3486 110.923 10.4786 105.563C10.7686 93.4832 11.8286 81.4232 13.7086 69.4832C15.6086 57.3932 18.3186 45.4532 21.8186 33.7332C24.6986 24.0832 27.7186 11.5232 37.7186 6.81318C39.7786 5.84318 41.9786 5.48318 44.2386 5.64318C44.7186 5.67318 45.1786 5.54318 45.5786 5.30318C49.0186 6.37318 51.8586 8.46318 54.1486 11.4332C56.6386 14.6632 58.4586 18.4832 59.8486 22.3232C61.5786 27.0932 62.7786 32.0332 63.9786 36.9532C65.4586 43.0032 66.7986 49.0832 67.9986 55.1932C69.6586 63.6532 71.0286 72.1732 72.0786 80.7232C71.8386 81.5132 71.9486 82.4232 72.3686 83.1432C72.7086 86.0532 73.0086 88.9632 73.2586 91.8832C73.8086 97.9232 74.3086 104.013 74.1886 110.083Z" fill="white"/>
</svg>
