<svg width="96" height="114" viewBox="0 0 96 114" fill="none" xmlns="http://www.w3.org/2000/svg">
<path d="M93.2686 80.7132C92.2186 80.3432 91.1586 80.0032 90.0886 79.6632C88.9486 75.0432 86.2586 70.7432 82.5086 67.8232C82.2486 67.6232 81.9786 67.4532 81.7086 67.2632C88.1486 63.4032 92.8186 56.7732 94.7086 49.4632C97.3286 39.3532 94.3086 28.5432 88.2786 20.2332C75.6286 2.7932 51.5586 -4.4268 31.3286 2.8632C23.2186 5.7832 15.9386 10.7032 10.2486 17.0932C9.38862 17.1832 8.58855 17.6932 8.05855 18.4532C1.79855 27.5232 -1.18138 39.2532 1.24862 50.1232C3.47862 60.0732 10.6086 67.8632 20.2786 71.0132C24.7286 72.4632 29.5787 72.7932 34.1587 71.7832C38.7787 70.7632 42.5986 68.1932 45.8586 64.8332C47.5486 63.0832 49.1286 61.2232 50.8686 59.5132C52.3086 58.1032 53.9686 56.6932 55.6086 56.1632C56.7986 55.7732 59.2986 55.4032 60.1486 56.9532C60.1286 56.9232 60.1886 57.2932 60.2286 57.3532C60.2186 57.4132 60.1986 57.4632 60.1786 57.5132C60.1286 57.5832 60.0687 57.6532 60.0387 57.7032C59.9187 57.7832 59.7586 57.9032 59.6886 57.9632C59.3286 58.2032 58.9486 58.4232 58.5686 58.6232C56.8486 59.5132 54.9786 60.1232 53.3786 61.2432C50.9886 62.9132 49.6386 65.3232 49.4586 68.2432C49.3186 70.6032 50.0886 72.8632 51.3486 74.8132C47.5986 73.1132 43.1486 72.9632 39.3086 74.4532C28.5286 78.6432 23.7486 93.3032 29.3986 103.293C34.9986 113.203 49.2287 114.203 59.2887 113.233C70.7587 112.123 82.1885 106.873 87.7985 96.3032C89.5485 93.0032 90.5586 89.3932 90.6986 85.7232C91.0586 85.8432 91.4186 85.9532 91.7786 86.0832C93.1586 86.5632 94.8986 85.5332 95.2186 84.1332C95.5686 82.5932 94.7486 81.2332 93.2686 80.7132ZM84.2386 90.6032C80.9586 100.483 71.0686 105.863 61.3386 107.423C56.2986 108.233 50.7686 108.203 45.7786 107.243C41.5286 106.433 36.9886 104.793 34.4686 101.063C29.3686 93.5432 33.7287 79.9532 43.4087 78.8132C45.4187 78.5732 47.5386 78.8532 49.3186 79.7832C51.4786 80.9032 52.5386 82.7932 54.0186 84.6432C55.7686 86.8232 58.3486 88.0332 61.1486 87.5232C64.0486 86.9932 65.9886 84.0432 65.1186 81.1632C63.5886 76.1232 56.6286 75.2532 55.2186 70.1432C54.9886 69.3132 54.9386 68.3932 55.1486 67.6432C55.2286 67.3532 55.3386 67.0032 55.5086 66.7532C55.6186 66.5932 55.7886 66.4432 55.9286 66.3032C55.9686 66.2632 56.2285 66.0532 56.2985 65.9932C57.8085 64.9232 59.6286 64.3332 61.2686 63.4932C63.1386 62.5432 64.8386 61.1632 65.5086 59.1132C66.4186 56.3432 65.0786 53.5432 62.8086 51.9132C58.6186 48.9032 53.1786 50.5232 49.4486 53.4132C45.8186 56.2232 43.1786 60.0332 39.7186 63.0332C36.9286 65.4532 33.0685 66.7132 29.4285 66.8132C21.6885 67.0232 13.5886 62.9232 9.56856 56.1532C4.51856 47.6632 5.17863 36.7132 9.13863 27.9132C9.57863 26.9332 10.0686 25.9832 10.5786 25.0432C20.7486 10.5232 39.1086 2.9032 56.5986 6.4532C65.8586 8.3332 74.5087 12.9232 80.9087 19.9232C86.9387 26.5332 90.8986 35.4532 90.0086 44.5132C89.1486 53.3132 83.0087 62.0432 74.2887 64.5032C71.6887 65.2332 71.5887 69.1932 74.2887 69.8732C78.4787 70.9232 81.6586 73.9532 83.5786 77.8532C83.5886 77.8732 83.5986 77.8932 83.6086 77.9132C83.0986 77.7932 82.5786 77.6632 82.0686 77.5532C80.6486 77.2432 78.9786 77.9732 78.6286 79.5032C78.3086 80.9132 79.0486 82.6132 80.5786 82.9432C82.1186 83.2732 83.6586 83.6632 85.1786 84.0732C85.2686 86.2332 84.9486 88.4432 84.2386 90.6032Z" fill="white"/>
<path d="M22.8185 53.0132C22.8185 53.0132 22.8285 53.0032 22.8185 53.0132C22.7885 53.0232 22.7586 53.0432 22.7386 53.0632C22.7686 53.0332 22.7985 53.0232 22.8185 53.0132Z" fill="white"/>
<path d="M24.8686 50.8132C24.0286 50.7032 23.3386 51.3332 23.3086 52.1632C23.3086 52.1832 23.3086 52.2032 23.2986 52.2232C23.3086 52.1932 23.3086 52.1832 23.3186 52.1332C23.2986 52.2532 23.2887 52.3632 23.2687 52.4832C23.2587 52.5032 23.2486 52.5332 23.2386 52.5432C23.2186 52.5732 23.1387 52.6732 23.1487 52.6732C23.1387 52.6832 23.1386 52.6832 23.1286 52.6932C23.0286 52.8032 22.9286 52.9132 22.8086 53.0032C22.8186 53.0032 22.8186 52.9932 22.8286 52.9932C22.8186 52.9932 22.8086 53.0032 22.7986 53.0132C22.7186 53.0832 22.7086 53.0732 22.7286 53.0532C22.6886 53.0832 22.6486 53.1132 22.6186 53.1332C22.5686 53.1632 22.3087 53.3532 22.2587 53.3232C22.4187 53.2632 22.4486 53.2432 22.3586 53.2732C22.3186 53.2832 22.2786 53.3032 22.2386 53.3132C22.1686 53.3332 22.1087 53.3532 22.0387 53.3732C22.0287 53.3732 21.9487 53.3932 21.8887 53.4032C21.8687 53.4032 21.8486 53.4032 21.8386 53.4032C21.8186 53.4032 21.6686 53.4132 21.5586 53.4132C21.5486 53.4132 21.5587 53.4132 21.5387 53.4132C21.4987 53.4032 21.4586 53.3932 21.4186 53.3932C21.3486 53.3732 21.2786 53.3632 21.2186 53.3432C21.2086 53.3432 21.1686 53.3332 21.1186 53.3232C21.0786 53.3032 21.0387 53.2832 21.0087 53.2732C20.8787 53.2132 20.7687 53.1332 20.6487 53.0632C20.6387 53.0632 20.6387 53.0632 20.6387 53.0532C20.5887 53.0032 20.5286 52.9632 20.4786 52.9132C20.4286 52.8632 20.3786 52.8132 20.3286 52.7632C20.2986 52.7332 20.2686 52.7032 20.2486 52.6632C20.1886 52.5932 20.2086 52.6232 20.3086 52.7532C20.2386 52.7332 20.1186 52.4632 20.0886 52.3932C20.0686 52.3532 20.0487 52.3232 20.0287 52.2832C20.0187 52.2632 20.0287 52.2732 20.0187 52.2632C20.0087 52.2132 19.9986 52.1532 19.9886 52.1432C19.8086 51.5232 19.1086 51.0632 18.4586 51.2732C17.8286 51.4732 17.3886 52.1332 17.5886 52.8032C18.1286 54.6132 19.9386 56.0232 21.8686 55.9032C22.8586 55.8432 23.7486 55.4532 24.4986 54.8032C24.8286 54.5132 25.0786 54.1632 25.3186 53.8032C25.4086 53.6732 25.4986 53.5232 25.5786 53.3732C25.5886 53.3532 25.5986 53.3432 25.6186 53.3232C25.6786 53.2632 25.7287 53.1932 25.7587 53.1132C25.8487 52.9532 25.9186 52.7432 25.9786 52.5632C26.2986 51.7432 25.6286 50.9132 24.8686 50.8132Z" fill="white"/>
<path d="M23.2985 52.2232C23.2685 52.3832 23.2885 52.3232 23.2985 52.2232V52.2232Z" fill="white"/>
<path d="M15.8185 41.6032C15.8285 41.4132 15.7885 41.2332 15.6985 41.0632C15.6385 40.8932 15.5486 40.7432 15.4086 40.6132C15.1386 40.3732 14.7885 40.1832 14.4185 40.2032C14.0585 40.2232 13.6885 40.3432 13.4285 40.6132C13.0885 40.9832 12.7786 41.3932 12.5186 41.8232C12.4186 41.9932 12.3286 42.1632 12.2486 42.3332C12.1686 42.5232 12.0786 42.7132 12.0086 42.9132C11.9986 42.9432 11.9886 42.9632 11.9786 42.9932C11.9586 43.1132 11.9485 43.2432 11.9285 43.3632C11.9285 43.3732 11.9285 43.3832 11.9285 43.3932C11.9385 43.6332 11.9986 43.8732 12.1186 44.0832C12.1286 44.1032 12.1386 44.1232 12.1486 44.1332C12.2186 44.2232 12.2786 44.3032 12.3486 44.3932C12.4686 44.5232 12.6086 44.6132 12.7686 44.6632C12.8686 44.7232 12.9786 44.7532 13.0986 44.7532C13.2686 44.7932 13.4386 44.7832 13.6186 44.7332C13.9586 44.6532 14.3586 44.3932 14.5186 44.0632C14.5486 43.9932 14.5786 43.9232 14.6186 43.8532C14.6786 43.7232 14.7485 43.5832 14.8185 43.4532C14.9385 43.2232 15.0886 43.0132 15.2486 42.8032C15.3086 42.7332 15.3585 42.6632 15.4285 42.5932C15.6585 42.3232 15.8185 41.9732 15.8185 41.6032Z" fill="white"/>
<path d="M27.9386 42.6432C27.9186 42.5232 27.9086 42.4032 27.8886 42.2732C27.8786 42.2032 27.8586 42.1332 27.8186 42.0732C27.7886 41.9532 27.7286 41.8532 27.6386 41.7632C27.5986 41.7032 27.5586 41.6432 27.5086 41.5932C27.4386 41.5132 27.3586 41.4432 27.2786 41.3632C27.1186 41.2132 26.9586 41.0632 26.7786 40.9332C26.3486 40.5932 25.9085 40.2632 25.4285 40.0032C25.1085 39.8232 24.7086 39.7632 24.3486 39.8632C24.1686 39.9032 24.0086 39.9932 23.8786 40.1132C23.7286 40.2132 23.6086 40.3432 23.5186 40.5032C23.3486 40.8232 23.2586 41.2232 23.3786 41.5832C23.4886 41.9232 23.6986 42.2432 24.0186 42.4132C24.3186 42.5832 24.5986 42.7732 24.8686 42.9732C24.9786 43.0632 25.0886 43.1532 25.1986 43.2532C25.2786 43.3232 25.3585 43.4032 25.4285 43.4732C25.4685 43.5132 25.5085 43.5532 25.5485 43.5932L25.8286 43.8132C25.9386 43.8632 26.0486 43.9032 26.1586 43.9532C26.2886 43.9932 26.4486 43.9932 26.5786 44.0132C26.4586 43.9932 26.3386 43.9832 26.2186 43.9632C26.2586 43.9732 26.2986 43.9732 26.3286 43.9832C26.5486 44.0432 26.7786 44.0432 26.9986 43.9832C27.1686 43.9432 27.3085 43.8732 27.4285 43.7532C27.5685 43.6632 27.6786 43.5432 27.7586 43.3932C27.8686 43.1932 27.9285 42.9832 27.9285 42.7532C27.9485 42.7232 27.9486 42.6832 27.9386 42.6432Z" fill="white"/>
</svg>
