<svg width="101" height="131" viewBox="0 0 101 131" fill="none" xmlns="http://www.w3.org/2000/svg">
<path d="M54.9285 42.0132C54.7585 40.7532 54.2485 39.6032 53.4185 38.6332C52.8585 37.9832 52.0485 37.3932 51.1785 37.1232C50.9585 36.6332 50.4986 36.3132 49.9086 36.2832C47.4286 36.1532 45.0686 37.8732 44.1186 40.1032C43.6086 41.3032 43.4186 42.6132 43.7586 43.9032C44.0386 44.9632 44.6786 45.9332 45.5386 46.6032C47.3786 48.0532 49.8885 48.4432 52.0485 47.4932C54.1685 46.5732 55.2285 44.2632 54.9285 42.0132ZM52.1886 43.0932C52.1886 43.1032 52.1886 43.1232 52.1886 43.1432C52.1786 43.1832 52.1586 43.3132 52.1486 43.3532C52.1286 43.4532 52.0986 43.5432 52.0686 43.6432C52.0486 43.7032 51.9986 43.8032 51.9786 43.8832C51.9786 43.8932 51.9686 43.8932 51.9686 43.9032C51.9386 43.9732 51.7586 44.1932 51.6886 44.3332C51.7386 44.2732 51.8086 44.2432 51.7086 44.3332C51.6986 44.3532 51.6785 44.3632 51.6685 44.3832C51.6685 44.3932 51.6586 44.4132 51.6586 44.4132C51.6586 44.4032 51.6685 44.3932 51.6685 44.3832C51.6585 44.4032 51.6386 44.4132 51.6286 44.4332C51.5586 44.5032 51.4886 44.5732 51.4086 44.6432C51.3986 44.6532 51.3886 44.6632 51.3786 44.6732C51.2986 44.7132 51.2086 44.8032 51.1486 44.8332C51.0786 44.8732 50.9985 44.9232 50.9285 44.9632C50.9085 44.9732 50.8686 44.9932 50.8186 45.0132C50.7686 45.0332 50.7085 45.0632 50.6785 45.0632C50.5685 45.1032 50.4586 45.1332 50.3486 45.1632C50.2686 45.1832 50.1786 45.2032 50.0986 45.2232C50.0886 45.2232 50.0785 45.2232 50.0585 45.2332C49.9085 45.1932 49.6386 45.2632 49.4886 45.2632C49.3886 45.2632 49.2886 45.2532 49.1886 45.2532C49.1686 45.2532 49.1386 45.2532 49.1086 45.2432C49.0486 45.2332 48.9385 45.2132 48.9185 45.2132C48.8185 45.1932 48.7186 45.1732 48.6186 45.1432C48.4386 45.0932 48.2586 45.0332 48.0786 44.9732C48.0686 44.9632 48.0685 44.9632 48.0485 44.9632C47.9585 44.9132 47.8686 44.8732 47.7786 44.8232C47.6886 44.7732 47.3886 44.5232 47.2886 44.5032C47.1986 44.4332 47.1186 44.3532 47.0386 44.2732C46.9786 44.2132 46.9186 44.1532 46.8686 44.0832C46.8586 44.0732 46.8486 44.0632 46.8486 44.0532C46.7486 43.8832 46.6385 43.7232 46.5485 43.5532C46.5485 43.5432 46.5386 43.5332 46.5386 43.5132C46.5086 43.4232 46.4786 43.3332 46.4486 43.2432C46.4186 43.1532 46.4086 43.0532 46.3786 42.9532C46.3686 42.9332 46.3686 42.9132 46.3686 42.9032C46.3686 42.8832 46.3686 42.8532 46.3686 42.8432C46.3586 42.6332 46.3586 42.4232 46.3786 42.2132C46.3786 42.1932 46.3786 42.1932 46.3786 42.1732C46.3786 42.1632 46.3786 42.1632 46.3886 42.1432C46.4186 42.0332 46.4386 41.9232 46.4686 41.8132C46.4986 41.6832 46.5486 41.5632 46.5886 41.4432C46.5886 41.4332 46.5986 41.4032 46.6086 41.3832C46.6086 41.3732 46.6086 41.3832 46.6186 41.3732C46.7386 41.1332 46.8586 40.9032 46.9986 40.6832C47.0186 40.6532 47.0786 40.5632 47.1186 40.5032C47.1286 40.4932 47.1286 40.4932 47.1286 40.4832C47.1786 40.4232 47.2386 40.3532 47.2886 40.2932C47.4586 40.1132 47.6386 39.9432 47.8186 39.7832C47.8586 39.7532 47.9185 39.7132 47.9285 39.7032C48.0185 39.6432 48.1186 39.5732 48.2186 39.5232C48.3286 39.4532 48.4486 39.4032 48.5686 39.3432C48.5886 39.3332 48.6186 39.3232 48.6386 39.3132C48.6586 39.3132 48.6585 39.3132 48.6785 39.3032C48.7385 39.2832 48.9086 39.2132 49.0686 39.1632C49.2286 39.3532 49.4386 39.5032 49.6886 39.5932C49.8686 39.6532 50.0386 39.7132 50.2186 39.7732C50.2886 39.7932 50.3586 39.8332 50.4386 39.8632C50.4586 39.8732 50.4886 39.8832 50.5086 39.9032C50.6686 39.9832 50.8186 40.0832 50.9686 40.1832C50.9786 40.1932 50.9786 40.1932 50.9886 40.2032C51.0586 40.2732 51.1386 40.3332 51.2086 40.4032C51.2786 40.4732 51.3486 40.5432 51.4086 40.6232C51.4186 40.6332 51.4286 40.6432 51.4386 40.6532C51.4386 40.6532 51.4286 40.6432 51.4386 40.6432L51.4486 40.6532C51.4686 40.6732 51.4886 40.6932 51.5086 40.7232C51.5986 40.8332 51.5186 40.7732 51.4786 40.7132C51.5386 40.8432 51.7386 41.0832 51.7786 41.1532C51.8186 41.2332 51.8586 41.3032 51.8986 41.3832C51.9086 41.4032 51.9186 41.4432 51.9386 41.4732C51.9986 41.6432 52.0586 41.8032 52.1086 41.9832C52.1486 42.1332 52.1586 42.3232 52.2086 42.4732C52.2086 42.4832 52.2086 42.4932 52.2086 42.5032C52.2186 42.6132 52.2186 42.7332 52.2186 42.8432C52.1986 42.9032 52.1986 43.0032 52.1886 43.0932Z" fill="white"/>
<path d="M51.4385 40.6132C51.4385 40.6332 51.4486 40.6532 51.4586 40.6732C51.4486 40.6432 51.4385 40.6232 51.4385 40.6132Z" fill="white"/>
<path d="M51.6785 44.3732C51.6785 44.3532 51.6885 44.3432 51.6985 44.3232C51.6785 44.3432 51.6785 44.3632 51.6785 44.3732Z" fill="white"/>
<path d="M47.1186 22.3732C46.3986 22.2132 45.5987 22.5932 45.4087 23.3432C45.1887 24.2432 44.9586 25.1432 44.7386 26.0532C44.6286 26.4932 44.5187 26.9431 44.4087 27.3831C44.3487 27.6131 44.2986 27.8431 44.2486 28.0731C44.1486 28.5731 44.0886 29.0132 44.3586 29.4832C44.6986 30.0731 45.5186 30.3031 46.1186 29.9431C46.4586 29.7331 46.6786 29.4732 46.7986 29.0932C46.8286 28.9932 46.8587 28.9032 46.8887 28.8032C46.9587 28.5732 47.0186 28.3432 47.0686 28.1132L47.4087 26.7832C47.6387 25.8832 47.8686 24.9832 48.0986 24.0832C48.2686 23.3732 47.8686 22.5432 47.1186 22.3732Z" fill="white"/>
<path d="M60.1286 26.8532C59.9586 26.5632 59.6285 26.2832 59.2985 26.2132C58.9385 26.1332 58.5385 26.1532 58.2185 26.3532C57.9385 26.5332 57.6285 26.8332 57.5785 27.1832C57.4685 27.9432 57.3485 28.7032 57.2385 29.4632C57.0985 30.3732 56.8485 31.3431 57.0985 32.2531C57.2285 32.7131 57.6285 33.0532 58.0985 33.1132C58.5885 33.1832 59.0285 32.9532 59.2985 32.5432C59.7485 31.8432 59.8085 30.9631 59.9285 30.1631C60.0485 29.4231 60.1586 28.6732 60.2786 27.9332C60.3286 27.5432 60.3386 27.2032 60.1286 26.8532Z" fill="white"/>
<path d="M99.6286 100.823C99.1486 100.333 98.6486 99.9331 98.0186 99.6431C97.5486 99.4231 97.0886 99.2031 96.6286 98.9731C95.7086 98.5131 94.7986 98.0231 93.9086 97.5031C92.7986 96.8531 91.7186 96.1531 90.6586 95.4131C89.5386 93.3731 88.0786 91.5831 86.5186 89.7731C84.8486 87.8431 82.9985 85.7332 82.7385 83.0932C82.4685 80.3032 83.8585 77.6531 85.3085 75.3231C87.0085 72.5831 89.0586 70.0731 90.7886 67.3531C92.5786 64.5331 93.9785 61.4331 94.9785 58.2431C98.9385 45.6331 96.4085 31.5531 88.7985 20.8231C81.6285 10.7231 70.6686 3.47314 58.5086 1.04314C46.8586 -1.28686 34.3586 0.313139 23.8786 6.01314C13.5686 11.6231 6.06848 21.1931 2.79848 32.4431C-0.391525 43.4031 0.398524 55.6431 5.84852 65.7731C8.62852 70.9331 12.6585 75.3531 17.0885 79.1731C17.2085 83.6031 18.5685 87.9531 21.6085 91.2931C21.7785 91.4831 21.9686 91.6331 22.1486 91.7531C21.3686 93.2131 20.6285 94.7031 19.9785 96.2231C17.2185 102.713 16.0785 109.923 19.3585 116.453C22.0285 121.773 27.1085 125.393 32.5485 127.513C35.2985 128.593 38.1986 129.183 41.1386 129.483C41.5586 129.523 41.9485 129.403 42.3085 129.203C56.3385 131.023 71.7785 132.273 83.6085 122.953C88.6985 118.943 91.9986 113.173 92.7486 106.723C92.8786 105.583 92.9185 104.413 92.8585 103.253C93.2085 103.433 93.5486 103.643 93.9086 103.813C94.3686 104.043 94.8385 104.263 95.3085 104.483C95.6985 104.663 96.0986 104.863 96.5086 104.973C96.9486 105.083 97.4085 105.093 97.8585 105.103C100.059 105.143 101.129 102.343 99.6286 100.823ZM85.1685 112.693C78.9285 124.173 63.9485 125.643 52.3585 124.743C48.8085 124.463 45.2786 124.003 41.7586 123.543C41.0286 123.443 40.3485 123.783 39.8385 124.313C35.2585 123.623 30.7085 121.623 27.3485 118.433C23.2185 114.503 21.5785 109.223 22.7285 103.613C23.4085 100.293 24.7385 97.1732 26.3085 94.1832C27.8785 91.1832 30.1686 88.1132 29.4086 84.5332C28.7386 81.3532 25.5185 79.5631 23.1985 77.6431C23.0085 77.4831 22.8185 77.3231 22.6185 77.1631C22.6585 76.6231 22.7086 76.0832 22.7886 75.5632C23.5486 70.0632 25.9686 64.9431 27.0286 59.5131C27.3186 58.0431 26.6085 56.5231 25.0985 56.1031C23.6985 55.7131 22.0385 56.5732 21.6885 58.0332C20.5185 62.9832 18.6785 67.7931 17.7085 72.7931C17.0785 72.1831 16.4585 71.5631 15.8585 70.9231C12.0485 66.8731 9.11854 62.1631 7.48854 56.8231C5.94854 51.8031 5.50854 46.5431 5.98854 41.3231C6.94854 31.0031 11.9385 21.0631 19.9585 14.4531C28.2785 7.59314 39.4085 4.54314 50.0785 5.11314C61.1685 5.70314 71.7286 10.4031 79.5286 18.3031C87.8286 26.7131 92.3085 38.1231 91.0885 49.9632C90.4585 56.0031 88.1285 61.5731 84.6685 66.5231C81.2685 71.3831 76.7285 76.7531 77.1885 83.1031C77.4285 86.4131 78.8985 89.1532 80.9185 91.7132C82.1085 93.2132 83.4585 94.6031 84.5985 96.1431C84.5485 96.5031 84.5585 96.8632 84.6785 97.2132C84.9185 97.9532 85.3485 98.4231 85.9585 98.8831C86.0785 98.9731 86.2085 99.0632 86.3385 99.1532C88.1085 103.473 87.3785 108.623 85.1685 112.693ZM23.5685 84.3231C24.3585 84.9431 24.9085 85.4831 24.7485 86.5131C24.2685 85.8231 23.8785 85.0931 23.5685 84.3231Z" fill="white"/>
</svg>
