<svg width="105" height="122" viewBox="0 0 105 122" fill="none" xmlns="http://www.w3.org/2000/svg">
<path d="M101.389 68.7132C98.8186 68.5132 96.2586 68.4432 93.7086 68.5032C94.9986 66.0832 96.1986 63.6132 97.2586 61.0832C101.809 50.2432 103.289 37.0032 96.2586 26.8032C95.5986 25.8432 94.8686 24.9832 94.0986 24.1632C93.8586 23.7532 93.5286 23.3832 93.1186 23.0932C92.9786 23.0032 92.8386 22.9132 92.6986 22.8232C91.9686 22.1932 91.2086 21.5832 90.3686 21.0332C90.0586 20.8332 89.7386 20.7132 89.4286 20.6732C79.8786 14.6032 69.5386 9.76318 58.7686 6.29318C52.7586 4.36318 46.6186 2.86318 40.3886 1.82318C34.0086 0.76318 27.0886 -0.316825 20.7686 1.69318C9.32858 5.34318 5.28863 17.5532 2.50863 28.0332C0.838632 34.3232 -0.381419 41.3032 2.01858 47.5732C4.06858 52.9432 8.12858 57.1232 12.9586 60.1132C18.2186 63.3632 24.2486 64.9832 30.2686 66.1332C33.6286 66.7732 37.0186 67.2932 40.3786 67.9432C43.1986 68.4932 46.1986 69.0032 48.7386 70.4132C53.6486 73.1332 54.0886 79.1132 52.0286 83.8632C49.6186 89.4132 44.8686 93.2232 41.1986 97.8732C37.6486 102.363 35.2586 107.843 37.0086 113.603C38.6786 119.103 43.8886 122.353 49.5586 121.043C55.6586 119.633 60.1686 114.463 64.1686 110.023C68.5786 105.133 72.7686 100.043 76.7186 94.7832C80.7186 89.4632 84.4786 83.9632 87.9886 78.3032C88.8786 76.8732 89.7586 75.4332 90.6186 73.9732C94.0586 73.6632 97.5186 73.5732 100.959 73.6932C102.659 74.5932 104.779 73.1032 104.779 71.2432C104.789 69.3532 103.029 68.3232 101.389 68.7132ZM77.2686 84.6432C73.7186 89.8232 69.9586 94.8432 65.9986 99.7032C64.0886 102.053 62.1286 104.363 60.1286 106.633C58.1586 108.863 56.1986 111.163 53.9286 113.113C51.0086 115.613 45.4286 118.533 42.7686 114.233C40.4386 110.473 42.1186 105.733 44.5386 102.233C47.8086 97.5032 52.3586 93.8232 55.2186 88.7632C58.0586 83.7432 59.0586 77.7632 56.7086 72.3532C54.3486 66.9232 48.9286 64.8132 43.4986 63.6632C37.1886 62.3332 30.7386 61.6432 24.5286 59.8732C19.5086 58.4432 14.6486 56.1832 10.9186 52.4532C7.0486 48.5832 5.43858 43.7032 5.82858 38.2632C6.05858 35.1132 6.87862 32.0332 7.74862 29.0032C8.45862 26.5432 9.20859 24.0832 10.0886 21.6832C11.7186 17.2432 13.9186 12.7332 17.5786 9.64319C21.7586 6.11319 27.4886 5.87319 32.7386 6.36319C38.5486 6.90319 44.3386 8.09319 49.9786 9.55319C61.5586 12.5432 72.6686 17.1532 82.9586 23.2432C85.2586 24.6032 87.5086 26.0432 89.7186 27.5432C95.6986 34.3232 96.6886 43.8732 94.3286 52.6132C92.7686 58.3832 90.0686 63.7332 87.1186 68.9032C87.1086 68.9232 87.0986 68.9332 87.0886 68.9532C85.1986 69.1632 83.3186 69.4332 81.4386 69.7832C79.9886 70.0532 79.1586 71.8132 79.5286 73.1532C79.9486 74.6732 81.4386 75.3432 82.8986 75.0632C83.1086 75.0232 83.3186 74.9932 83.5286 74.9532C81.5286 78.2332 79.4386 81.4732 77.2686 84.6432Z" fill="white"/>
<path d="M36.9986 45.5032C36.9186 45.5232 36.8286 45.5432 36.7486 45.5732C36.7286 45.5832 36.7286 45.5832 36.7186 45.5832H36.7086C36.5986 45.5832 36.4986 45.5932 36.3886 45.5932C36.3286 45.5932 36.1286 45.5532 36.0986 45.5532C35.9386 45.5132 35.7886 45.4732 35.6286 45.4232C35.6386 45.4332 35.6486 45.4332 35.6586 45.4432C35.6486 45.4332 35.6386 45.4332 35.6286 45.4232C35.5786 45.4032 35.5186 45.3732 35.5386 45.3732C35.4886 45.3432 35.4386 45.3232 35.3786 45.2932C35.2886 45.2432 35.1986 45.1832 35.1086 45.1232C35.0886 45.1132 35.0886 45.1132 35.0786 45.1032C35.0686 45.0932 35.0686 45.0932 35.0586 45.0832C34.9786 45.0132 34.8986 44.9432 34.8286 44.8632C34.7886 44.8232 34.6586 44.6432 34.6386 44.6332C34.5686 44.5232 34.4986 44.4132 34.4386 44.2932C34.4386 44.2832 34.4286 44.2832 34.4286 44.2832C34.4286 44.2732 34.4286 44.2632 34.4186 44.2432C34.3986 44.1432 34.3686 44.0332 34.3386 43.9332C34.3286 43.9132 34.3286 43.9032 34.3286 43.8832C34.3286 43.8532 34.3286 43.8332 34.3286 43.7832C34.3286 43.6332 34.3186 43.4732 34.3186 43.3232C34.3186 43.0132 34.3186 42.7132 34.2886 42.4032C34.0186 39.5832 30.9686 37.9132 28.4286 39.1432C27.7686 39.4632 27.5386 40.4532 27.9286 41.0532C28.3686 41.7332 29.1386 41.8932 29.8386 41.5532C29.8486 41.5532 29.8486 41.5432 29.8586 41.5432C29.8686 41.5432 29.8786 41.5432 29.8986 41.5332C29.9486 41.5232 30.1086 41.5032 30.1086 41.4932C30.1586 41.4932 30.2086 41.4832 30.2586 41.4832C30.3586 41.4832 30.6486 41.5632 30.3086 41.4732C30.4086 41.5032 30.5186 41.5132 30.6186 41.5532C30.6986 41.5732 30.9886 41.7232 30.6886 41.5632C30.7486 41.5932 30.8186 41.6232 30.8786 41.6632C30.9586 41.7032 31.2886 41.9832 31.0386 41.7532C31.1186 41.8232 31.1886 41.9032 31.2686 41.9732C31.2886 41.9832 31.2886 41.9932 31.2986 42.0032C31.2986 42.0132 31.3086 42.0132 31.3086 42.0232C31.3586 42.1132 31.4186 42.2032 31.4686 42.2932C31.2986 41.9932 31.4486 42.2832 31.4786 42.3532C31.4886 42.3832 31.4986 42.4032 31.4986 42.4132C31.5186 42.5532 31.5186 42.7032 31.5186 42.8432C31.5286 43.2032 31.5086 43.5632 31.5386 43.9132C31.7086 46.0632 33.3786 47.8732 35.4986 48.2632C36.6686 48.4832 38.9586 48.4132 38.9686 46.7332C38.9686 45.6732 37.9086 45.2832 36.9986 45.5032Z" fill="white"/>
<path d="M35.6286 45.4232C35.5686 45.3932 35.5386 45.3732 35.5286 45.3732C35.5586 45.3932 35.5886 45.4032 35.6286 45.4232C35.6286 45.4232 35.6186 45.4232 35.6286 45.4232Z" fill="white"/>
<path d="M17.3186 37.9432C16.5186 37.8232 15.7586 37.7232 14.9586 37.8732C14.1286 38.0232 13.4286 38.4932 12.9386 39.1732C12.2086 40.1832 12.3086 41.4732 12.4386 42.6432C12.4686 42.9332 12.4986 43.2132 12.5186 43.5032C12.5286 43.7332 12.5586 44.0432 12.5086 44.2832C12.4886 44.3432 12.4586 44.4232 12.4486 44.4432C12.4386 44.4732 12.4286 44.5032 12.4186 44.5332C12.4086 44.5632 12.3986 44.5832 12.3886 44.6032C12.3386 44.6832 12.2686 44.7732 12.2586 44.8032C12.2486 44.8232 12.2486 44.8132 12.2386 44.8332C12.2186 44.8532 12.1986 44.8832 12.1786 44.9032C12.0986 44.9932 11.9986 45.0732 11.9086 45.1632C11.8686 45.1932 11.8286 45.2132 11.7886 45.2432C11.6886 45.3032 11.5786 45.3632 11.4686 45.4132C11.4186 45.4332 11.3686 45.4432 11.3286 45.4632C11.3086 45.4732 11.1986 45.5032 11.1086 45.5332C11.0886 45.5332 11.0686 45.5332 11.0386 45.5432C10.9786 45.5432 10.9086 45.5532 10.8486 45.5532C10.7886 45.5532 10.7186 45.5532 10.6586 45.5432C10.6286 45.5432 10.6186 45.5432 10.5986 45.5432C10.4986 45.5132 10.3886 45.4832 10.3586 45.4732C9.65861 45.2832 8.81859 45.7032 8.64859 46.4432C8.46859 47.2332 8.88862 47.8832 9.61862 48.1532C10.8186 48.6032 12.3386 48.2732 13.3586 47.5532C14.5186 46.7432 15.2186 45.5632 15.3086 44.1432C15.3486 43.5732 15.2686 43.0032 15.2086 42.4332C15.1786 42.1832 15.1586 41.9432 15.1386 41.6932C15.1286 41.5832 15.0586 40.9532 15.1486 40.8932C15.1186 41.1032 15.1186 41.1432 15.1486 40.9832C15.1586 40.9232 15.1786 40.8732 15.1886 40.8232C15.1986 40.8032 15.2186 40.7732 15.2286 40.7532C15.2486 40.7332 15.2686 40.7132 15.2886 40.6932C15.2986 40.6932 15.2886 40.6932 15.2986 40.6832C15.3186 40.6732 15.3286 40.6632 15.3386 40.6632C15.4186 40.6432 15.5386 40.6132 15.5586 40.6032C15.6686 40.5932 15.7786 40.5832 15.8886 40.5932C16.0486 40.5932 16.1986 40.6132 16.3586 40.6232C16.3986 40.6332 16.4286 40.6332 16.4486 40.6332C16.4886 40.6432 16.5286 40.6432 16.5586 40.6532C17.2786 40.7632 18.0986 40.4732 18.2786 39.6732C18.4486 38.9932 18.0886 38.0632 17.3186 37.9432Z" fill="white"/>
<path d="M17.0286 25.8632C16.2486 25.6832 15.5586 26.0932 15.3086 26.8432C14.9786 27.8032 14.7686 28.8032 14.6586 29.8232C14.6086 30.3432 14.5586 30.9332 14.7186 31.4332C14.7386 31.4932 14.7586 31.5432 14.7786 31.6032C14.7786 31.4332 14.7786 31.4232 14.7786 31.5632C14.7886 31.6532 14.7886 31.7532 14.7986 31.8432C14.8086 32.0332 14.8186 32.2432 14.8686 32.4332C14.9286 32.7032 15.0486 32.8732 15.2286 33.0932C15.6886 33.6532 16.6186 33.4232 16.9586 32.8732C17.1586 32.5432 17.1586 32.2132 17.1486 31.8532C17.1486 31.7732 17.1486 31.6932 17.1486 31.6132C17.1886 31.5132 17.1886 31.5132 17.1486 31.6032C17.1486 31.6032 17.1486 31.6032 17.1486 31.5932C17.2586 31.3132 17.2986 31.1432 17.3286 30.8132C17.3386 30.7232 17.3486 30.6232 17.3586 30.5332C17.3586 30.5132 17.3686 30.4132 17.3786 30.3432C17.3886 30.2732 17.3986 30.1732 17.4086 30.1532C17.4186 30.0732 17.4286 30.0132 17.4386 29.9532C17.4386 29.9232 17.4486 29.9032 17.4486 29.8732C17.4686 29.7532 17.4886 29.6232 17.5086 29.5032C17.5486 29.2832 17.5886 29.0732 17.6386 28.8632C17.7386 28.4332 17.8586 28.0132 18.0086 27.6032C18.2386 26.8932 17.7286 26.0232 17.0286 25.8632Z" fill="white"/>
<path d="M25.1486 44.5432C25.1086 44.3632 25.0186 44.1932 24.9586 44.0232C25.0186 44.1432 25.0886 44.2032 24.8586 43.7932C24.8086 43.7032 24.7486 43.6232 24.6786 43.5432C24.5286 43.3532 24.3585 43.1932 24.1385 43.0732C23.7185 42.8432 23.2286 42.8132 22.7586 42.8432C21.8786 42.8932 20.9886 43.0232 20.1186 43.2132C19.8186 43.2732 19.5686 43.4832 19.4086 43.7432C18.8186 43.7432 18.2586 44.1132 18.1086 44.7032C17.9186 45.4232 17.9786 46.1932 18.0686 46.9232C18.1586 47.6632 18.2986 48.3932 18.5486 49.0932C19.0586 50.5132 20.1086 52.6532 21.9886 52.1732C22.8586 51.9532 23.3586 51.2632 23.6586 50.4632C23.9086 49.7932 24.0886 49.0932 24.2986 48.4132C24.5186 47.6832 24.7486 46.9632 24.9586 46.2332C25.0586 45.8732 25.1486 45.5232 25.1886 45.1532C25.2186 44.9432 25.1886 44.7432 25.1486 44.5432ZM21.8186 47.1732C21.6586 47.6832 21.4986 48.2032 21.3386 48.7132C21.2986 48.6332 21.2586 48.5632 21.2186 48.4832C21.2086 48.4532 21.1986 48.4432 21.1886 48.4332C21.1786 48.4132 21.1786 48.4032 21.1686 48.3832C21.1186 48.2532 21.0686 48.1232 21.0286 48.0032C20.9486 47.7632 20.8786 47.5232 20.8286 47.2732C20.7986 47.1432 20.7786 47.0232 20.7586 46.8932C20.7586 46.8532 20.7486 46.7632 20.7386 46.7032C20.7086 46.3432 20.7286 45.9732 20.7486 45.6132C20.7586 45.6132 20.7686 45.6132 20.7786 45.6132C21.0686 45.5432 21.3486 45.4832 21.6386 45.4332C21.7586 45.4132 21.8886 45.3932 22.0086 45.3732C22.0586 45.3632 22.0586 45.3632 22.0886 45.3632C22.1386 45.3532 22.1986 45.3532 22.2486 45.3432C22.2986 45.3332 22.3586 45.3332 22.4086 45.3332C22.3886 45.3932 22.3686 45.4632 22.3486 45.5232C22.1786 46.0632 21.9986 46.6232 21.8186 47.1732Z" fill="white"/>
<path d="M31.6586 29.3032C31.8386 28.6332 31.4286 27.8232 30.7286 27.6632C30.0286 27.5032 29.2786 27.8732 29.0886 28.5932C28.9386 29.1632 28.8186 29.7432 28.7286 30.3232C28.6686 30.6932 28.6186 31.0632 28.5786 31.4332C28.5486 31.6732 28.5486 31.9032 28.5586 32.1232C28.4986 32.4032 28.4386 32.6832 28.4786 32.9532C28.5086 33.2032 28.5986 33.4332 28.6586 33.6832C28.7686 34.1732 29.3086 34.5832 29.8186 34.5632C30.3286 34.5432 30.8686 34.2132 30.9786 33.6832C30.9886 33.6432 30.9986 33.5232 31.0186 33.4432C31.0586 33.3432 31.1086 33.2432 31.1486 33.1432C31.2186 32.8532 31.1786 32.5932 31.1486 32.3132C31.2086 31.9632 31.2486 31.6132 31.2786 31.2632C31.3586 30.6032 31.4886 29.9432 31.6586 29.3032Z" fill="white"/>
</svg>
