<svg width="103" height="110" viewBox="0 0 103 110" fill="none" xmlns="http://www.w3.org/2000/svg">
<path d="M37.9685 56.9932C37.1085 57.1732 36.2486 57.3732 35.3986 57.5832C35.1586 57.6432 34.9486 57.7832 34.7786 57.9732C34.5586 57.9632 34.3285 57.9932 34.1085 58.1132C33.2985 58.5432 33.2085 59.6231 33.1985 60.4331C33.1885 61.0631 33.2785 61.7032 33.4385 62.3132C33.7485 63.5132 34.3985 64.6832 35.3585 65.4732C36.1385 66.1232 37.2085 65.8732 37.5485 64.8932C37.5985 64.7532 37.5985 64.7432 37.5485 64.8732C37.5785 64.8032 37.6086 64.7232 37.6386 64.6532C37.7186 64.4732 37.7885 64.3032 37.8585 64.1232C37.9685 63.8632 38.0685 63.6032 38.1685 63.3432C38.3685 62.8232 38.5585 62.2932 38.7185 61.7532C38.8785 61.2232 39.0385 60.6832 39.1685 60.1332C39.2285 59.8632 39.2785 59.5832 39.3185 59.3032C39.3485 59.1132 39.3686 58.9232 39.3886 58.7332C39.3586 58.9732 39.4285 58.5132 39.4385 58.4632C39.6585 57.5432 38.8685 56.8032 37.9685 56.9932ZM36.5386 59.8932C36.4386 60.2632 36.3285 60.6332 36.2085 61.0032C36.1585 61.1532 36.1085 61.3032 36.0585 61.4532C36.0385 61.3732 36.0186 61.2932 36.0086 61.2132C35.9986 61.1632 35.9885 61.1231 35.9885 61.0731C35.9685 60.9631 35.9786 61.0132 36.0086 61.2032C35.9686 61.1632 35.9785 60.8831 35.9785 60.8231C35.9685 60.6931 35.9685 60.5732 35.9785 60.4432C35.9785 60.3432 35.9885 60.2532 35.9885 60.1532C35.9885 60.1132 35.9986 60.0732 35.9986 60.0332C36.0186 60.0332 36.0485 60.0332 36.0685 60.0332C36.2185 59.9832 36.3786 59.9332 36.5386 59.8932Z" fill="white"/>
<path d="M102.478 63.2032C102.458 62.5632 102.258 62.0432 101.918 61.6332C100.918 61.0632 99.5785 60.8832 98.4885 60.8532C96.7185 60.7932 94.3984 61.2132 93.4384 59.2632C92.5384 57.4332 93.0784 54.5732 93.2984 52.6332C93.4984 50.9132 93.7485 49.1932 94.0085 47.4732C94.1385 46.2032 94.2685 44.9432 94.3285 43.7032C94.5885 38.3832 94.4184 33.0332 93.4384 27.7932C91.6584 18.2332 86.5385 9.29317 77.9585 4.34317C76.1885 3.32317 74.1885 2.43317 72.1185 1.82317C71.9385 1.72317 71.7485 1.64317 71.5085 1.58317C50.3185 -3.35683 33.6384 16.7832 23.4384 32.4532C20.6284 36.7732 18.0885 41.2632 15.8385 45.8932C14.5485 48.5532 13.3185 51.2532 12.2485 54.0232C10.1185 52.9132 8.02848 51.7532 5.97848 50.4932C4.81848 49.7832 3.28852 49.2332 2.01852 50.0432C1.06852 50.6432 0.688477 51.7632 0.978477 52.8332C1.21848 53.7232 1.82842 54.3632 2.54842 54.8932C3.84842 55.8532 5.31848 56.6232 6.72848 57.4232C7.94848 58.1132 9.18843 58.7632 10.4284 59.4032C10.3684 59.6032 10.3085 59.7932 10.2585 59.9932C8.91851 64.9732 8.33845 70.2532 9.44845 75.3432C10.4184 79.8032 12.8685 83.9132 16.2185 87.0132C24.8685 95.0132 37.1285 96.0932 48.3585 95.1232C48.3985 95.1232 48.4385 95.1132 48.4685 95.1032C48.3785 95.2632 48.2885 95.4232 48.2185 95.6032C48.0585 96.0232 47.9085 96.4432 47.7685 96.8732C47.6085 97.1632 47.4585 97.4632 47.3285 97.7832C46.4185 100.063 46.5985 102.753 48.3885 104.563C48.9285 105.113 49.5785 105.543 50.2685 105.903C50.7085 106.233 51.1784 106.523 51.6784 106.773C55.6384 108.783 60.4885 109.383 64.8685 109.623C67.2185 109.753 69.5784 109.693 71.9184 109.453C74.2184 109.213 76.6885 108.983 78.8785 108.213C83.4985 106.583 85.0885 101.763 86.7785 97.5932C87.7685 95.1532 88.6584 92.6732 89.4284 90.1532C89.9884 88.3232 90.7185 86.3132 90.9085 84.3332C91.0885 83.8832 91.2584 83.4432 91.4284 82.9932C91.5784 82.7732 91.6785 82.5232 91.7585 82.2732C92.5485 82.1232 93.3285 81.8632 93.9885 81.5932C96.4685 80.5432 98.6285 78.5632 99.9885 76.2132C100.028 76.1232 100.079 76.0432 100.129 75.9532C100.359 75.4732 100.578 74.9932 100.798 74.5132C102.278 70.9232 102.608 67.0232 102.478 63.2032ZM98.7585 71.4232C98.2885 72.9532 97.3385 74.3632 96.2785 75.5632C95.6185 76.3132 94.8084 76.8532 93.9384 77.2732C93.2284 77.7232 92.4685 78.1032 91.7085 78.4432C91.2685 78.6432 90.8085 78.7432 90.3485 78.8632C89.9585 79.0432 89.5684 79.2132 89.1784 79.4032C89.0284 79.4732 88.8685 79.5532 88.7185 79.6332C88.5085 79.8932 88.2985 80.1532 88.1185 80.4332C87.4485 81.4432 86.9285 82.5532 86.4885 83.6932C85.9285 86.3332 85.5184 89.0232 84.9384 91.5432C84.2784 94.3932 83.4785 97.3832 81.9685 99.9132C81.4485 100.773 80.7885 101.443 80.0285 101.963C78.8985 103.313 77.3384 103.943 75.6684 104.463C71.5384 105.743 67.1385 105.903 62.8785 105.333C60.8085 105.053 58.7585 104.613 56.7585 104.013C54.9185 103.453 53.2684 102.903 52.0684 101.323C51.5684 100.673 51.9885 99.7932 52.6085 99.4132C52.9885 98.5932 53.6185 97.8532 54.1485 97.1332C54.8785 96.1432 55.4385 95.1732 55.8985 94.0332C56.2385 93.1832 55.7985 92.2132 55.2485 91.5832C54.0785 90.2432 52.4585 89.7832 50.9085 90.0432C50.4385 89.9932 49.9785 89.9832 49.5085 90.0132C49.1685 89.8432 48.7985 89.7532 48.4085 89.7832C39.3885 90.4032 29.7485 90.4132 21.9885 85.0832C18.9285 82.9832 16.3085 79.9732 15.0785 76.4332C13.6285 72.2532 13.8085 67.7632 14.7585 63.4932C16.7585 54.4932 21.2485 45.8632 25.9885 38.0232C30.7685 30.1332 36.4185 22.5332 43.1285 16.1732C47.2685 12.2432 52.3285 8.78317 57.8285 6.99317C58.0285 6.85317 58.2485 6.76317 58.4585 6.77317C58.4685 6.77317 58.4785 6.76318 58.4785 6.76318C58.4785 6.76318 58.4785 6.76317 58.4785 6.77317C58.5585 6.78317 58.6485 6.77317 58.7285 6.77317C63.6585 5.01317 68.7684 5.35317 73.6984 7.65317C74.0984 7.84317 74.4685 8.06317 74.8385 8.28317C77.3585 9.19317 79.6185 10.6832 81.5385 12.6932C84.2785 15.5632 86.1985 19.0432 87.2285 22.8732C87.3485 23.3132 87.4385 23.7532 87.5385 24.1932C87.7985 24.9032 88.0285 25.6232 88.2185 26.3632C90.1985 34.0632 89.4985 42.3532 88.9685 50.1932C88.8285 52.2632 88.6285 54.3232 88.4585 56.3932C88.4185 57.8832 88.4085 59.3732 88.5185 60.8432C88.5385 61.1232 88.5885 61.3932 88.6285 61.6532C88.9885 62.2832 89.4185 62.8632 89.9585 63.3432C91.0285 64.3032 92.3185 64.6632 93.7285 64.7432C94.5785 64.7932 95.4285 64.7932 96.2785 64.8332C96.8285 64.8532 97.5585 64.7932 98.0885 65.0432C98.3985 65.1332 98.6884 65.3432 98.8184 65.7132C99.0684 65.9832 99.1484 66.3932 99.0684 66.7732C99.0984 68.3232 99.2185 69.9032 98.7585 71.4232Z" fill="white"/>
<path d="M70.1486 58.9932C69.9886 58.4132 69.5785 57.9032 69.0585 57.5932C68.4385 57.2332 67.7885 57.1931 67.0885 57.3231C66.7885 57.3731 66.4885 57.4632 66.1985 57.5532C65.5785 57.7632 64.9585 57.9932 64.3385 58.2032C63.0485 58.6432 61.7685 59.1032 60.4785 59.5332C59.8185 59.7532 59.2285 60.1532 58.8685 60.7732C58.5285 61.3532 58.3885 62.2032 58.5985 62.8532C58.8085 63.5032 59.2085 64.1332 59.8385 64.4632C60.4485 64.7832 61.2385 64.9832 61.9185 64.7332C63.1985 64.2732 64.4885 63.8032 65.7485 63.2732C66.5285 62.9532 67.2985 62.6331 68.0685 62.2931C68.3485 62.1731 68.6285 62.0432 68.8785 61.8732C69.8385 61.2632 70.4686 60.1632 70.1486 58.9932Z" fill="white"/>
<path d="M45.4886 44.9232C44.5986 44.6932 43.6086 44.5432 42.7586 45.0032C41.8886 45.4832 41.4385 46.4832 41.6885 47.4632C41.7785 47.8332 41.9985 48.1532 42.2085 48.4632C42.4385 48.8032 42.6785 49.1232 42.9385 49.4432C43.3985 50.0332 43.9385 50.7832 44.6985 50.9732C45.4185 51.1532 46.0486 50.5132 45.8786 49.7932C45.7686 49.3632 45.4885 49.0232 45.1985 48.6932C45.0985 48.5732 44.9986 48.4532 44.8986 48.3332C44.8786 48.3032 44.7386 48.1632 44.7386 48.1332L44.8285 48.2432C44.7985 48.2032 44.7686 48.1632 44.7386 48.1332C44.5486 47.8832 44.3785 47.6332 44.2085 47.3732C44.1985 47.3532 44.1885 47.3332 44.1685 47.3132C44.1985 47.3132 44.2386 47.3132 44.2686 47.3132C44.4386 47.3432 44.6186 47.3832 44.7886 47.4232C45.4486 47.5932 46.2386 47.2032 46.3886 46.5132C46.5586 45.8432 46.1986 45.1032 45.4886 44.9232Z" fill="white"/>
<path d="M32.4485 43.8032C32.0585 43.7132 31.6585 43.6332 31.2585 43.6032C30.8585 43.5732 30.4585 43.6132 30.0585 43.6932C29.5685 43.7832 29.2385 44.4032 29.3885 44.8732C29.4885 45.1832 29.6985 45.3732 29.9485 45.4732C29.4685 45.9532 28.9586 46.4132 28.5286 46.9432C28.3186 47.1932 28.1785 47.4531 28.1785 47.7931C28.1785 48.0831 28.3086 48.4332 28.5286 48.6432C29.0186 49.0932 29.7385 49.1032 30.2185 48.6432C30.7185 48.1732 31.1485 47.6032 31.6085 47.0832C32.1085 46.5132 32.6186 45.9331 33.0386 45.2931C33.3886 44.7531 33.0585 43.9432 32.4485 43.8032Z" fill="white"/>
</svg>
