<svg width="107" height="112" viewBox="0 0 107 112" fill="none" xmlns="http://www.w3.org/2000/svg">
<path d="M21.4986 35.9332C20.7886 35.9632 20.3186 36.4732 20.2686 37.1632C20.1986 38.1132 20.1286 39.0532 20.0486 40.0032C20.0086 40.4632 19.9786 40.9332 19.9386 41.3932C19.8886 42.0332 19.7586 42.8132 20.3386 43.2732C20.7286 43.5732 21.1786 43.6932 21.6286 43.4432C22.3686 43.0332 22.3486 42.1932 22.4086 41.4532C22.4386 40.9932 22.4786 40.5232 22.5086 40.0632C22.5786 39.0932 22.6586 38.1332 22.7286 37.1632C22.7786 36.5232 22.1286 35.9032 21.4986 35.9332Z" fill="white"/>
<path d="M31.1386 41.0332C31.1386 40.3932 31.1386 39.7632 31.1386 39.1232C31.1386 39.0132 31.1186 38.9032 31.0886 38.8032C31.0886 38.3932 31.0886 37.9732 31.0686 37.5632C31.0286 36.8632 30.4786 36.1932 29.7386 36.2332C28.9886 36.2632 28.4386 36.8232 28.4086 37.5632C28.3886 37.9732 28.3886 38.3832 28.3886 38.7932C28.3586 38.9032 28.3386 39.0132 28.3386 39.1332C28.3386 39.7732 28.3386 40.4032 28.3386 41.0432C28.3386 41.6732 28.2986 42.3232 28.3486 42.9532C28.3486 42.9832 28.3586 43.0032 28.3586 43.0332C28.3586 43.2432 28.4086 43.4632 28.5386 43.6532C28.5486 43.6632 28.5586 43.6732 28.5686 43.6832C28.6486 43.8132 28.7486 43.9332 28.8786 44.0232C28.8886 44.0332 28.9086 44.0432 28.9186 44.0532C28.9586 44.0832 28.9886 44.1132 29.0386 44.1432C29.1286 44.1932 29.2286 44.2332 29.3286 44.2632C29.3486 44.2732 29.3586 44.2832 29.3686 44.2832C29.3886 44.2932 29.4186 44.2832 29.4386 44.2832C29.5886 44.3232 29.7486 44.3332 29.9086 44.3132C29.9186 44.3132 29.9286 44.3132 29.9386 44.3132C29.9986 44.3032 30.0486 44.3032 30.1086 44.2832C30.1686 44.2632 30.2186 44.2232 30.2786 44.1932C30.3286 44.1732 30.3886 44.1632 30.4386 44.1432C30.4786 44.1232 30.5086 44.0932 30.5386 44.0632C30.5686 44.0432 30.5886 44.0232 30.6086 44.0032C30.7186 43.9132 30.8086 43.8132 30.8786 43.7032C30.8886 43.6832 30.9186 43.6632 30.9286 43.6432C31.0386 43.4532 31.0786 43.2732 31.0986 43.0832C31.1086 43.0332 31.1186 42.9932 31.1186 42.9432C31.1786 42.3132 31.1386 41.6632 31.1386 41.0332Z" fill="white"/>
<path d="M27.8086 50.4432C27.7486 49.8932 27.3786 49.3632 26.7586 49.3932C25.9286 49.4232 25.0985 49.3632 24.2685 49.4332C23.6885 49.4832 23.1186 49.5632 22.5486 49.6632C22.4786 49.6332 22.4286 49.5832 22.3586 49.5632C22.0486 49.4832 21.6386 49.5132 21.3686 49.6932C20.7486 50.0932 20.5885 50.8032 20.9085 51.4532C21.1485 51.9532 21.5286 52.4232 21.8586 52.8732C22.2486 53.4032 22.6485 53.9232 23.0785 54.4332C23.8585 55.3532 24.6986 56.2732 25.6886 56.9832C26.0086 57.2132 26.5085 57.1732 26.8285 56.9832C27.1885 56.7732 27.3685 56.4132 27.3885 56.0032C27.3885 55.9632 27.3885 55.9632 27.3885 55.9432C27.3985 55.9032 27.3985 55.8632 27.4085 55.8232C27.4285 55.7032 27.4485 55.5732 27.4685 55.4532C27.5085 55.1732 27.5485 54.9032 27.5785 54.6232C27.6385 54.1632 27.6886 53.7032 27.7286 53.2332C27.8186 52.3232 27.9086 51.3532 27.8086 50.4432ZM24.7586 52.5932C24.7586 52.5932 24.7586 52.5832 24.7486 52.5832C24.6686 52.4832 24.5885 52.3732 24.5185 52.2732C24.3585 52.0532 24.1986 51.8232 24.0386 51.5932C24.0186 51.5632 23.9986 51.5232 23.9786 51.4932C24.0986 51.4832 24.2085 51.4732 24.3285 51.4632C24.7185 51.4332 25.1086 51.4232 25.4886 51.4232C25.5386 51.4232 25.5885 51.4232 25.6385 51.4232C25.6085 52.0132 25.5785 52.6032 25.5285 53.1832C25.5185 53.2732 25.5086 53.3632 25.4986 53.4532C25.2786 53.2132 25.0586 52.9732 24.8586 52.7232C24.8286 52.6732 24.7886 52.6332 24.7586 52.5932Z" fill="white"/>
<path d="M38.1886 31.7732C38.1586 31.5332 37.8986 31.2332 37.6886 31.1232C37.4186 30.9832 37.1486 30.9532 36.8486 31.0132C36.6086 31.0632 36.4086 31.1932 36.1986 31.3132C36.0486 31.3932 35.9186 31.5132 35.7886 31.6232L35.7786 31.6332C35.7086 31.6732 35.6386 31.7232 35.5686 31.7632H35.5586C35.4986 31.7732 35.3586 31.8332 35.3186 31.8432C35.3086 31.8432 35.2986 31.8432 35.2886 31.8532C35.1386 31.8632 34.9986 31.8632 34.8486 31.8532C34.7986 31.8432 34.7386 31.8332 34.6886 31.8132C34.7486 31.8332 34.7086 31.8232 34.6486 31.8032C34.5986 31.7832 34.5586 31.7732 34.5086 31.7532C34.5786 31.7732 34.6086 31.7932 34.6486 31.8032C34.6286 31.7932 34.6086 31.7832 34.5886 31.7732C34.5386 31.7432 34.4786 31.7132 34.4286 31.6832C34.3586 31.6132 34.2786 31.5532 34.2086 31.4732C34.1986 31.4532 34.1786 31.4332 34.1586 31.4232C34.1486 31.4132 34.1386 31.4032 34.1386 31.3932C34.0786 31.3032 34.0286 31.2032 33.9786 31.1032C33.9686 31.0632 33.9486 31.0232 33.9386 30.9832C33.9186 30.9232 33.9186 30.8732 33.9086 30.8132C33.8986 30.6532 33.8986 30.4932 33.9086 30.3332C33.9386 30.0532 33.8986 29.7832 33.7486 29.5232C33.5886 29.2532 33.2786 28.9932 32.9686 28.9232C32.3286 28.7832 31.4986 29.1132 31.3686 29.8332C31.1986 30.7732 31.3286 31.6932 31.7986 32.5332C32.2486 33.3432 32.9786 33.9232 33.8486 34.2332C34.5986 34.5032 35.4986 34.4632 36.2486 34.2132C36.6286 34.0832 36.9986 33.9332 37.3186 33.6932C37.6086 33.4832 37.8386 33.2632 37.9986 32.9432C38.0686 32.7932 38.1486 32.6432 38.1886 32.4932C38.2586 32.2032 38.2186 32.0432 38.1886 31.7732Z" fill="white"/>
<path d="M34.6786 31.8032C34.6786 31.8032 34.6886 31.8032 34.6786 31.8032C34.6786 31.8032 34.6485 31.7932 34.6385 31.7932C34.6385 31.7932 34.6386 31.7932 34.6486 31.7932C34.6586 31.7932 34.6686 31.8032 34.6786 31.8032Z" fill="white"/>
<path d="M74.3786 93.3032C72.5686 90.1832 69.9085 87.5432 66.7685 85.7732C65.7385 85.1932 64.2386 85.4932 63.6686 86.5832C63.0986 87.6532 63.3786 89.0632 64.4786 89.6832C65.1386 90.0532 65.7785 90.4732 66.3885 90.9232C67.4885 91.7932 68.4786 92.7832 69.3586 93.8832C69.7586 94.4232 70.1386 94.9932 70.4786 95.5732C71.0786 96.5932 72.5485 97.0432 73.5785 96.3832C74.5985 95.7332 75.0086 94.3932 74.3786 93.3032Z" fill="white"/>
<path d="M105.629 94.9732C104.539 91.6932 102.299 88.9432 99.6385 86.7832C96.8685 84.5332 93.7186 82.8432 90.2886 81.8432C86.9486 80.8732 83.6586 80.8632 80.2286 80.8832C78.9486 80.8932 77.5786 80.7932 76.6886 79.9932C75.7886 79.1832 75.3785 77.9432 75.1485 76.6932C74.6985 74.2732 75.2185 71.3032 76.3385 69.0032C77.5885 66.4432 79.5285 64.3432 81.9485 62.8432C82.4985 62.5032 82.8486 62.0732 83.0486 61.5932C92.7986 53.8132 98.0986 40.6532 94.3186 28.4132C90.3986 15.7232 79.1085 6.44319 66.7685 2.48319C54.6085 -1.41681 41.3686 -0.196812 29.9986 5.52319C18.8386 11.1332 9.63857 20.8732 4.48857 32.2232C1.41857 38.9932 -0.281415 46.3332 0.938585 53.7632C1.94858 59.9432 5.04854 65.8432 9.32854 70.3832C18.7185 80.3532 34.0385 82.6832 46.1485 76.3732C47.4785 75.6832 48.7286 74.6432 50.1286 74.1032C50.4186 73.9932 50.7486 73.9132 51.0586 73.8632C50.6486 73.9332 51.5385 74.0032 51.1485 73.8832C51.6685 74.0432 51.2986 73.7932 51.4786 73.9332C51.1386 75.1632 49.9286 76.3132 49.1886 77.3032C48.0786 78.7932 47.0086 80.3232 46.0386 81.9132C45.4986 82.7932 44.9985 83.6932 44.5185 84.6132C44.2085 84.4532 43.8485 84.3432 43.4585 84.3032C41.2685 84.1032 39.0286 84.3632 36.9086 84.9632C35.7986 85.2832 34.7086 85.7132 33.6686 86.2132C32.6386 86.7132 31.4886 87.3332 30.7186 88.1832C29.9086 89.0732 29.7886 90.3532 30.5286 91.3132C31.2686 92.2732 32.5386 92.4832 33.6086 91.9232C34.4686 91.4732 35.2386 90.8232 36.0986 90.3632C36.4686 90.1632 36.8586 89.9432 37.2586 89.8032C36.6686 90.0132 37.4386 89.7432 37.5486 89.7032C37.7786 89.6232 38.0086 89.5332 38.2486 89.4632C38.7186 89.3232 39.1986 89.2032 39.6786 89.1032C39.8586 89.0632 40.0386 89.0332 40.2186 89.0032C40.2786 88.9932 40.3385 88.9832 40.3985 88.9732C40.4285 88.9732 40.4586 88.9632 40.5086 88.9632C41.2186 88.9032 41.9186 88.8932 42.6186 88.9032C42.3186 89.7432 42.0585 90.5932 41.8385 91.4532C41.0085 94.7232 40.5986 98.4932 41.7486 101.743C44.3786 109.123 53.0386 109.463 59.6286 110.123C67.5886 110.913 75.5985 111.203 83.5885 110.993C90.4885 110.813 98.9086 110.903 103.659 104.993C105.959 102.163 106.809 98.5032 105.629 94.9732ZM100.599 98.8032C100.299 101.173 98.1786 103.023 96.0386 103.923C93.0686 105.173 89.6985 105.213 86.5285 105.343C82.7785 105.493 79.0185 105.543 75.2685 105.473C71.3485 105.403 67.4385 105.213 63.5285 104.913C60.1185 104.643 56.6286 104.403 53.2986 103.793C50.9786 103.373 48.1785 102.693 47.1485 100.333C46.0285 97.7932 46.7386 94.4832 47.4886 91.9532C48.4186 88.8432 49.9786 85.9832 51.7586 83.2932C52.6286 81.9832 53.5486 80.7032 54.4986 79.4532C55.5686 78.0532 56.6386 76.6832 56.9686 74.8932C57.6586 71.1432 54.5286 68.2832 50.9086 68.3132C47.3986 68.3432 44.6086 71.1232 41.5086 72.4132C36.1486 74.6332 30.1486 74.9432 24.5486 73.4832C13.4186 70.5932 5.66856 59.9432 5.90856 48.5032C6.03856 41.9232 8.62853 35.5032 11.9485 29.8932C14.8985 24.9132 18.6785 20.4732 23.0885 16.7132C31.7285 9.36319 42.8385 5.23319 54.2085 5.80319C65.5085 6.37319 76.5586 11.4832 83.7286 20.3232C87.4886 24.9632 90.0086 30.7932 89.9686 36.8132C89.9286 42.3332 87.8886 47.7332 84.6086 52.1432C83.0286 54.2632 81.0786 56.1932 78.9386 57.7332C78.5186 58.0332 78.1786 58.4232 77.9386 58.8532C73.1786 62.3432 70.1485 67.9432 69.6385 73.8232C69.3885 76.6932 69.8786 79.8632 71.4886 82.3132C73.5986 85.5332 76.9586 86.5332 80.6586 86.4532C83.7586 86.3832 86.5886 86.4732 89.5686 87.4532C92.2686 88.3432 94.8286 89.8132 96.9186 91.7432C98.8286 93.5032 100.949 96.0232 100.599 98.8032Z" fill="white"/>
</svg>
