<svg width="133" height="130" viewBox="0 0 133 130" fill="none" xmlns="http://www.w3.org/2000/svg">
<path d="M53.1087 40.0832C52.3487 39.9132 51.6287 40.3132 51.3887 41.0632C50.9987 42.2832 50.7687 43.5332 50.6387 44.8132C50.5187 46.0432 50.4387 47.4232 50.7487 48.6232C50.8887 49.1732 51.4786 49.6532 52.0586 49.6232C52.1686 49.6132 52.3086 49.5932 52.4186 49.5732C53.0086 49.4632 53.3986 48.8232 53.4186 48.2632C53.4386 47.7032 53.3587 47.1332 53.3587 46.5732C53.3587 46.0132 53.3786 45.4432 53.4286 44.8832C53.4386 44.7532 53.4586 44.6232 53.4686 44.4932C53.4686 44.4632 53.4786 44.4332 53.4786 44.4232C53.4786 44.4032 53.4887 44.3832 53.4887 44.3532C53.5387 44.0532 53.5887 43.7532 53.6487 43.4532C53.7687 42.9032 53.9086 42.3532 54.0786 41.8132C54.2986 41.1032 53.8187 40.2432 53.1087 40.0832Z" fill="white"/>
<path d="M74.3486 48.2532C74.2586 47.9832 74.1586 47.7432 73.9486 47.5332C73.8086 47.3932 73.6386 47.3032 73.4786 47.1932C73.2786 47.0732 73.0786 46.9532 72.8786 46.8432C72.4986 46.6432 72.1086 46.4332 71.7286 46.2332C71.5186 46.1232 71.3086 46.0132 71.0986 45.9032C71.4986 45.5532 71.9086 45.2132 72.3086 44.8632C72.8686 44.3832 72.8386 43.3732 72.3086 42.8832C71.7186 42.3432 70.9286 42.3732 70.3286 42.8832C69.4386 43.6532 68.5386 44.4132 67.6486 45.1832C66.9786 45.7632 67.1786 46.9732 67.9286 47.3732C68.7186 47.7932 69.5186 48.2132 70.3086 48.6432C70.6886 48.8432 71.0786 49.0532 71.4586 49.2532C71.6486 49.3532 71.8485 49.4532 72.0485 49.5432C72.2285 49.6232 72.4386 49.7432 72.6286 49.7932C72.9086 49.8732 73.1986 49.8432 73.4786 49.7632C74.0986 49.6032 74.5586 48.8832 74.3486 48.2532Z" fill="white"/>
<path d="M67.5286 57.9132C67.2186 57.5232 66.7086 57.3332 66.2186 57.4632C64.6886 57.8732 63.1386 58.2232 61.6186 58.6732C60.0986 59.1232 58.5986 59.6532 57.1286 60.2232C56.7086 60.3832 56.3686 60.6932 56.2286 61.0932C55.7886 61.4432 55.6186 62.1432 55.9086 62.6632C56.2986 63.3432 57.0285 63.7532 57.6685 64.1632C58.2485 64.5332 58.8385 64.8932 59.4285 65.2532C60.0285 65.6232 60.6286 66.0832 61.3186 66.2632C62.1486 66.4832 62.9387 66.1732 63.5387 65.6032C64.0087 65.1632 64.3686 64.5832 64.7586 64.0732C65.1386 63.5832 65.4886 63.0732 65.8286 62.5532C66.5086 61.5132 67.1186 60.4332 67.6186 59.2932C67.8286 58.8332 67.8686 58.3432 67.5286 57.9132ZM62.1386 63.3432C62.0986 63.3832 61.9886 63.5132 61.8886 63.6232C61.4686 63.2432 60.8786 62.9632 60.4086 62.6532C60.1486 62.4832 59.8786 62.2932 59.6086 62.1032C61.0786 61.5532 62.5686 61.0432 64.0786 60.6032C63.4986 61.5632 62.8686 62.4932 62.1386 63.3432Z" fill="white"/>
<path d="M132.139 49.7732C132.039 49.3832 131.879 49.0132 131.679 48.6632C131.339 47.5032 130.589 46.4532 129.539 45.8232C128.849 45.4032 128.069 45.1832 127.269 45.1232C127.319 44.9332 127.359 44.7532 127.429 44.5632C127.459 44.5032 127.489 44.4432 127.519 44.3832C127.649 44.1432 127.789 43.8932 127.869 43.6232C127.899 43.4132 127.929 43.1932 127.959 42.9832C127.959 42.9632 127.959 42.9532 127.969 42.9332C127.979 42.7032 127.929 42.4732 127.859 42.2432C127.859 42.2332 127.859 42.2332 127.849 42.2232C127.839 42.2032 127.829 42.1832 127.829 42.1632C127.799 42.0832 127.769 42.0032 127.739 41.9232C127.709 41.8532 127.679 41.7932 127.649 41.7332C127.639 41.7232 127.639 41.7032 127.629 41.6932C127.629 41.7032 127.639 41.7132 127.639 41.7232C127.439 41.3632 127.139 41.0232 126.799 40.8432C126.619 40.7632 126.429 40.6832 126.249 40.6132C126.029 40.5532 125.799 40.5332 125.579 40.5332C125.419 40.5332 125.069 40.5832 124.939 40.6132C124.759 40.6632 124.489 40.7832 124.319 40.8832C123.939 41.1232 123.609 41.4632 123.389 41.8532C123.309 41.9932 123.249 42.1232 123.179 42.2732C123.039 42.5932 122.909 42.9132 122.789 43.2332C122.659 43.4032 122.539 43.5632 122.429 43.7332C122.029 44.3232 121.689 44.9432 121.399 45.5932C121.249 45.8232 121.169 46.0732 121.159 46.3532C121.149 46.4032 121.149 46.4532 121.149 46.4932C121.139 46.5032 121.139 46.5132 121.129 46.5232C121.049 46.6332 120.989 46.7632 120.929 46.8832C120.559 47.1732 120.269 47.5432 120.079 47.9632C118.449 49.7132 116.649 51.3432 114.949 53.0232C113.549 54.4032 112.159 55.7832 110.759 57.1532C109.689 51.8432 108.319 46.5932 106.789 41.4632C103.669 30.9932 99.4886 20.3832 92.1286 12.1232C88.5586 8.11323 84.1986 4.88322 79.2086 2.86322C73.2086 0.423216 66.5686 0.143206 60.2486 1.35321C47.5886 3.76321 37.4386 12.4032 29.8186 22.3932C22.9786 31.3732 17.5586 41.9632 14.4686 53.1132C11.2786 52.1932 7.66855 52.9932 5.04855 54.9732C1.75855 57.4632 0.368647 61.4732 1.14865 65.5032C1.90865 69.4632 4.74859 72.8932 8.08859 75.0132C9.25859 75.7532 10.4686 76.3132 11.7086 76.7732C11.7686 77.9432 11.8686 79.1132 11.9886 80.2832C11.1786 80.8832 10.3686 81.4832 9.55856 82.0732C8.33856 82.9732 6.92866 83.8032 5.90866 84.9232C3.83866 87.1732 6.42862 90.4432 9.11862 89.0832C10.3386 88.4732 11.4186 87.4532 12.4986 86.6132C12.6386 86.5032 12.7787 86.4032 12.9087 86.2932C13.3787 88.5532 13.9686 90.8032 14.7086 93.0132C21.4586 113.393 41.9286 130.143 64.0086 128.903C65.2086 128.833 66.3986 128.703 67.5886 128.533C67.9886 128.823 68.4786 129.013 69.0786 129.043C80.3286 129.673 91.0386 124.043 98.6086 116.003C107.059 107.033 111.499 95.5532 112.599 83.3732C113.009 78.8732 112.959 74.3632 112.599 69.8632C112.509 69.5432 112.449 69.2032 112.419 68.8332C112.249 66.8932 112.119 64.9332 111.969 62.9632C112.329 62.8432 112.679 62.6432 112.969 62.3532C114.839 60.4532 116.719 58.5532 118.589 56.6532C119.919 55.3032 121.219 53.9032 122.569 52.5632C122.849 52.8732 123.169 53.1632 123.519 53.4032C123.869 53.6432 124.259 53.8332 124.669 53.9932C125.049 54.2232 125.439 54.4232 125.859 54.5932C127.229 55.1432 128.839 55.1332 130.169 54.4832C130.869 54.1432 131.479 53.5032 131.819 52.8132C132.019 52.4132 132.139 52.0132 132.199 51.6032C132.199 51.5932 132.209 51.5832 132.209 51.5732C132.259 51.4432 132.269 51.3032 132.279 51.1632C132.419 50.7232 132.389 50.1932 132.139 49.7732ZM11.6386 71.7832C9.14864 70.3732 7.11855 68.4032 6.29855 65.6332C5.56855 63.1732 6.21865 60.9832 8.14865 59.5432C8.84865 59.0232 9.72864 58.6432 10.7686 58.4132C11.2086 58.3132 11.5386 58.2932 12.2286 58.3432C12.3686 58.3532 12.7486 58.4432 13.1486 58.5632C12.2586 62.9332 11.7386 67.3532 11.6386 71.7832ZM99.4185 106.113C94.0185 114.333 85.7686 121.013 76.0686 123.033C74.8186 123.293 73.5386 123.453 72.2386 123.533C71.7986 123.303 71.2687 123.203 70.6587 123.353C70.2787 123.443 69.8986 123.523 69.5186 123.603C69.3786 123.603 69.2386 123.603 69.0986 123.603C68.5386 123.583 68.0786 123.723 67.6986 123.933C49.0186 126.813 30.4487 114.313 22.0387 98.0232C19.5787 93.2632 17.9886 88.2232 17.1386 83.0732C17.9186 82.4632 18.6986 81.8532 19.4886 81.2432C20.6686 80.3232 21.9986 79.4932 22.6886 78.1232C23.2686 76.9832 22.8586 75.1632 21.3786 74.9032C19.8186 74.6332 18.0886 74.2632 16.3686 73.7332C16.3086 59.3232 21.2385 44.6332 28.5485 32.6032C34.4885 22.8132 42.3586 13.5332 52.8886 8.56323C62.9586 3.81323 75.0785 3.96322 84.0485 10.9932C91.8885 17.1432 96.4486 26.6532 99.6986 35.8532C103.869 47.6632 106.989 60.2732 107.489 72.8232C107.939 84.4932 105.899 96.2532 99.4185 106.113ZM72.5387 34.9032C72.5287 34.9132 72.5186 34.9232 72.5086 34.9432C72.4586 35.0032 72.4186 35.0632 72.3686 35.1232C72.4186 35.0532 72.4787 34.9732 72.5387 34.9032ZM72.5485 33.3932C72.2785 33.1232 71.9486 33.0832 71.5886 33.1432C71.0786 33.2232 70.6986 33.6732 70.3886 34.0532C70.0986 34.4032 69.8087 34.7632 69.5387 35.1332C69.0887 35.7432 68.6986 36.4032 68.3786 37.0932C68.2586 37.3632 68.1886 37.6332 68.2686 37.9232C68.3386 38.1732 68.5286 38.4432 68.7686 38.5632C69.2486 38.8132 69.9886 38.7232 70.2486 38.1732C70.5286 37.5632 70.8586 36.9832 71.2386 36.4332C71.3286 36.3032 71.4186 36.1732 71.5186 36.0432C71.5286 36.0332 71.5387 36.0232 71.5387 36.0132C71.5887 35.9532 71.6386 35.8832 71.6886 35.8232C71.9486 35.5132 72.2386 35.2432 72.4886 34.9332C72.6186 34.7632 72.7487 34.5832 72.7887 34.3532C72.8787 34.0032 72.8085 33.6632 72.5485 33.3932Z" fill="white"/>
</svg>
