<svg width="119" height="120" viewBox="0 0 119 120" fill="none" xmlns="http://www.w3.org/2000/svg">
<path d="M33.1685 110.213C33.1785 110.233 33.1785 110.243 33.1885 110.263C33.1985 110.283 33.2085 110.303 33.2185 110.323C33.1885 110.103 33.1185 110.083 33.1685 110.213Z" fill="white"/>
<path d="M33.5885 107.073C33.5785 107.083 33.5785 107.093 33.5685 107.103C33.5885 107.083 33.5985 107.063 33.6185 107.033C33.6185 107.043 33.5985 107.063 33.5885 107.073Z" fill="white"/>
<path d="M48.3385 54.0132C46.8885 53.7332 45.4685 53.3832 44.0585 52.9432C43.3785 52.7232 42.7086 52.4932 42.0386 52.2432C41.8686 52.1832 41.7086 52.1132 41.5386 52.0532C41.5186 52.0432 41.3586 51.9832 41.2686 51.9432C41.1786 51.9032 40.9985 51.8332 40.9785 51.8132C40.7785 51.7232 40.5685 51.6332 40.3685 51.5432C39.0785 50.9432 37.8185 50.2732 36.5985 49.5232C35.0485 48.5732 33.3785 46.7932 31.4285 47.3632C30.3485 47.6832 29.5785 48.6832 29.5585 49.8132C29.5385 51.9832 31.9285 53.1832 33.5485 54.1932C34.8685 55.0232 36.2485 55.7632 37.6685 56.4132C40.6085 57.7632 43.6685 58.8032 46.8485 59.4132C48.2785 59.6832 49.9286 59.0132 50.2886 57.4632C50.6086 56.0632 49.8785 54.3032 48.3385 54.0132Z" fill="white"/>
<path d="M114.828 33.4832C114.358 33.7832 113.958 34.1032 113.598 34.5332C113.358 34.8232 113.138 35.1132 112.918 35.4132C112.438 36.0232 111.929 36.5932 111.359 37.1232C111.229 37.2432 111.088 37.3732 110.948 37.4932C110.898 37.5332 110.758 37.6432 110.668 37.7132C110.608 37.7532 110.559 37.7932 110.529 37.8132C110.359 37.9332 110.189 38.0532 110.019 38.1632C109.469 38.5232 108.879 38.8232 108.289 39.1032C107.589 39.3732 106.869 39.6032 106.129 39.7632C106.029 39.7832 105.928 39.8332 105.828 39.8632C105.098 37.8832 104.219 35.9432 103.229 34.0432C100.959 27.2932 96.7085 21.0832 91.8785 16.1032C84.4585 8.44317 74.5285 3.09319 63.9985 1.30319C58.7085 0.403186 53.4685 0.403186 48.2185 1.05319C46.5285 1.19319 44.8384 1.41318 43.1684 1.73318C31.2684 3.96318 20.6685 10.8332 13.2185 20.3032C5.72849 29.8232 1.05849 41.6532 0.338489 53.7832C-0.0315114 60.0532 0.868562 66.6532 4.03856 72.1632C6.98856 77.2732 11.7985 80.7332 16.9985 83.3032C22.5985 86.0732 28.8086 88.0332 33.7886 91.9132C34.7286 92.6432 36.2185 93.7432 36.4485 95.0132C36.6685 96.2332 35.2585 97.3632 34.5085 98.1632C33.2485 99.5132 31.9385 100.833 30.6085 102.123C28.7785 104.933 26.6486 107.573 26.5386 111.023C26.5286 111.393 26.5286 111.753 26.5386 112.123C29.5586 115.963 34.1986 118.303 39.0286 118.993C45.4686 119.913 51.7385 118.013 57.3685 114.933C63.1085 111.803 68.3685 107.643 73.3485 103.433C78.3885 99.1832 83.1185 94.5832 87.5085 89.6732C91.8585 84.8032 95.8985 79.6232 99.5585 74.2132C103.248 68.7532 106.658 62.7632 107.698 56.1732C108.288 52.4132 108.099 48.7432 107.359 45.1932C107.439 45.1832 107.519 45.1832 107.609 45.1632C109.939 44.6632 112.129 43.5932 114.009 42.1432C114.909 41.4532 115.749 40.7032 116.479 39.8332C117.499 38.6132 118.498 37.2532 118.468 35.5832C118.438 33.8032 116.408 32.4732 114.828 33.4832ZM97.3485 67.3232C94.2585 72.4832 90.6484 77.3632 86.7984 81.9832C79.1284 91.1932 70.2785 99.5332 60.4485 106.413C55.3185 110.003 49.3985 113.543 42.9485 113.693C39.8885 113.763 36.7285 113.053 34.1385 111.483C34.0885 111.443 34.0385 111.393 33.9985 111.353C33.8485 111.213 33.7185 111.063 33.5785 110.913C33.5485 110.863 33.5085 110.823 33.4785 110.773C33.3885 110.623 33.3085 110.473 33.2185 110.323C33.2285 110.353 33.2285 110.373 33.2385 110.413C33.2385 110.373 33.2085 110.323 33.1885 110.263C33.1885 110.263 33.1885 110.253 33.1785 110.253C33.1685 110.233 33.1686 110.223 33.1586 110.213C33.1486 110.193 33.1385 110.173 33.1385 110.163C33.0685 109.953 33.0085 109.733 32.9585 109.513C32.9585 109.493 32.9485 109.473 32.9485 109.453C32.9485 109.423 32.9485 109.403 32.9385 109.363C32.9285 109.143 32.9385 108.933 32.9485 108.713C32.9585 108.653 32.9685 108.583 32.9885 108.523C33.0385 108.303 33.1085 108.083 33.1885 107.863C33.2185 107.773 33.2486 107.693 33.2786 107.603C33.2786 107.593 33.2886 107.583 33.2886 107.563C33.3486 107.473 33.4885 107.233 33.5685 107.103C33.5485 107.123 33.5386 107.143 33.5286 107.133C33.5286 107.133 33.5585 107.103 33.5885 107.073C33.5985 107.053 33.6185 107.033 33.6185 107.023C33.7385 106.853 33.6785 106.943 33.6185 107.033C33.6785 106.963 33.7485 106.883 33.7585 106.873C33.8685 106.753 34.4985 106.233 33.9885 106.623C34.3485 106.353 34.6485 106.073 34.8385 105.703C35.6185 104.943 36.3885 104.193 37.1385 103.403C39.4385 100.983 42.2686 98.3132 41.9086 94.6732C41.5486 91.1332 38.7085 88.6832 36.0085 86.7232C33.7585 85.0832 31.2986 83.7832 28.7886 82.5932C23.8986 80.2932 18.7086 78.4232 14.2786 75.2632C9.72855 72.0232 7.17851 67.1532 6.23851 61.7032C5.27851 56.1532 5.98848 50.2932 7.32848 44.8732C8.67848 39.3832 10.8285 34.1432 13.7485 29.3032C19.0385 20.5432 26.9085 13.2732 36.4585 9.49319C38.2085 8.47319 40.4085 8.01319 42.2485 7.34319C43.3385 6.94319 44.4485 6.59318 45.5785 6.29318C45.8585 6.32318 46.1485 6.31318 46.4485 6.26318C55.8985 4.62318 66.3885 6.44319 74.9585 10.6532C81.7585 13.9932 87.6185 18.9232 92.0785 24.9732C92.8985 26.6532 93.6785 28.4032 94.3585 30.2132C95.3485 31.6732 96.2985 33.1532 97.1785 34.6732C98.2285 36.4732 99.1985 38.3532 100.019 40.2932C100.329 41.0832 100.628 41.8732 100.928 42.6632C101.828 45.2832 102.419 47.9932 102.509 50.7732C102.689 56.7532 100.368 62.2732 97.3485 67.3232Z" fill="white"/>
<path d="M70.8886 29.3432C70.8086 28.8732 70.7386 28.3932 70.6586 27.9232L70.1985 25.0232C70.1485 24.7032 69.8385 24.3632 69.5685 24.2032C69.2785 24.0332 68.8386 23.9632 68.5186 24.0632C67.7486 24.3132 67.4385 24.9832 67.5585 25.7432C67.7185 26.7132 67.8786 27.6732 68.0386 28.6432C68.1186 29.1132 68.1986 29.5932 68.2686 30.0632C68.3086 30.3132 68.3485 30.5532 68.4285 30.7932C68.6185 31.3132 68.9485 31.6132 69.4585 31.8232C69.8285 31.9732 70.2486 31.7732 70.5286 31.5432C71.1886 30.9832 71.0086 30.0732 70.8886 29.3432Z" fill="white"/>
<path d="M80.6085 30.8932L80.4285 29.2632C80.3085 28.1432 80.1885 27.0132 80.0585 25.8932C80.0185 25.5132 79.9286 25.1832 79.6486 24.9032C79.4086 24.6632 79.0086 24.4832 78.6586 24.4932C77.9686 24.5232 77.1785 25.1132 77.2585 25.8932C77.3785 27.0132 77.4985 28.1432 77.6285 29.2632L77.8085 30.8932C77.9085 31.7832 78.1585 33.0032 79.3085 33.0032C79.9285 33.0032 80.4185 32.5232 80.5485 31.9432C80.6285 31.5832 80.6485 31.2432 80.6085 30.8932Z" fill="white"/>
<path d="M79.2785 38.2532C77.4285 37.0432 74.9684 36.9932 73.0484 38.0832C72.9584 38.1332 72.8684 38.2032 72.7984 38.2832C72.5484 38.1032 72.2384 38.0132 71.9184 38.0632C71.4784 38.1232 70.9585 38.4732 70.8785 38.9632C70.8285 39.2832 70.7985 39.5532 70.8585 39.8632C70.8885 40.0132 70.9185 40.1632 70.9585 40.3032C71.0285 40.6132 71.1185 40.9232 71.2085 41.2332C71.4185 41.9032 71.6685 42.5532 71.9585 43.1932C72.2085 43.7432 72.4785 44.2832 72.7885 44.8032C73.1185 45.3532 73.4684 45.9632 73.9484 46.3932C74.5884 46.9532 75.3985 47.2132 76.2385 47.0432C76.8085 46.9232 77.3585 46.5732 77.7385 46.1432C78.5985 45.1732 78.9184 43.9932 78.9484 42.7232C78.9584 42.4532 78.9585 42.1732 78.9685 41.9032C78.9785 41.7632 78.9885 41.6332 78.9985 41.4932C79.0085 41.4332 79.0485 41.2532 78.9985 41.4532C78.9385 41.6732 79.0085 41.4232 79.0185 41.3732C79.0485 41.2332 79.0785 41.0932 79.1185 40.9532C79.1185 40.9432 79.1285 40.9232 79.1385 40.9132C79.1085 40.9732 79.0785 41.0032 79.1485 40.8632C79.1485 40.8632 79.1485 40.8532 79.1585 40.8532C79.1685 40.8332 79.1784 40.8032 79.1784 40.8032C79.1784 40.8132 79.1784 40.8232 79.1684 40.8432C79.1784 40.8132 79.1985 40.7932 79.2085 40.7632C79.2185 40.7532 79.2285 40.7332 79.2285 40.7232C79.2585 40.6932 79.2885 40.6532 79.2885 40.6532C79.2985 40.6332 79.3084 40.6332 79.3084 40.6232C80.1384 39.9832 80.1685 38.8332 79.2785 38.2532ZM76.1784 42.7032C76.1784 42.8432 76.1085 43.1232 76.1385 43.2732C76.1385 43.2932 76.1285 43.3132 76.1285 43.3332C76.0985 43.4532 76.0685 43.5632 76.0285 43.6732C76.0185 43.7032 76.0185 43.7132 76.0085 43.7332C75.9585 43.8332 75.9085 43.9332 75.8485 44.0332C75.8385 44.0532 75.8085 44.1032 75.7685 44.1432C75.7385 44.1732 75.6985 44.2232 75.6585 44.2632C75.6285 44.2332 75.6084 44.2032 75.5784 44.1832C75.5584 44.1532 75.5385 44.1432 75.5285 44.1232C75.5185 44.1132 75.5185 44.1132 75.5185 44.1032C75.4385 43.9832 75.3485 43.8532 75.2685 43.7332C74.9585 43.2632 74.6784 42.7732 74.4284 42.2632C74.3584 42.1132 74.2785 41.9532 74.2085 41.8032C74.1885 41.7532 74.1585 41.7032 74.1385 41.6432C74.2485 41.8932 74.1385 41.6432 74.1185 41.5932C73.9985 41.2932 73.8885 40.9932 73.7885 40.6932V40.6832C74.0085 40.6832 74.2384 40.6232 74.4484 40.5032C74.5384 40.4532 74.6185 40.4032 74.7085 40.3632C74.7285 40.3532 74.7485 40.3432 74.7585 40.3332C74.8185 40.3232 74.9885 40.2532 75.0185 40.2332C75.1085 40.2032 75.2084 40.1732 75.3084 40.1532C75.3984 40.1332 75.4985 40.1132 75.5885 40.0932C75.7885 40.0832 75.9784 40.0632 76.1684 40.0732C76.2484 40.0732 76.3384 40.0832 76.4184 40.0832C76.4384 40.0832 76.4485 40.0832 76.4685 40.0832C76.4785 40.0832 76.4885 40.0932 76.4985 40.0932C76.3685 40.4832 76.2785 40.8932 76.2285 41.3232C76.1985 41.7832 76.1884 42.2432 76.1784 42.7032Z" fill="white"/>
<path d="M79.1385 40.8832C79.1585 40.8532 79.1685 40.8332 79.1685 40.8032C79.1685 40.8132 79.1586 40.8132 79.1586 40.8232C79.1486 40.8532 79.1385 40.8632 79.1385 40.8832Z" fill="white"/>
</svg>
