<svg width="102" height="134" viewBox="0 0 102 134" fill="none" xmlns="http://www.w3.org/2000/svg">
<path d="M22.9886 50.7632C22.3686 50.6232 21.5886 50.9532 21.4586 51.6332C21.2386 52.7632 21.0786 53.9032 21.0086 55.0532C20.9386 56.1932 20.9186 57.3532 21.1186 58.4832C21.2186 59.0732 21.8986 59.4132 22.4286 59.3432C23.0186 59.2632 23.4486 58.7732 23.4686 58.1632C23.4986 57.1432 23.4386 56.1332 23.4986 55.1132C23.5286 54.6132 23.5787 54.1132 23.6387 53.6232C23.6387 53.5932 23.6487 53.5832 23.6487 53.5632C23.6487 53.5432 23.6587 53.5232 23.6587 53.4832C23.6787 53.3632 23.6986 53.2432 23.7186 53.1232C23.7686 52.8432 23.8186 52.5732 23.8686 52.2932C23.9886 51.6532 23.6786 50.9132 22.9886 50.7632Z" fill="white"/>
<path d="M36.2887 56.2532C36.2987 56.2132 36.3086 56.1632 36.3086 56.1432C36.3886 55.6732 36.5086 55.2132 36.6686 54.7632C36.8786 54.1432 36.4286 53.3732 35.7986 53.2232C35.1086 53.0632 34.4887 53.4332 34.2587 54.0932C33.9187 55.1132 33.7386 56.2032 33.7386 57.2732C33.7386 57.8432 33.8086 58.4032 33.9586 58.9532C34.1086 59.5232 34.2987 60.3832 34.8787 60.6632C35.3487 60.8832 35.8786 60.7932 36.1786 60.3232C36.4086 59.9532 36.3387 59.5832 36.2887 59.1832C36.3187 59.4332 36.2787 59.0332 36.2687 58.9932C36.2587 58.8932 36.2587 58.8032 36.2487 58.7032C36.2287 58.2332 36.2186 57.7532 36.2186 57.2832C36.2186 57.0532 36.2287 56.8232 36.2487 56.5932C36.2587 56.4832 36.2587 56.3632 36.2887 56.2532Z" fill="white"/>
<path d="M31.1587 67.6532C30.8187 67.5132 30.3787 67.5732 30.1187 67.8532C29.6987 68.3032 29.4587 68.8732 29.1387 69.3832C28.9787 69.6332 28.8087 69.8632 28.6387 70.1032C28.5887 70.1632 28.5487 70.2132 28.4987 70.2732C28.4087 70.3832 28.3087 70.4932 28.2087 70.6032C28.1287 70.6932 28.0387 70.7932 27.9487 70.8732C27.8987 70.9232 27.8486 70.9632 27.7986 71.0132C27.7886 71.0232 27.7887 71.0132 27.7787 71.0232C27.7287 71.0532 27.6887 71.0732 27.6387 71.1032C27.8087 70.9932 27.6687 71.0732 27.6087 71.1032C27.5987 71.1032 27.6087 71.1032 27.5987 71.1032C27.5787 71.1032 27.5087 71.0932 27.4687 71.0932C27.4287 71.0832 27.3887 71.0732 27.3887 71.0732C27.3687 71.0632 27.3687 71.0732 27.3587 71.0632C27.2387 71.0032 27.1287 70.9432 27.0187 70.8732C26.9587 70.8332 26.8987 70.7932 26.8387 70.7532C26.8187 70.7432 26.7587 70.6932 26.7387 70.6832C26.6487 70.6032 26.5587 70.5332 26.4687 70.4532C26.0687 70.1032 25.4187 70.0332 25.0287 70.4532C24.6787 70.8332 24.5987 71.5232 25.0287 71.8932C25.6087 72.3832 26.2487 72.8832 27.0087 73.0432C27.9187 73.2332 28.7087 72.9432 29.3787 72.3132C29.9087 71.8232 30.3587 71.2332 30.7687 70.6432C30.9487 70.3832 31.1287 70.1032 31.2887 69.8232C31.5287 69.4032 31.6887 68.9932 31.7387 68.5132C31.7887 68.1532 31.4787 67.7832 31.1587 67.6532Z" fill="white"/>
<path d="M5.22864 81.5032C5.33864 81.4132 5.44859 81.3332 5.55859 81.2532C5.60859 81.2132 5.64861 81.1832 5.69861 81.1432C5.53861 81.2532 5.37864 81.3832 5.22864 81.5032Z" fill="white"/>
<path d="M101.159 36.2932C99.5587 27.3432 93.5587 18.8732 85.0287 15.3832C83.1287 14.6032 81.1487 14.1832 79.1087 14.0032C78.8087 13.3932 78.2786 12.8732 77.4486 12.6132C67.2886 9.3732 57.1286 6.1432 46.9686 2.9032C42.3286 1.4232 37.3487 -0.226804 32.5187 1.4832C28.8087 2.8032 25.9887 5.4732 23.7887 8.6732C21.5987 11.8532 20.1187 15.5132 18.9087 19.1632C17.3187 23.9332 15.9286 28.7732 14.6886 33.6532C12.1986 43.4632 10.4286 53.4432 9.29859 63.5032C8.70859 68.8232 8.31866 74.1632 8.11866 79.5032C7.95866 79.5532 7.79868 79.6232 7.63868 79.7232C6.90868 80.1932 6.2187 80.7132 5.5387 81.2432C4.7087 81.8832 3.89867 82.5432 3.12867 83.2632C2.78867 83.5832 2.44867 83.9232 2.12867 84.2632C1.58867 84.8332 0.96859 85.4832 0.79859 86.2632C0.59859 87.1932 0.858668 88.1132 1.62867 88.7132C1.95867 88.9732 2.30864 89.1132 2.72864 89.1732C3.28864 89.2532 3.69862 89.1232 4.20862 88.8932C4.80862 88.6332 5.2387 87.9932 5.6587 87.5132C5.9987 87.1232 6.35863 86.7332 6.71863 86.3632C7.11863 85.9532 7.53863 85.5632 7.96863 85.1832C7.92863 89.3032 7.9986 93.4332 8.1886 97.5532C8.2486 98.9032 9.02864 99.7532 10.2286 100.233C15.5886 102.403 21.2186 100.753 26.7186 100.283C28.8286 100.103 30.5786 100.113 32.4586 100.883C34.0486 101.533 35.7287 102.713 36.5187 103.953C36.7387 104.293 36.9386 104.723 36.9486 104.743C37.0286 104.963 37.0887 105.193 37.1387 105.423C37.1187 105.313 37.1187 104.933 37.1487 105.523C37.1587 105.683 37.1487 105.833 37.1487 105.993C37.1387 106.063 37.1287 106.163 37.1187 106.203C36.9787 106.753 36.9487 106.783 36.6187 107.303C36.5987 107.333 36.5886 107.353 36.5786 107.373C36.5486 107.403 36.5387 107.413 36.4987 107.453C36.3787 107.573 36.2687 107.693 36.1487 107.813C36.1187 107.843 36.0487 107.903 35.9987 107.943C35.8987 108.013 35.8086 108.073 35.7086 108.133C35.5286 108.243 35.3387 108.343 35.1587 108.443C35.1187 108.463 34.9286 108.553 34.8486 108.593C34.6586 108.653 33.9886 108.883 33.7286 108.963C30.3386 109.923 26.7687 109.913 23.4987 111.343C19.3087 113.173 17.1487 117.663 18.4887 122.083C20.0287 127.183 24.7087 129.943 29.6587 131.003C34.9987 132.143 40.6486 132.643 46.0886 132.923C51.4786 133.203 56.9586 132.963 62.2286 131.713C71.4686 129.513 79.2986 123.813 84.3486 115.783C89.1186 108.193 91.0687 98.9032 89.4987 90.0632C89.0287 87.4532 88.0886 84.9232 86.3186 82.9032C85.0086 81.4032 83.2787 80.2732 81.6387 79.1732C80.0887 78.1332 78.9486 77.5132 77.8286 76.2332C77.8986 76.2932 77.5486 75.8232 77.4686 75.6932C77.4586 75.6732 77.4586 75.6732 77.4486 75.6632C77.4886 75.7232 77.4986 75.7432 77.4386 75.6032C77.4286 75.5832 77.4187 75.5332 77.3987 75.4732C77.3987 75.3832 77.3987 75.1932 77.3887 75.1032C77.3987 75.0732 77.4086 75.0532 77.4186 75.0232C77.4586 74.9232 77.4887 74.8132 77.5187 74.7132C77.5487 74.6732 77.5887 74.5932 77.6287 74.5232C77.6787 74.4832 77.7186 74.4432 77.7086 74.4232C77.7286 74.4032 77.7487 74.3832 77.7687 74.3732C77.8687 74.3132 77.9786 74.2532 78.0786 74.1932C78.0886 74.1932 78.0987 74.1932 78.1087 74.1932C78.3787 74.1432 78.6586 74.0532 78.9286 73.9932C78.9886 73.9832 79.0486 73.9732 79.0886 73.9732C79.2986 73.9632 79.5086 73.9432 79.7186 73.9332C81.4286 73.8632 83.1487 74.0532 84.8587 74.1232C88.9287 74.2832 93.1387 73.5432 95.3587 69.7232C96.7187 67.3832 97.4986 64.5432 98.3386 61.9832C99.2386 59.2432 100.029 56.4532 100.609 53.6232C101.829 47.8932 102.189 42.0632 101.159 36.2932ZM91.6087 64.4732C91.2587 65.4132 90.9586 66.4832 90.3386 67.2932C90.1986 67.4732 90.0287 67.6332 89.8687 67.7832C89.8487 67.7932 89.8386 67.8032 89.8186 67.8132C89.6786 67.9032 89.5387 67.9832 89.3887 68.0632C89.3287 68.0932 89.2987 68.1232 89.2687 68.1332C89.2387 68.1432 89.1987 68.1532 89.1287 68.1732C88.7987 68.2732 88.4687 68.3732 88.1387 68.4332C88.0287 68.4532 87.9186 68.4732 87.7986 68.4932C87.7286 68.5032 87.5986 68.5132 87.5586 68.5132C86.7186 68.5732 85.8787 68.5832 85.0387 68.5532C81.7987 68.4432 78.0787 67.7732 75.1187 69.5032C71.6987 71.5132 70.9387 76.1732 73.2587 79.2832C75.4287 82.2032 79.2387 83.7832 81.6587 85.9632C84.6187 88.6232 84.8987 93.3932 84.7887 97.1332C84.6787 101.033 83.7787 104.983 82.1587 108.563C78.8687 115.863 72.9986 122.133 65.4186 124.993C55.7286 128.653 45.0186 127.603 34.9786 126.273C31.0886 125.763 25.7986 125.133 24.0486 121.073C23.7586 120.403 23.6286 119.693 23.6686 119.003C23.6886 118.693 23.7187 118.503 23.8787 118.113C23.8787 118.123 24.3087 117.493 24.2887 117.483C24.4587 117.293 24.6386 117.113 24.8286 116.953C24.8786 116.943 25.4087 116.583 25.5087 116.523C25.6787 116.433 25.8487 116.343 26.0287 116.263C26.0687 116.253 26.0987 116.233 26.1487 116.223C26.5687 116.073 26.9986 115.943 27.4386 115.823C30.7586 114.953 34.2187 114.903 37.3887 113.483C41.0687 111.843 43.3686 107.983 42.4686 103.963C41.5186 99.7232 37.3587 96.7532 33.4887 95.4232C28.7287 93.7832 23.7387 95.2832 18.9087 95.7032C17.1087 95.8632 15.3886 95.8532 13.6886 95.4832C13.0186 77.0032 14.6987 58.4732 18.7887 40.4332C19.8587 35.7332 21.0786 31.0732 22.4586 26.4632C23.5886 22.6832 24.6986 18.8032 26.4186 15.2932C27.8186 12.4232 29.6786 9.4632 32.2286 7.8132C33.5386 6.9732 34.7986 6.4332 36.4486 6.3432C38.7586 6.2332 40.9687 6.8732 43.1387 7.5532C54.0987 10.9632 65.0086 14.5232 75.9486 18.0132C75.9986 18.0332 76.0386 18.0332 76.0886 18.0432C76.5586 18.9032 77.4887 19.4532 78.5287 19.5232C86.2387 20.0532 92.4486 26.8332 94.8286 34.0432C98.1586 44.0432 95.1087 54.9532 91.6087 64.4732Z" fill="white"/>
<path d="M63.3086 91.6032C63.0986 91.1132 62.8787 90.6332 62.6387 90.1532C62.1587 89.2032 61.6187 88.2732 61.0287 87.3932C59.7487 85.4732 58.2487 83.6832 56.5387 82.1232C55.4587 81.1332 53.6387 80.9732 52.5887 82.1232C51.5987 83.1932 51.4387 85.0232 52.5887 86.0732C53.3387 86.7532 54.0386 87.4732 54.7086 88.2432C54.8786 88.4332 55.0386 88.6232 55.1986 88.8232C55.2586 88.8932 55.3187 88.9632 55.3687 89.0432C55.6487 89.4732 55.9787 89.8732 56.2587 90.2932C56.8187 91.1332 57.3287 92.0132 57.7787 92.9132C57.9987 93.3532 58.2087 93.8132 58.4087 94.2632C58.5087 94.5032 58.5986 94.7532 58.7086 94.9832C58.8986 95.3932 59.1487 95.7732 59.4787 96.0832C60.2687 96.8232 61.3887 97.0532 62.3887 96.6332C63.4287 96.1932 63.9187 95.2932 64.0287 94.2032C64.1187 93.2932 63.6486 92.3932 63.3086 91.6032Z" fill="white"/>
</svg>
