<svg width="1272" height="111" viewBox="0 0 1272 111" fill="none" xmlns="http://www.w3.org/2000/svg">
<path d="M501.689 72.7085C492.534 72.7085 486.69 70.8819 486.495 60.5099V39.3746C486.495 31.1552 490.456 27.3065 501.689 27.3065H535.195C540.463 20.273 544.989 12.7089 548.701 4.73603C549.183 3.52228 550.015 2.48161 551.092 1.74887C552.169 1.01614 553.44 0.62508 554.74 0.626345C556.356 0.618213 557.916 1.21527 559.117 2.30086C560.317 3.38645 561.072 4.88263 561.234 6.49729C561.235 7.47789 560.989 8.4429 560.519 9.3023C557.393 15.5872 553.767 21.6082 549.675 27.3065C560.779 27.3065 564.74 31.1552 564.74 39.3746V60.5099C564.74 68.8597 560.779 72.7085 549.546 72.7085H531.559V80.145H574.934C575.645 80.1519 576.347 80.3053 576.996 80.5956C577.646 80.886 578.229 81.3071 578.71 81.833C579.191 82.3588 579.559 82.9782 579.792 83.6529C580.025 84.3275 580.118 85.0429 580.064 85.755C580.117 86.4702 580.025 87.1888 579.793 87.867C579.56 88.5451 579.193 89.1687 578.713 89.6997C578.233 90.2307 577.651 90.6579 577.001 90.9554C576.351 91.2529 575.648 91.4145 574.934 91.4302H531.559V106.108C531.559 109.369 528.507 111 525.39 111C522.273 111 518.897 109.369 518.897 106.108V91.4302H477.08C476.371 91.4058 475.675 91.2379 475.033 90.9366C474.391 90.6353 473.817 90.2067 473.343 89.6767C472.87 89.1467 472.509 88.526 472.281 87.8521C472.052 87.1782 471.962 86.4649 472.015 85.755C471.962 85.0483 472.052 84.3382 472.281 83.6679C472.51 82.9977 472.873 82.3813 473.347 81.8564C473.821 81.3314 474.396 80.909 475.038 80.6147C475.68 80.3205 476.374 80.1607 477.08 80.145H518.897V72.7085H501.689ZM506.494 15.1733C507.213 16.2588 507.618 17.5234 507.663 18.8263C507.622 19.6351 507.421 20.4275 507.07 21.1567C506.719 21.8859 506.227 22.5372 505.622 23.0722C505.016 23.6072 504.311 24.0151 503.546 24.2718C502.782 24.5285 501.974 24.6288 501.17 24.5668C499.98 24.5938 498.805 24.2917 497.775 23.6934C496.744 23.0952 495.897 22.2238 495.326 21.1746C493.183 17.913 491.56 15.5646 488.833 12.1073C488.01 11.1179 487.551 9.87396 487.534 8.58474C487.783 7.04117 488.575 5.63877 489.767 4.63301C490.959 3.62726 492.471 3.08509 494.027 3.10522C495.067 3.10094 496.094 3.32665 497.037 3.76634C497.98 4.20604 498.814 4.84892 499.482 5.64929C502.016 8.67309 504.358 11.854 506.494 15.1733ZM518.962 45.0498V36.8957H503.313C499.676 36.8957 498.897 37.8742 498.897 40.3531V45.0498H518.962ZM518.962 62.8583V54.4433H499.092V59.4662C499.092 62.5322 500.845 62.8583 503.507 62.8583H518.962ZM530.909 13.6729C531.303 14.4621 531.504 15.3343 531.494 16.2169C531.445 17.0201 531.237 17.8054 530.883 18.5271C530.528 19.2488 530.035 19.8924 529.43 20.4206C528.826 20.9488 528.123 21.3509 527.363 21.6035C526.602 21.8561 525.799 21.9543 525.001 21.8922C523.733 21.8966 522.492 21.5284 521.431 20.8329C520.369 20.1374 519.534 19.1451 519.027 17.9783C517.562 14.6912 515.915 11.4898 514.092 8.38905C513.54 7.45871 513.228 6.40504 513.183 5.3231C513.255 4.54452 513.482 3.78839 513.85 3.09905C514.217 2.4097 514.718 1.80102 515.323 1.30882C515.928 0.816618 516.624 0.45079 517.372 0.232775C518.119 0.0147598 518.903 -0.0510252 519.676 0.0392748C520.825 0.0552022 521.951 0.362549 522.95 0.93277C523.949 1.50299 524.788 2.31759 525.39 3.30091C527.507 6.60187 529.353 10.0707 530.909 13.6729ZM531.364 45.0498H552.273V40.4183C552.273 37.8742 551.493 36.8957 547.857 36.8957H531.559L531.364 45.0498ZM531.364 54.4433V62.8583H547.857C551.493 62.8583 552.273 61.9451 552.273 59.4662V54.4433H531.364Z" fill="#010101"/>
<rect x="489.526" y="29.2102" width="74" height="43.8158" rx="5" fill="white"/>
<path fill-rule="evenodd" clip-rule="evenodd" d="M494.605 23.2366C487.426 23.2366 481.605 29.0569 481.605 36.2366V65.9997C481.605 73.1794 487.426 78.9997 494.605 78.9997H557.474C564.653 78.9997 570.474 73.1794 570.474 65.9997V36.2366C570.474 29.0569 564.653 23.2366 557.474 23.2366H494.605ZM491.605 36.2366C491.605 34.5797 492.948 33.2366 494.605 33.2366H522.632V49.7847H492.62C492.258 49.7847 491.915 49.8612 491.605 49.999V36.2366ZM527.632 49.7847V33.2366H557.474C559.131 33.2366 560.474 34.5797 560.474 36.2366V49.7847H527.632ZM492.62 54.7847H522.632V68.9997H494.605C492.948 68.9997 491.605 67.6566 491.605 65.9997V54.5703C491.915 54.7081 492.258 54.7847 492.62 54.7847Z" fill="#010101"/>
<line x1="539.642" y1="41.3799" x2="548.357" y2="41.3799" stroke="#010101" stroke-width="3" stroke-linecap="round"/>
<path fill-rule="evenodd" clip-rule="evenodd" d="M509.328 38.0642C509.328 37.1806 508.611 36.4642 507.728 36.4642C506.844 36.4642 506.128 37.1806 506.128 38.0642V40.4694H503.638C502.754 40.4694 502.038 41.1857 502.038 42.0694C502.038 42.9531 502.754 43.6694 503.638 43.6694H506.128V46.5484C506.128 47.4321 506.844 48.1484 507.728 48.1484C508.611 48.1484 509.328 47.4321 509.328 46.5484V43.6694H512.122C513.006 43.6694 513.722 42.9531 513.722 42.0694C513.722 41.1857 513.006 40.4694 512.122 40.4694H509.328V38.0642Z" fill="#010101"/>
<path fill-rule="evenodd" clip-rule="evenodd" d="M506.05 58.2925C505.425 57.6676 504.412 57.6676 503.787 58.2925C503.163 58.9173 503.163 59.9304 503.787 60.5552L505.488 62.2558L503.728 64.016C503.103 64.6409 503.103 65.6539 503.728 66.2788C504.353 66.9036 505.366 66.9036 505.99 66.2788L507.751 64.5186L509.787 66.5545C510.411 67.1793 511.425 67.1793 512.049 66.5545C512.674 65.9296 512.674 64.9166 512.049 64.2917L510.013 62.2558L511.99 60.2795C512.615 59.6547 512.615 58.6416 511.99 58.0168C511.365 57.392 510.352 57.392 509.727 58.0168L507.751 59.9931L506.05 58.2925Z" fill="#010101"/>
<line x1="539.71" y1="58.8682" x2="548.425" y2="58.8682" stroke="white" stroke-width="3" stroke-linecap="round"/>
<line x1="539.71" y1="63.7363" x2="548.425" y2="63.7363" stroke="white" stroke-width="3" stroke-linecap="round"/>
<path d="M598.842 52.2559C597.996 53.6138 597.084 54.9071 596.238 56.2003C595.659 57.1967 594.823 58.0216 593.816 58.59C592.809 59.1583 591.668 59.4495 590.51 59.4335C589.693 59.4951 588.873 59.3915 588.098 59.1292C587.323 58.8668 586.61 58.451 586.001 57.907C585.393 57.363 584.902 56.7021 584.558 55.9642C584.214 55.2263 584.024 54.4267 584 53.6139C584.014 52.207 584.444 50.8354 585.237 49.6694C593.793 36.0596 599.957 21.1031 603.464 5.43985C603.831 4.04937 604.692 2.83797 605.889 2.02964C607.086 1.22131 608.536 0.870737 609.973 1.04276C610.787 0.990358 611.604 1.10031 612.375 1.3661C613.146 1.63188 613.856 2.04815 614.462 2.59042C615.069 3.13269 615.56 3.78996 615.907 4.52362C616.254 5.25729 616.45 6.05251 616.483 6.86245C616.515 7.44398 616.515 8.02679 616.483 8.60833C613.897 18.632 610.434 28.4118 606.133 37.8361C608.867 37.8361 611.275 39.6466 611.275 42.4918V105.344C611.275 108.448 608.15 110 604.765 110C601.381 110 598.256 108.448 598.256 105.344L598.842 52.2559ZM654.629 92.4116C660.38 76.9179 664.736 60.9483 667.648 44.6903C667.874 43.1806 668.676 41.8151 669.888 40.8763C671.1 39.9375 672.628 39.4972 674.157 39.6466C675.114 39.5823 676.074 39.7288 676.967 40.0757C677.86 40.4226 678.665 40.9614 679.325 41.6533C679.984 42.3453 680.481 43.1735 680.781 44.0785C681.08 44.9836 681.175 45.9433 681.058 46.8889C677.962 62.303 673.608 77.4411 668.038 92.153H690.952C692.356 92.3615 693.637 93.0636 694.564 94.1317C695.49 95.1998 696 96.5628 696 97.9727C696 99.3825 695.49 100.746 694.564 101.814C693.637 102.882 692.356 103.584 690.952 103.792H620.454C619.111 103.51 617.906 102.777 617.042 101.718C616.178 100.658 615.707 99.3362 615.707 97.9727C615.707 96.6091 616.178 95.2871 617.042 94.2276C617.906 93.1682 619.111 92.4358 620.454 92.153L654.629 92.4116ZM687.697 22.3169C689.04 22.5997 690.244 23.3321 691.108 24.3915C691.973 25.4509 692.444 26.7731 692.444 28.1366C692.444 29.5001 691.973 30.8223 691.108 31.8817C690.244 32.9411 689.04 33.6735 687.697 33.9563H623.188C621.845 33.6735 620.64 32.9411 619.776 31.8817C618.912 30.8223 618.441 29.5001 618.441 28.1366C618.441 26.7731 618.912 25.4509 619.776 24.3915C620.64 23.3321 621.845 22.5997 623.188 22.3169H647.598V6.2805C647.598 2.7887 650.853 1.04276 654.108 1.04276C657.363 1.04276 660.617 2.7887 660.617 6.2805V22.3169H687.697ZM648.64 75.4053C648.834 76.3846 648.797 77.3952 648.532 78.3581C648.268 79.3209 647.782 80.2097 647.114 80.955C646.445 81.7003 645.612 82.2818 644.68 82.654C643.748 83.0261 642.741 83.1789 641.74 83.1002C640.168 83.2104 638.614 82.7139 637.401 81.7141C636.188 80.7143 635.411 79.2883 635.23 77.7332C633.35 67.8718 630.65 58.1823 627.158 48.7641C626.901 48.0568 626.747 47.3164 626.703 46.5656C626.88 44.9767 627.643 43.5092 628.845 42.4464C630.047 41.3836 631.603 40.8009 633.212 40.8106C634.527 40.7963 635.815 41.1778 636.908 41.905C638 42.6322 638.845 43.6708 639.331 44.8843C643.445 54.7375 646.606 64.9572 648.77 75.4053H648.64Z" fill="#010101"/>
<path d="M707.699 34.2244C704.632 34.2244 703 31.2085 703 28.2581C703 25.3077 704.632 22.3574 707.699 22.3574H749.205C749.91 22.4137 750.597 22.6133 751.222 22.9441C751.848 23.2749 752.401 23.73 752.846 24.2818C753.292 24.8336 753.621 25.4706 753.814 26.1541C754.007 26.8377 754.06 27.5534 753.969 28.2581C754.06 28.9663 754.008 29.6856 753.815 30.373C753.623 31.0604 753.295 31.7017 752.85 32.2587C752.405 32.8157 751.853 33.2768 751.227 33.6146C750.601 33.9523 749.913 34.1598 749.205 34.2244H707.699ZM722.644 107.591C713.311 107.591 710.309 103.985 710.309 96.5103V84.7087C710.309 77.1689 713.311 73.6285 722.644 73.6285H735.696C745.029 73.6285 748.031 77.1689 748.031 84.7087V96.5103C748.031 105.165 743.854 107.525 735.696 107.591H722.644ZM715.465 16.5877C714.807 16.5305 714.166 16.3417 713.581 16.0323C712.997 15.7229 712.479 15.2993 712.06 14.7862C711.64 14.2731 711.327 13.681 711.138 13.0446C710.95 12.4082 710.89 11.7404 710.962 11.0803C710.962 8.19552 712.528 5.50741 715.465 5.50741H741.57C744.637 5.50741 746.138 8.19552 746.138 11.0803C746.21 11.7455 746.148 12.4183 745.955 13.0588C745.763 13.6992 745.444 14.2942 745.017 14.8081C744.591 15.3221 744.066 15.7445 743.474 16.0503C742.881 16.356 742.234 16.5388 741.57 16.5877H715.465ZM715.465 50.9433C714.807 50.8861 714.166 50.6972 713.581 50.3879C712.997 50.0785 712.479 49.6549 712.06 49.1418C711.64 48.6287 711.327 48.0365 711.138 47.4001C710.95 46.7637 710.89 46.0959 710.962 45.4359C710.962 42.5511 712.528 39.863 715.465 39.863H741.57C744.637 39.863 746.138 42.5511 746.138 45.4359C746.21 46.101 746.148 46.7739 745.955 47.4143C745.763 48.0548 745.444 48.6497 745.017 49.1637C744.591 49.6776 744.066 50.1001 743.474 50.4059C742.881 50.7116 742.234 50.8944 741.57 50.9433H715.465ZM715.465 67.8588C714.804 67.7934 714.162 67.5969 713.577 67.2806C712.992 66.9644 712.475 66.5347 712.056 66.0164C711.637 65.4982 711.325 64.9015 711.137 64.2612C710.949 63.6208 710.89 62.9495 710.962 62.2859C710.881 61.6207 710.934 60.946 711.118 60.3019C711.302 59.6578 711.614 59.0577 712.034 58.5374C712.454 58.0172 712.975 57.5875 713.564 57.274C714.154 56.9605 714.8 56.7696 715.465 56.7129H741.57C744.637 56.7129 746.138 59.4666 746.138 62.2859C746.21 62.9545 746.148 63.6309 745.956 64.2752C745.765 64.9195 745.447 65.5189 745.021 66.038C744.595 66.5572 744.071 66.9857 743.478 67.2983C742.886 67.611 742.237 67.8015 741.57 67.8588H715.465ZM733.216 96.9693C735.696 96.9693 736.283 96.3136 736.283 94.15V87.0691C736.283 84.971 735.696 84.2498 733.216 84.2498H725.189C722.84 84.2498 722.252 84.971 722.252 87.0691V94.15C722.252 96.3136 723.101 96.9693 725.189 96.9693H733.216ZM808.071 39.9941C811.334 39.9941 812.966 42.9445 812.966 46.026C813.047 46.7428 812.984 47.4687 812.779 48.1604C812.575 48.8521 812.235 49.4954 811.778 50.0522C811.321 50.6089 810.758 51.0676 810.121 51.4009C809.484 51.7342 808.787 51.9353 808.071 51.9923H788.493V104.444C788.493 106.182 787.805 107.85 786.581 109.08C785.357 110.309 783.697 111 781.967 111C780.236 111 778.576 110.309 777.352 109.08C776.128 107.85 775.44 106.182 775.44 104.444V51.9923H758.603C757.881 51.9437 757.177 51.7487 756.533 51.4191C755.888 51.0894 755.317 50.632 754.853 50.0743C754.39 49.5167 754.044 48.8705 753.836 48.1747C753.628 47.4789 753.562 46.7479 753.643 46.026C753.643 42.9445 755.275 39.9941 758.603 39.9941H775.636V6.55641C775.636 4.81754 776.324 3.14989 777.548 1.92032C778.772 0.690757 780.431 0 782.162 0C783.893 0 785.553 0.690757 786.777 1.92032C788.001 3.14989 788.688 4.81754 788.688 6.55641V39.9941H808.071Z" fill="#010101"/>
<path d="M854.573 74.9874C845.821 74.9874 841.024 73.0967 840.765 63.3824V41.8024C840.765 33.4572 845.108 30.1322 855.805 30.1322H894.702C905.398 30.1322 909.742 33.4572 909.742 41.8024V63.5128C909.742 72.5099 904.945 74.7918 896.776 75.1177V80.5291H925.884C928.672 80.5291 929.968 83.0065 929.968 85.484C930.04 86.0785 929.99 86.6815 929.82 87.2556C929.651 87.8297 929.365 88.3626 928.982 88.8211C928.599 89.2797 928.127 89.6542 927.594 89.9213C927.061 90.1883 926.479 90.3423 925.884 90.3737H896.776V106.086C896.776 109.02 893.859 110.585 890.942 110.585C888.024 110.585 884.977 109.02 884.977 106.086V90.2434H864.103C862.075 95.3314 858.871 99.8602 854.756 103.454C850.641 107.049 845.734 109.605 840.44 110.911C839.732 111.03 839.009 111.03 838.301 110.911C837.584 110.919 836.872 110.784 836.207 110.512C835.542 110.239 834.939 109.836 834.431 109.326C833.924 108.816 833.523 108.209 833.252 107.54C832.982 106.872 832.847 106.156 832.856 105.434C832.865 104.181 833.291 102.967 834.067 101.986C834.842 101.005 835.922 100.314 837.134 100.023C843.026 98.598 848.166 94.9889 851.526 89.9174H825.011C823.88 89.6895 822.862 89.0745 822.131 88.1771C821.4 87.2797 821 86.1553 821 84.995C821 83.8347 821.4 82.7103 822.131 81.8129C822.862 80.9155 823.88 80.3006 825.011 80.0727H854.314C854.314 78.6384 854.314 77.2692 854.314 75.8349L854.573 74.9874ZM867.539 10.4429C868.777 10.4429 869.964 10.9374 870.839 11.8178C871.715 12.6981 872.206 13.8921 872.206 15.137C872.206 16.382 871.715 17.576 870.839 18.4563C869.964 19.3366 868.777 19.8312 867.539 19.8312H858.463C859.046 20.8743 859.63 21.787 860.213 22.8954C860.611 23.6119 860.812 24.4219 860.797 25.2424C860.665 26.609 860.009 27.8701 858.968 28.7586C857.927 29.6471 856.583 30.093 855.221 30.0018C854.122 30.0063 853.046 29.6878 852.125 29.0855C851.203 28.4832 850.477 27.6233 850.035 26.6116C848.942 24.3618 847.708 22.1842 846.34 20.0919H840.7C838.548 23.2645 836.164 26.2718 833.569 29.0891C832.925 29.8185 832.137 30.4042 831.255 30.8084C830.373 31.2127 829.417 31.4265 828.447 31.4361C827.014 31.4714 825.624 30.9366 824.581 29.9479C823.537 28.9592 822.923 27.5963 822.872 26.1552C822.932 24.5706 823.607 23.0727 824.752 21.9826C829.96 16.4648 834.329 10.2035 837.718 3.40165C838.22 2.35369 839.014 1.47525 840.004 0.873313C840.994 0.271374 842.137 -0.0280661 843.293 0.0114514C844.714 -0.0804986 846.114 0.383986 847.202 1.30765C848.29 2.23132 848.98 3.54245 849.127 4.96635C849.095 5.80924 848.873 6.63382 848.479 7.37863C847.96 8.48697 847.377 9.66052 846.794 10.7037L867.539 10.4429ZM898.267 41.5416C898.267 39.1945 897.684 38.4774 893.859 38.4774H856.972C853.082 38.4774 852.499 39.1945 852.499 41.5416V42.4543H898.267V41.5416ZM852.499 54.5809H898.267V50.0171H852.499V54.5809ZM893.859 66.903C897.684 66.903 898.267 66.1859 898.267 63.8388V62.0785H852.499V63.8388C852.499 66.903 854.379 66.903 856.972 66.903H893.859ZM866.437 76.5521C866.437 77.9212 866.437 79.3555 866.437 80.6594H885.107V75.2482H866.437V76.5521ZM923.421 10.7037C924.659 10.7037 925.846 11.1982 926.721 12.0786C927.596 12.9589 928.088 14.1529 928.088 15.3978C928.088 16.6428 927.596 17.8368 926.721 18.7171C925.846 19.5974 924.659 20.0919 923.421 20.0919H906.111C906.678 20.9538 907.197 21.8462 907.667 22.765C908.092 23.4771 908.337 24.2829 908.38 25.1121C908.217 26.5069 907.527 27.7853 906.454 28.6832C905.38 29.5811 904.004 30.0298 902.611 29.9366C901.595 29.9392 900.6 29.6529 899.74 29.1107C898.879 28.5684 898.189 27.7924 897.749 26.8724C896.544 24.6315 895.224 22.4553 893.794 20.3527H886.728C885.107 22.5694 883.357 24.6557 881.606 26.8724C880.995 27.6157 880.234 28.2208 879.374 28.6477C878.514 29.0747 877.573 29.314 876.615 29.3499C875.175 29.3855 873.778 28.8528 872.724 27.8657C871.67 26.8787 871.042 25.5158 870.974 24.0689C871.048 22.6413 871.649 21.2928 872.66 20.2876C877.073 15.2174 880.8 9.58358 883.746 3.53207C884.249 2.5317 885.019 1.69129 885.968 1.10431C886.918 0.517326 888.012 0.206742 889.126 0.207033C890.066 0.138503 891.007 0.322347 891.853 0.739709C892.698 1.15707 893.419 1.79297 893.94 2.58231C894.461 3.37165 894.764 4.28604 894.818 5.23191C894.872 6.17779 894.675 7.12118 894.248 7.96543C893.794 9.00857 893.211 10.1169 892.627 11.16L923.421 10.7037Z" fill="#010101"/>
<path d="M968.898 40.9271C969.25 41.7957 969.428 42.7239 969.423 43.66C969.288 45.5015 968.427 47.2164 967.027 48.434C965.626 49.6516 963.798 50.274 961.938 50.1665C960.507 50.2406 959.09 49.8482 957.904 49.0493C956.719 48.2503 955.83 47.0888 955.373 45.7421C952.743 39.378 949.626 33.2223 946.05 27.3284C945.407 26.2639 945.045 25.0551 945 23.8148C945.085 22.014 945.885 20.3194 947.226 19.1007C948.566 17.8819 950.338 17.2376 952.156 17.3083C953.479 17.3195 954.777 17.6663 955.926 18.3155C957.075 18.9647 958.038 19.8947 958.721 21.017C962.794 27.2902 966.204 33.962 968.898 40.9271V40.9271ZM1028.38 15.2912C1029.31 15.2204 1030.24 15.3332 1031.12 15.623C1032.01 15.9127 1032.83 16.3737 1033.53 16.9791C1034.23 17.5845 1034.8 18.3223 1035.22 19.1495C1035.63 19.9768 1035.87 20.877 1035.93 21.7978C1036.02 22.4451 1036.02 23.1025 1035.93 23.7498C1031.68 40.0011 1024.24 55.2626 1014.04 68.6605C1003.83 82.0584 991.056 93.3296 976.448 101.829C975.141 102.553 973.677 102.955 972.18 103C970.346 103 968.586 102.282 967.282 101.003C965.979 99.7236 965.238 97.986 965.221 96.1681C965.362 94.7846 965.859 93.4602 966.663 92.3211C967.468 91.1819 968.553 90.2662 969.817 89.6615C982.714 82.1476 993.95 72.132 1002.85 60.2141C1011.75 48.2963 1018.13 34.7211 1021.62 20.3013C1021.97 18.8114 1022.84 17.4924 1024.08 16.5761C1025.31 15.6598 1026.84 15.2049 1028.38 15.2912ZM996.8 33.9001C997.149 34.6784 997.328 35.5209 997.325 36.3726C997.158 38.2017 996.288 39.8972 994.895 41.1083C993.502 42.3194 991.693 42.9534 989.841 42.8791C988.376 42.9369 986.934 42.507 985.744 41.658C984.554 40.809 983.685 39.5897 983.276 38.1944C980.945 31.8969 978.044 25.821 974.609 20.041C973.996 18.9634 973.637 17.7622 973.559 16.5274C973.556 15.6274 973.742 14.7365 974.104 13.9111C974.466 13.0858 974.997 12.3439 975.664 11.7323C976.33 11.1208 977.117 10.653 977.976 10.3584C978.834 10.0638 979.744 9.94884 980.65 10.0209C981.988 10.0327 983.299 10.3938 984.452 11.0677C985.604 11.7416 986.557 12.7046 987.215 13.8598C991.147 20.1685 994.362 26.8897 996.8 33.9001V33.9001Z" fill="#010101"/>
<path d="M1143.53 49C1145.24 49 1146.89 49.6848 1148.1 50.9038C1149.32 52.1228 1150 53.7761 1150 55.5C1150 57.2239 1149.32 58.8772 1148.1 60.0962C1146.89 61.3152 1145.24 62 1143.53 62H1058.47C1056.76 62 1055.11 61.3152 1053.9 60.0962C1052.68 58.8772 1052 57.2239 1052 55.5C1052 53.7761 1052.68 52.1228 1053.9 50.9038C1055.11 49.6848 1056.76 49 1058.47 49H1143.53Z" fill="#010101"/>
<path d="M1189.23 18.979C1189.28 18.1072 1189.5 17.2541 1189.89 16.47C1190.27 15.6859 1190.81 14.9866 1191.47 14.4133C1192.12 13.84 1192.89 13.4043 1193.72 13.1319C1194.55 12.8595 1195.42 12.7559 1196.3 12.8272C1197.96 12.8242 1199.57 13.4595 1200.79 14.6032C1202 15.7468 1202.74 17.3123 1202.84 18.979V32.068C1202.84 64.7905 1194.46 83.966 1178.24 97.8403C1176.81 99.2127 1174.91 99.9857 1172.94 100C1171.17 99.9873 1169.47 99.3052 1168.18 98.0912C1166.9 96.8771 1166.12 95.2209 1166 93.4555C1166.02 92.3673 1166.29 91.2975 1166.77 90.324C1167.26 89.3504 1167.96 88.4975 1168.81 87.8272C1182.82 75.1963 1188.97 60.7329 1188.97 31.9371L1189.23 18.979ZM1233.13 80.9555C1233.13 82.7225 1233.66 83.7042 1234.83 83.7042C1235.66 83.5659 1236.46 83.2775 1237.19 82.8533C1245.84 77.9104 1253.37 71.2248 1259.31 63.2198C1259.93 62.2576 1260.79 61.4627 1261.79 60.9039C1262.79 60.3452 1263.92 60.0394 1265.06 60.013C1265.96 59.9594 1266.85 60.089 1267.69 60.3938C1268.53 60.6986 1269.3 61.1722 1269.95 61.7853C1270.6 62.3985 1271.11 63.1382 1271.47 63.9589C1271.82 64.7797 1272 65.664 1272 66.5575C1271.96 68.0371 1271.48 69.4713 1270.63 70.6806C1263.21 81.5603 1253.32 90.5305 1241.77 96.8586C1238.65 98.5626 1235.18 99.5255 1231.63 99.6728C1229.87 99.6953 1228.13 99.3417 1226.52 98.6356C1224.92 97.9295 1223.48 96.8873 1222.31 95.5791C1221.14 94.271 1220.26 92.7272 1219.73 91.0514C1219.21 89.3757 1219.05 87.6069 1219.26 85.8639V16.034C1219.4 14.3205 1220.2 12.7285 1221.5 11.602C1222.79 10.4754 1224.48 9.90467 1226.2 10.013C1227.91 9.90467 1229.6 10.4754 1230.9 11.602C1232.2 12.7285 1233 14.3205 1233.13 16.034V80.9555Z" fill="#010101"/>
<path d="M50.2747 59.7342C50.2747 56.5466 48.9658 55.6289 44.651 55.6289H5.76924C4.48344 55.6289 3.25031 55.1201 2.34111 54.2144C1.43192 53.3086 0.921141 52.0802 0.921141 50.7993C0.921141 49.5184 1.43192 48.2899 2.34111 47.3842C3.25031 46.4784 4.48344 45.9696 5.76924 45.9696H46.4447C56.1409 45.9696 60.2133 49.7851 60.2133 57.6091V89.7264C60.2133 97.5505 56.3833 101.366 46.4447 101.366H4.84809C3.5623 101.366 2.32917 100.857 1.41998 99.9513C0.510786 99.0456 0 97.8171 0 96.5362C0 95.2553 0.510786 94.0269 1.41998 93.1211C2.32917 92.2154 3.5623 91.7065 4.84809 91.7065H44.554C48.8688 91.7065 50.1778 90.8372 50.1778 87.6013L50.2747 59.7342Z" fill="#010101"/>
<path d="M142.148 66.4421C143.414 66.4421 144.628 66.9496 145.523 67.853C146.418 68.7564 146.921 69.9816 146.921 71.2592C146.921 72.5368 146.418 73.762 145.523 74.6654C144.628 75.5688 143.414 76.0763 142.148 76.0763H79.4371C78.1713 76.0763 76.9574 75.5688 76.0624 74.6654C75.1674 73.762 74.6646 72.5368 74.6646 71.2592C74.6646 69.9816 75.1674 68.7564 76.0624 67.853C76.9574 66.9496 78.1713 66.4421 79.4371 66.4421H142.148Z" fill="#010101"/>
<path d="M201.536 71.4322C201.204 79.0121 199.043 86.3965 195.24 92.9466C191.436 99.4967 186.105 105.015 179.707 109.025C178.894 109.511 177.971 109.777 177.026 109.796C175.734 109.711 174.523 109.136 173.635 108.189C172.747 107.241 172.248 105.99 172.239 104.687C172.246 103.81 172.49 102.952 172.945 102.205C173.401 101.457 174.05 100.849 174.824 100.446C179.76 97.3766 183.873 93.1354 186.802 88.0939C189.732 83.0524 191.388 77.3644 191.627 71.5285H165.058C162.569 71.5285 161.372 69.2152 161.372 66.709C161.372 64.2028 162.569 61.8894 165.058 61.8894H226.669C227.644 62.1945 228.497 62.8058 229.103 63.6339C229.709 64.4621 230.036 65.4636 230.036 66.4921C230.036 67.5206 229.709 68.5222 229.103 69.3503C228.497 70.1784 227.644 70.7897 226.669 71.0948L201.536 71.4322ZM212.403 41.7438C214.892 41.7438 216.185 44.1053 216.185 46.5633C216.272 47.1329 216.242 47.7146 216.096 48.2719C215.95 48.8293 215.692 49.3503 215.337 49.8026C214.982 50.2549 214.538 50.6286 214.033 50.9005C213.528 51.1724 212.973 51.3366 212.403 51.3828H175.685C173.148 51.3828 171.951 49.0213 171.951 46.5633C171.951 44.1053 173.148 41.7438 175.685 41.7438H212.403ZM216.089 37.5026C216.125 37.0545 216.249 36.6181 216.455 36.2191C216.661 35.8202 216.944 35.4666 217.287 35.1792C217.63 34.8919 218.027 34.6765 218.455 34.5458C218.882 34.4151 219.331 34.3717 219.775 34.4181C220.3 34.401 220.821 34.5102 221.296 34.7365C221.77 34.9628 222.184 35.2997 222.504 35.7193C224.643 38.3716 226.519 41.2289 228.105 44.2499C228.449 44.8507 228.631 45.5321 228.631 46.2259C228.631 47.1207 228.278 47.9788 227.65 48.6115C227.021 49.2442 226.169 49.5996 225.28 49.5996C224.606 49.5921 223.948 49.3937 223.381 49.0272C222.814 48.6607 222.36 48.1409 222.073 47.5272C220.482 44.6404 218.69 41.8703 216.711 39.2376C216.336 38.7353 216.119 38.1307 216.089 37.5026ZM225.663 32.0565C225.748 31.2127 226.155 30.4349 226.798 29.8866C227.44 29.3384 228.269 29.0624 229.11 29.1166C229.662 29.1026 230.21 29.212 230.715 29.4371C231.22 29.6621 231.669 29.997 232.03 30.4178C234.249 32.8785 236.191 35.5776 237.823 38.4665C238.214 39.1223 238.429 39.8701 238.445 40.6353C238.439 41.0847 238.345 41.5284 238.168 41.9412C237.991 42.3539 237.736 42.7276 237.416 43.0409C237.096 43.3542 236.717 43.6009 236.303 43.767C235.888 43.9331 235.444 44.0153 234.998 44.0089C234.31 44.0082 233.636 43.8137 233.053 43.4474C232.469 43.0812 231.999 42.5578 231.695 41.9365C230.097 39.1574 228.322 36.485 226.381 33.9361C225.863 33.4403 225.54 32.7729 225.472 32.0565H225.663Z" fill="#010101"/>
<path d="M271.138 77.1634C265.624 81.4517 259.731 85.2348 253.53 88.4662C252.798 88.8586 251.977 89.0581 251.146 89.0459C250.147 89.0111 249.189 88.6413 248.428 87.9967C247.667 87.3521 247.149 86.4706 246.957 85.496C246.765 84.5213 246.911 83.5109 247.372 82.6293C247.832 81.7477 248.58 81.047 249.492 80.6412C263.139 73.5643 275.047 63.5863 284.368 51.4179C284.735 50.853 285.239 50.3888 285.834 50.0681C286.429 49.7474 287.096 49.5803 287.773 49.5824C288.998 49.5785 290.18 50.034 291.082 50.8579C291.983 51.6818 292.539 52.8133 292.637 54.0263C292.587 54.9284 292.284 55.7986 291.761 56.538C287.448 62.2948 282.559 67.603 277.169 72.3814C278.034 72.4967 278.828 72.9158 279.408 73.5627C279.988 74.2096 280.315 75.0414 280.331 75.9075V107.256C280.295 107.796 280.149 108.324 279.902 108.807C279.655 109.29 279.312 109.718 278.894 110.065C278.475 110.413 277.991 110.673 277.468 110.829C276.946 110.986 276.398 111.035 275.856 110.975C273.57 110.975 271.332 109.768 271.332 107.256L271.138 77.1634Z" fill="#010101"/>
<path d="M336.022 54.2598C336.515 54.738 336.905 55.3108 337.17 55.9434C337.434 56.5761 337.566 57.2555 337.559 57.9406C337.525 59.4061 336.938 60.8053 335.915 61.8594C334.891 62.9136 333.506 63.5454 332.036 63.6291C331.305 63.6127 330.585 63.4521 329.917 63.1567C329.25 62.8613 328.647 62.437 328.146 61.9082C324.445 58.1946 320.515 54.7141 316.379 51.4872C315.749 51.0525 315.233 50.4743 314.874 49.8007C314.515 49.1271 314.322 48.3777 314.313 47.6152C314.387 46.203 315 44.8721 316.026 43.8947C317.053 42.9172 318.416 42.3671 319.837 42.3568C321.082 42.3701 322.291 42.7714 323.295 43.5041C327.92 46.6146 332.188 50.2215 336.022 54.2598V54.2598ZM374.061 51.7262C374.723 51.694 375.385 51.7923 376.01 52.0152C376.634 52.2382 377.208 52.5815 377.698 53.0256C378.189 53.4696 378.587 54.0056 378.869 54.6029C379.152 55.2002 379.313 55.8471 379.344 56.5065C379.351 57.4975 379.049 58.4664 378.479 59.2791C366.483 80.0895 347.583 96.095 325.024 104.548C324.29 104.836 323.507 104.981 322.718 104.979C321.334 104.954 320.015 104.389 319.045 103.405C318.075 102.422 317.531 101.099 317.531 99.7204C317.483 98.6659 317.786 97.6251 318.395 96.7604C319.003 95.8957 319.881 95.2556 320.893 94.94C341.321 87.2724 358.515 72.9074 369.642 54.212C370.072 53.4283 370.714 52.78 371.494 52.3407C372.275 51.9013 373.164 51.6885 374.061 51.7262Z" fill="#010101"/>
<path d="M438.405 48.5439C445.607 48.5439 449.28 51.3261 449.28 56.5068C449.285 58.1367 449.023 59.7566 448.507 61.3038C442.01 82.0625 427.739 99.5575 408.633 110.185C407.762 110.678 406.784 110.958 405.781 111C404.5 111 403.27 110.495 402.364 109.595C401.457 108.695 400.948 107.475 400.948 106.203C400.976 105.206 401.273 104.235 401.809 103.391C402.345 102.547 403.099 101.861 403.993 101.406C420.128 92.3956 432.321 77.7643 438.212 60.3444C438.353 59.959 438.434 59.5547 438.454 59.1452C438.454 58.1858 437.777 57.754 436.134 57.754H416.801C412.747 63.7558 407.993 69.2623 402.64 74.1596C401.565 75.1974 400.128 75.7819 398.628 75.7905C397.347 75.7905 396.117 75.2851 395.211 74.3855C394.304 73.4859 393.795 72.2658 393.795 70.9936C393.85 70.1872 394.072 69.4007 394.446 68.6828C394.82 67.9649 395.339 67.3309 395.97 66.8202C404.895 58.417 412.029 48.3195 416.946 37.1272C417.315 36.1553 417.977 35.3203 418.842 34.7363C419.707 34.1524 420.733 33.8482 421.779 33.8653C422.438 33.826 423.098 33.921 423.718 34.1444C424.338 34.3678 424.906 34.7149 425.386 35.1643C425.866 35.6137 426.248 36.1559 426.509 36.7575C426.77 37.3591 426.904 38.0073 426.902 38.6622C426.899 39.341 426.751 40.0113 426.467 40.629C425.302 43.4112 423.996 46.1329 422.553 48.7838L438.405 48.5439ZM443.625 38.1825C443.692 37.488 443.963 36.8284 444.405 36.2859C444.847 35.7434 445.44 35.3422 446.11 35.1324C446.78 34.9226 447.498 34.9134 448.174 35.1061C448.849 35.2988 449.453 35.6847 449.908 36.2158C452.234 38.6862 454.277 41.4051 455.998 44.3226C456.39 44.9394 456.591 45.6563 456.578 46.3853C456.553 47.31 456.165 48.1884 455.497 48.8335C454.829 49.4786 453.934 49.8394 453.002 49.8391C452.38 49.8191 451.776 49.6295 451.256 49.291C450.736 48.9525 450.32 48.4782 450.053 47.9203C448.347 45.1675 446.424 42.553 444.302 40.1013C443.935 39.5307 443.766 38.8572 443.819 38.1825H443.625ZM452.857 32.1384C452.942 31.2731 453.363 30.4746 454.03 29.9109C454.697 29.3473 455.559 29.0624 456.433 29.1163C456.965 29.1187 457.491 29.2259 457.98 29.4318C458.47 29.6377 458.913 29.9381 459.285 30.3156C461.56 32.6484 463.569 35.2222 465.278 37.9906C465.738 38.6936 466.005 39.504 466.051 40.3411C466.045 40.7884 465.95 41.2301 465.772 41.6409C465.593 42.0517 465.335 42.4237 465.012 42.7355C464.689 43.0473 464.307 43.2929 463.888 43.4582C463.469 43.6235 463.022 43.7054 462.571 43.699C461.924 43.6771 461.293 43.4944 460.736 43.1675C460.178 42.8407 459.713 42.3802 459.381 41.8282C457.613 39.1329 455.692 36.5384 453.63 34.0572C453.149 33.5299 452.875 32.8492 452.857 32.1384V32.1384Z" fill="#010101"/>
</svg>
