<svg width="619" height="51" viewBox="0 0 619 51" fill="none" xmlns="http://www.w3.org/2000/svg">
<path d="M2.08271 16.7051C0.694241 16.7051 0 15.4035 0 14.1018C0 12.8001 0.694241 11.4984 2.08271 11.4984H20.4365C21.0456 11.6101 21.5962 11.9317 21.9926 12.4074C22.3889 12.883 22.606 13.4826 22.606 14.1018C22.606 14.721 22.3889 15.3205 21.9926 15.7962C21.5962 16.2719 21.0456 16.5935 20.4365 16.7051H2.08271ZM8.67793 49.0739C4.55592 49.0739 3.21084 47.425 3.21084 44.1708V38.9641C3.21084 35.6231 4.55592 34.061 8.67793 34.061H14.4921C18.8311 34.061 19.9593 35.6231 19.9593 38.9641V44.1708C19.9593 47.9457 18.0935 48.9871 14.4921 49.0739H8.67793ZM5.51049 8.93843C5.21527 8.91157 4.92846 8.82565 4.66708 8.68581C4.4057 8.54597 4.17509 8.35506 3.98892 8.12437C3.80275 7.89369 3.66484 7.62794 3.58335 7.34293C3.50186 7.05791 3.47848 6.75945 3.51457 6.46522C3.4785 6.17333 3.50216 5.87715 3.5841 5.59469C3.66605 5.31223 3.80458 5.04938 3.99126 4.82211C4.17794 4.59485 4.40889 4.4079 4.67005 4.27266C4.93122 4.13742 5.21716 4.05668 5.51049 4.03537H17.1389C17.436 4.05102 17.7267 4.12761 17.993 4.26038C18.2592 4.39315 18.4953 4.57927 18.6866 4.80715C18.8778 5.03504 19.0202 5.29982 19.1048 5.58506C19.1893 5.87029 19.2144 6.1699 19.1782 6.46522C19.2143 6.76281 19.1894 7.06461 19.1053 7.35233C19.0212 7.64004 18.8794 7.90766 18.6887 8.13894C18.498 8.37022 18.2623 8.56033 17.9959 8.69776C17.7295 8.83519 17.4379 8.91709 17.1389 8.93843H5.51049ZM5.51049 24.0814C5.21527 24.0546 4.92846 23.9686 4.66708 23.8288C4.4057 23.689 4.17509 23.498 3.98892 23.2674C3.80275 23.0367 3.66484 22.7709 3.58335 22.4859C3.50186 22.2009 3.47848 21.9024 3.51457 21.6082C3.4785 21.3163 3.50216 21.0201 3.5841 20.7377C3.66605 20.4552 3.80458 20.1924 3.99126 19.9651C4.17794 19.7378 4.40889 19.5509 4.67005 19.4156C4.93122 19.2804 5.21716 19.1997 5.51049 19.1784H17.1389C17.436 19.194 17.7267 19.2706 17.993 19.4034C18.2592 19.5362 18.4953 19.7223 18.6866 19.9502C18.8778 20.1781 19.0202 20.4428 19.1048 20.7281C19.1893 21.0133 19.2144 21.3129 19.1782 21.6082C19.2143 21.9058 19.1894 22.2076 19.1053 22.4953C19.0212 22.783 18.8794 23.0506 18.6887 23.2819C18.498 23.5132 18.2623 23.7034 17.9959 23.8408C17.7295 23.9782 17.4379 24.0601 17.1389 24.0814H5.51049ZM5.51049 31.501C5.21716 31.4797 4.93122 31.399 4.67005 31.2638C4.40889 31.1285 4.17794 30.9416 3.99126 30.7143C3.80458 30.487 3.66605 30.2242 3.5841 29.9417C3.50216 29.6593 3.4785 29.3631 3.51457 29.0712C3.4785 28.7793 3.50216 28.4832 3.5841 28.2007C3.66605 27.9182 3.80458 27.6554 3.99126 27.4281C4.17794 27.2009 4.40889 27.0139 4.67005 26.8787C4.93122 26.7434 5.21716 26.6627 5.51049 26.6414H17.1389C17.436 26.657 17.7267 26.7337 17.993 26.8664C18.2592 26.9992 18.4953 27.1853 18.6866 27.4132C18.8778 27.6411 19.0202 27.9059 19.1048 28.1911C19.1893 28.4763 19.2144 28.7759 19.1782 29.0712C19.2144 29.3665 19.1893 29.6661 19.1048 29.9514C19.0202 30.2366 18.8778 30.5014 18.6866 30.7293C18.4953 30.9571 18.2592 31.1433 17.993 31.276C17.7267 31.4088 17.436 31.4854 17.1389 31.501H5.51049ZM13.364 44.5179C14.4488 44.5179 14.7091 44.1708 14.7091 43.2596V40.1356C14.7091 39.181 14.4488 38.8773 13.364 38.8773H9.80607C8.76471 38.8773 8.50438 39.181 8.50438 40.1356V43.2596C8.50438 44.1708 8.89488 44.5179 9.80607 44.5179H13.364ZM46.5137 19.3519C46.8339 19.3729 47.1464 19.4594 47.4317 19.6061C47.7171 19.7528 47.9693 19.9565 48.1727 20.2046C48.3761 20.4528 48.5264 20.7401 48.6142 21.0487C48.702 21.3573 48.7255 21.6806 48.6832 21.9987C48.7193 22.3181 48.6916 22.6415 48.6018 22.9501C48.5121 23.2588 48.3619 23.5465 48.1601 23.7968C47.9584 24.047 47.7089 24.2546 47.4263 24.4078C47.1437 24.5609 46.8335 24.6565 46.5137 24.6889H37.8358V47.9023C37.718 48.5764 37.3663 49.1872 36.8425 49.6275C36.3186 50.0677 35.6563 50.309 34.9721 50.309C34.2878 50.309 33.6255 50.0677 33.1017 49.6275C32.5779 49.1872 32.2261 48.5764 32.1084 47.9023V24.6889H24.602C24.2783 24.6619 23.9634 24.5703 23.6758 24.4195C23.3882 24.2687 23.1338 24.0618 22.9275 23.8111C22.7212 23.5603 22.5672 23.2707 22.4748 22.9594C22.3823 22.6481 22.3532 22.3214 22.3891 21.9987C22.3467 21.6772 22.3715 21.3504 22.4619 21.039C22.5523 20.7276 22.7064 20.4383 22.9144 20.1895C23.1224 19.9407 23.3798 19.7378 23.6703 19.5936C23.9608 19.4495 24.278 19.3672 24.602 19.3519H32.1517V4.51266C32.2695 3.83863 32.6213 3.22775 33.1451 2.78753C33.6689 2.3473 34.3312 2.10596 35.0155 2.10596C35.6997 2.10596 36.362 2.3473 36.8858 2.78753C37.4097 3.22775 37.7614 3.83863 37.8792 4.51266V19.2218L46.5137 19.3519Z" fill="#010101"/>
<path d="M67.0371 34.7999C63.132 34.7999 61.0059 33.9755 60.8758 29.6365V19.8739C60.8758 16.1857 62.8283 14.7539 67.6012 14.7539H84.957C89.7299 14.7539 91.639 16.1857 91.639 19.8739V29.463C91.639 33.4982 89.513 34.4528 85.8248 34.6264V37.2297H98.8417C99.1086 37.2394 99.3704 37.3048 99.6104 37.422C99.8503 37.5391 100.063 37.7052 100.235 37.9097C100.407 38.1141 100.533 38.3524 100.607 38.6089C100.681 38.8655 100.701 39.1347 100.664 39.3992C100.664 40.5273 100.1 41.6121 98.8417 41.6121H85.8248V48.5978C85.8248 49.8995 84.5231 50.5504 83.2214 50.5504C81.9198 50.5504 80.5747 49.8995 80.5747 48.5978V41.5687H71.2893C70.3863 43.8231 68.9587 45.8296 67.125 47.4218C65.2913 49.014 63.1043 50.146 60.7456 50.7239C60.4288 50.7653 60.1079 50.7653 59.791 50.7239C59.4666 50.73 59.1443 50.6699 58.8438 50.5472C58.5434 50.4245 58.2712 50.2419 58.0437 50.0104C57.8163 49.7789 57.6385 49.5034 57.5211 49.2009C57.4038 48.8983 57.3494 48.575 57.3612 48.2507C57.3735 47.6986 57.567 47.1658 57.9121 46.7345C58.2571 46.3032 58.7344 45.9974 59.2704 45.8643C61.8722 45.2581 64.1588 43.713 65.692 41.5253H53.89C52.6751 41.5253 52.0677 40.4406 52.0677 39.3125C52.0377 39.049 52.0617 38.7823 52.1382 38.5285C52.2147 38.2747 52.3421 38.0391 52.5126 37.8361C52.6832 37.6331 52.8932 37.4669 53.13 37.3478C53.3668 37.2286 53.6254 37.1589 53.89 37.143H66.9069C66.9069 36.5355 66.9069 35.8847 66.9069 35.2772L67.0371 34.7999ZM72.8079 6.16271C73.3833 6.16271 73.9351 6.39131 74.342 6.79817C74.7488 7.20503 74.9774 7.75681 74.9774 8.33219C74.9774 8.90758 74.7488 9.4594 74.342 9.86625C73.9351 10.2731 73.3833 10.5017 72.8079 10.5017H68.7727L69.5537 11.8468C69.7119 12.172 69.8005 12.5267 69.814 12.8881C69.7587 13.5059 69.4651 14.0778 68.9953 14.4828C68.5256 14.8877 67.9166 15.0939 67.2974 15.0576C66.808 15.0555 66.3297 14.9108 65.9213 14.641C65.5128 14.3713 65.1919 13.9883 64.9978 13.539C64.5063 12.4961 63.9558 11.482 63.349 10.5017H60.8324C59.8679 11.916 58.8097 13.2641 57.6649 14.5369C57.0614 15.1676 56.2375 15.5408 55.3653 15.5783C54.7282 15.5901 54.1119 15.3511 53.6493 14.9128C53.1866 14.4745 52.9147 13.8721 52.8921 13.2352C52.918 12.518 53.2122 11.8367 53.7165 11.3261C56.0069 8.8892 57.9225 6.12547 59.4005 3.12545C59.6201 2.65894 59.9711 2.2667 60.4104 1.99691C60.8498 1.72713 61.3584 1.59155 61.8737 1.60682C62.2902 1.53208 62.7193 1.5783 63.1103 1.73999C63.5013 1.90168 63.8377 2.17205 64.0797 2.51909C64.3217 2.86613 64.4592 3.27528 64.4758 3.69804C64.4924 4.12081 64.3874 4.53949 64.1734 4.90444L63.4358 6.33627L72.8079 6.16271ZM86.5191 19.8739C86.5191 18.8325 86.2587 18.5288 84.5231 18.5288H68.0785C66.3429 18.5288 66.0825 18.8325 66.0825 19.8739V20.3078H86.5191V19.8739ZM65.9524 25.7315H86.3889V23.6921H65.9524V25.7315ZM84.393 31.1986C86.1286 31.1986 86.3889 30.8949 86.3889 29.8535V29.0725H65.9524V29.8535C65.9524 31.1986 66.8202 31.1986 67.9483 31.1986H84.393ZM72.2005 35.5375C72.2005 36.145 72.2005 36.7958 72.2005 37.3599H80.5313V34.9735H72.3306L72.2005 35.5375ZM97.6268 6.33627C98.2022 6.33627 98.754 6.56484 99.1609 6.9717C99.5677 7.37856 99.7963 7.93037 99.7963 8.50576C99.7963 9.08114 99.5677 9.63296 99.1609 10.0398C98.754 10.4467 98.2022 10.6752 97.6268 10.6752H90.0336C90.294 11.1091 90.5109 11.4563 90.7279 11.8902C90.9023 12.2116 91.0059 12.5667 91.0316 12.9315C90.9657 13.5495 90.6614 14.1173 90.1833 14.5144C89.7052 14.9114 89.0911 15.1063 88.4716 15.0576C88.0186 15.0671 87.5727 14.9452 87.1876 14.7064C86.8026 14.4677 86.495 14.1225 86.3021 13.7125C85.7744 12.6633 85.1802 11.6488 84.5231 10.6752H81.3991C80.6615 11.6732 79.8804 12.6278 79.0994 13.4956C78.8269 13.821 78.4891 14.0856 78.108 14.2725C77.7268 14.4593 77.3107 14.5642 76.8866 14.5803C76.4045 14.6298 75.9192 14.5258 75.4998 14.2831C75.0804 14.0404 74.7483 13.6714 74.5511 13.2288C74.3538 12.7862 74.3015 12.2926 74.4014 11.8184C74.5013 11.3443 74.7485 10.9138 75.1076 10.5885C77.085 8.33496 78.7489 5.82457 80.054 3.12545C80.2834 2.69189 80.6271 2.32933 81.0477 2.07695C81.4683 1.82458 81.9499 1.692 82.4404 1.69358C82.8618 1.65225 83.2865 1.72589 83.6694 1.90664C84.0523 2.08738 84.379 2.3685 84.6149 2.72009C84.8508 3.07169 84.987 3.48063 85.009 3.90345C85.0311 4.32627 84.9381 4.74715 84.7401 5.12137C84.7401 5.59866 84.2628 6.03255 84.0025 6.50984L97.6268 6.33627Z" fill="#010101"/>
<path d="M112.553 45.084C112.272 45.5882 111.864 46.0098 111.369 46.3068C110.874 46.6038 110.309 46.7656 109.732 46.7762C109.372 46.7996 109.011 46.7503 108.67 46.6311C108.329 46.5119 108.015 46.3252 107.748 46.0823C107.481 45.8393 107.265 45.545 107.114 45.217C106.963 44.8889 106.88 44.5338 106.869 44.1728C106.898 43.6073 107.061 43.0569 107.346 42.5674C110.828 36.1403 113.495 29.3044 115.286 22.2176C113.16 22.478 110.947 22.8251 109.125 23.259C108.738 23.3538 108.335 23.3573 107.947 23.269C107.559 23.1807 107.197 23.0032 106.889 22.7505C106.582 22.4978 106.338 22.1768 106.176 21.8132C106.014 21.4495 105.939 21.0532 105.958 20.6556C105.94 19.9975 106.164 19.3558 106.588 18.8521C107.012 18.3483 107.606 18.0174 108.257 17.9221C110.947 17.4014 113.811 17.0543 116.545 16.7505C117.195 13.5831 117.716 10.3289 118.063 7.16142C118.14 6.46724 118.479 5.82871 119.012 5.37687C119.544 4.92502 120.23 4.69414 120.927 4.73161C121.321 4.69771 121.718 4.75113 122.089 4.88806C122.46 5.02498 122.796 5.24204 123.074 5.52378C123.351 5.80552 123.563 6.14502 123.695 6.51808C123.826 6.89114 123.874 7.28858 123.834 7.68211C123.53 10.5024 123.053 13.4095 122.489 16.36H125.309C131.948 16.36 134.421 19.3539 134.421 27.5545C134.519 31.7373 134.037 35.9134 132.989 39.964C131.384 45.9518 128.997 48.0779 123.747 48.0779C122.556 48.0874 121.366 48.0003 120.189 47.8176C119.491 47.7628 118.839 47.4463 118.365 46.9313C117.89 46.4163 117.627 45.741 117.629 45.0406C117.606 44.6412 117.671 44.2415 117.822 43.8707C117.972 43.4998 118.203 43.1672 118.498 42.897C118.793 42.6268 119.145 42.4259 119.528 42.3088C119.91 42.1917 120.314 42.1615 120.71 42.2203C121.708 42.2203 122.489 42.2203 123.574 42.2203C125.396 42.2203 126.351 41.6128 127.218 38.5755C128.172 34.8779 128.624 31.0689 128.564 27.2508C128.564 22.5647 127.696 21.3498 125.179 21.3498H121.361C119.477 29.6128 116.516 37.5925 112.553 45.084V45.084ZM150.345 24.2136C150.609 24.769 150.743 25.3775 150.736 25.9926C150.742 26.3873 150.668 26.7792 150.52 27.1451C150.371 27.511 150.151 27.8434 149.872 28.1226C149.593 28.4018 149.26 28.6221 148.894 28.7704C148.528 28.9188 148.137 28.9923 147.742 28.9864C147.126 28.9744 146.528 28.7834 146.019 28.4366C145.511 28.0898 145.114 27.6024 144.878 27.0339C142.887 23.1506 140.392 19.5471 137.458 16.3166C137.125 15.9185 136.917 15.4312 136.858 14.9154C136.8 14.3996 136.895 13.878 137.13 13.4156C137.366 12.9532 137.733 12.5703 138.185 12.3146C138.636 12.059 139.153 11.9418 139.671 11.9777C140.562 12.0074 141.411 12.3624 142.058 12.9757C145.356 16.2951 148.149 20.0816 150.345 24.2136ZM140.799 6.25024C140.844 5.70939 141.093 5.20588 141.496 4.84287C141.9 4.47986 142.426 4.28485 142.969 4.29772C143.515 4.28934 144.043 4.4913 144.444 4.86177C145.958 6.15449 147.326 7.60953 148.523 9.20074C148.817 9.60297 148.969 10.0912 148.957 10.5892C148.97 11.038 148.834 11.4785 148.571 11.8424C148.308 12.2064 147.932 12.4733 147.502 12.6019C147.072 12.7304 146.611 12.7134 146.192 12.5535C145.772 12.3935 145.417 12.0997 145.182 11.7173C144.021 10.1634 142.729 8.71181 141.32 7.37838C141.01 7.02914 140.827 6.586 140.799 6.12008V6.25024ZM145.963 1.91127C146.007 1.37419 146.258 0.875214 146.663 0.519197C147.067 0.16318 147.594 -0.0221661 148.132 0.00211738C148.705 0.0300532 149.253 0.243227 149.694 0.60957C151.182 1.91597 152.534 3.36971 153.73 4.94854C154.092 5.37158 154.292 5.91002 154.294 6.4672C154.288 6.73503 154.23 6.99911 154.122 7.24438C154.014 7.48965 153.859 7.71127 153.666 7.89662C153.472 8.08197 153.244 8.22742 152.995 8.32462C152.745 8.42182 152.479 8.46888 152.211 8.46312C151.853 8.46346 151.499 8.37675 151.182 8.21048C150.865 8.0442 150.592 7.80332 150.389 7.50854C149.174 6.0333 147.742 4.47127 146.527 3.16958C146.353 3.01781 146.213 2.83125 146.116 2.62198C146.019 2.4127 145.967 2.18537 145.963 1.95467V1.91127Z" fill="#010101"/>
<path d="M189.916 31.85C194.95 31.85 196.946 33.7157 196.946 37.3605V43.435C196.946 47.0798 194.95 48.9455 189.916 48.9455H171.085C166.009 48.9455 164.056 47.0798 164.056 43.435V37.2303C164.056 33.5856 166.009 31.7198 171.085 31.7198H177.42V26.3829H158.632C158.038 26.3037 157.493 26.0115 157.099 25.5605C156.704 25.1096 156.486 24.5307 156.486 23.9314C156.486 23.3321 156.704 22.7531 157.099 22.3022C157.493 21.8513 158.038 21.5591 158.632 21.4799H177.42V16.7504C177.559 16.1112 177.912 15.5387 178.421 15.1282C178.93 14.7176 179.565 14.4937 180.219 14.4937C180.873 14.4937 181.507 14.7176 182.016 15.1282C182.525 15.5387 182.879 16.1112 183.017 16.7504V21.61H202.196C202.79 21.6893 203.335 21.9815 203.73 22.4324C204.124 22.8833 204.342 23.4622 204.342 24.0615C204.342 24.6609 204.124 25.2398 203.73 25.6907C203.335 26.1417 202.79 26.4339 202.196 26.5131H183.104V31.85H189.916ZM201.415 7.465C201.959 7.57023 202.45 7.86161 202.802 8.28915C203.155 8.7167 203.348 9.25374 203.348 9.80805C203.348 10.3624 203.155 10.8994 202.802 11.3269C202.45 11.7545 201.959 12.0459 201.415 12.1511H190.784V14.5375C190.784 15.9694 189.439 16.707 188.051 16.707C186.662 16.707 185.274 15.9694 185.274 14.5375V12.1511H175.251V14.7545C175.251 16.1863 173.862 16.8806 172.517 16.8806C171.172 16.8806 169.784 16.1863 169.784 14.7545V12.1511H159.457C158.913 12.0459 158.422 11.7545 158.069 11.3269C157.716 10.8994 157.523 10.3624 157.523 9.80805C157.523 9.25374 157.716 8.7167 158.069 8.28915C158.422 7.86161 158.913 7.57023 159.457 7.465H169.784V4.03722C169.784 2.60536 171.129 1.91113 172.517 1.91113C173.906 1.91113 175.251 2.60536 175.251 4.03722V7.465H185.274V4.03722C185.274 2.60536 186.662 1.91113 188.051 1.91113C189.439 1.91113 190.784 2.60536 190.784 4.03722V7.465H201.415ZM189.266 44.2161C190.871 44.2161 191.305 43.8689 191.305 42.6974V37.9679C191.305 36.8398 190.871 36.4493 189.266 36.4493H171.91C170.304 36.4493 169.87 36.8398 169.87 37.9679V42.6974C169.87 44.1293 170.695 44.1727 171.91 44.2161H189.266Z" fill="#010101"/>
<path d="M235.519 17.5315H250.835C251.444 17.6432 251.995 17.9648 252.391 18.4405C252.788 18.9162 253.005 19.5157 253.005 20.1349C253.005 20.7541 252.788 21.3537 252.391 21.8294C251.995 22.305 251.444 22.6267 250.835 22.7383H235.519V28.5525H254.61C255.301 28.5525 255.963 28.8268 256.451 29.315C256.939 29.8032 257.214 30.4654 257.214 31.1559C257.214 31.8463 256.939 32.5085 256.451 32.9967C255.963 33.485 255.301 33.7593 254.61 33.7593H235.519V43.3918C235.519 48.0779 233.393 49.987 228.663 49.987C227.209 49.9732 225.758 49.8426 224.324 49.5965C223.657 49.5018 223.048 49.1679 222.609 48.657C222.17 48.1462 221.931 47.4931 221.938 46.8196C221.926 46.4042 222.01 45.9916 222.183 45.6142C222.357 45.2367 222.616 44.9046 222.94 44.644C223.263 44.3834 223.643 44.2013 224.049 44.112C224.455 44.0227 224.876 44.0287 225.279 44.1294C226.194 44.3116 227.123 44.4132 228.056 44.4331C229.097 44.4331 229.661 43.9992 229.661 42.8277V33.7593H210.396C209.787 33.6476 209.237 33.326 208.84 32.8503C208.444 32.3746 208.227 31.7751 208.227 31.1559C208.227 30.5367 208.444 29.9371 208.84 29.4615C209.237 28.9858 209.787 28.6642 210.396 28.5525H229.878V22.7383H214.301C213.692 22.6267 213.142 22.305 212.745 21.8294C212.349 21.3537 212.132 20.7541 212.132 20.1349C212.132 19.5157 212.349 18.9162 212.745 18.4405C213.142 17.9648 213.692 17.6432 214.301 17.5315H229.878V11.6305C225.539 12.1946 220.853 12.5417 216.558 12.6719C216.194 12.6964 215.829 12.6443 215.487 12.519C215.145 12.3936 214.833 12.1978 214.571 11.9443C214.309 11.6907 214.104 11.385 213.967 11.0469C213.831 10.7088 213.768 10.346 213.781 9.98174C213.769 9.64604 213.826 9.31144 213.947 8.99836C214.069 8.68528 214.253 8.40028 214.489 8.16074C214.724 7.92119 215.006 7.73211 215.317 7.60506C215.628 7.47801 215.961 7.41563 216.297 7.42173C226.462 7.06186 236.557 5.60713 246.41 3.08276H247.234C247.963 3.09415 248.658 3.39177 249.17 3.91132C249.681 4.43086 249.968 5.13067 249.968 5.8597C249.976 6.48117 249.762 7.08525 249.364 7.56272C248.967 8.04019 248.411 8.35958 247.798 8.46311C243.755 9.53864 239.655 10.3932 235.519 11.0231V17.5315Z" fill="#010101"/>
<path d="M275.091 4.77345C275.206 4.11873 275.556 3.5285 276.075 3.11321C276.594 2.69791 277.247 2.48602 277.911 2.51721C278.326 2.4828 278.743 2.5484 279.127 2.70848C279.511 2.86856 279.852 3.11843 280.119 3.43719C280.387 3.75595 280.575 4.13429 280.666 4.54044C280.757 4.94659 280.75 5.36872 280.644 5.77143C280.254 7.72397 279.733 9.80669 279.169 11.8894L283.508 11.1084C283.867 11.033 284.237 11.0304 284.596 11.1007C284.955 11.1711 285.297 11.313 285.601 11.5179C285.904 11.7229 286.163 11.9868 286.363 12.294C286.563 12.6011 286.698 12.9452 286.762 13.3058C286.826 13.6665 286.817 14.0363 286.736 14.3934C286.654 14.7504 286.501 15.0874 286.287 15.3843C286.072 15.6812 285.8 15.9319 285.487 16.1216C285.174 16.3114 284.825 16.4362 284.463 16.4887C282.207 16.966 279.69 17.3565 277.13 17.747C275.038 23.7848 272.349 29.5989 269.103 35.1029C268.827 35.6434 268.412 36.1009 267.901 36.4287C267.391 36.7565 266.802 36.9428 266.196 36.9686C265.444 36.9804 264.717 36.6956 264.173 36.176C263.629 35.6564 263.311 34.9436 263.289 34.1917C263.285 33.5407 263.482 32.9043 263.853 32.3693C266.65 27.8942 269.005 23.1568 270.882 18.2243C268.929 18.2243 267.064 18.528 265.458 18.6148C265.088 18.6221 264.72 18.5516 264.379 18.408C264.038 18.2643 263.73 18.0506 263.477 17.7807C263.223 17.5108 263.029 17.1907 262.907 16.8411C262.785 16.4915 262.738 16.1201 262.768 15.7511C262.738 15.4064 262.78 15.0593 262.89 14.7314C263 14.4036 263.177 14.102 263.409 13.8455C263.641 13.5889 263.924 13.383 264.239 13.2406C264.554 13.0981 264.895 13.0222 265.241 13.0175C267.584 13.0175 270.188 12.7572 272.834 12.4968C273.832 10.0236 274.57 7.37683 275.091 4.77345ZM284.419 48.1631C278.215 48.1631 274.483 45.473 274.483 40.6133C274.483 36.2744 277.998 33.0201 284.68 33.0201C285.546 32.9597 286.416 32.9597 287.283 33.0201C286.961 31.1858 286.787 29.3285 286.762 27.4663C286.728 25.7815 286.844 24.0971 287.11 22.433C287.226 21.8087 287.57 21.2497 288.075 20.8649C288.58 20.48 289.21 20.2966 289.843 20.3504C291.405 20.3504 292.967 21.3483 292.707 23.1707C292.447 24.6023 292.316 26.0545 292.316 27.5097C292.371 29.7827 292.618 32.047 293.054 34.2784C296.501 35.2433 299.79 36.7049 302.817 38.6174C303.245 38.8746 303.601 39.2365 303.852 39.6691C304.102 40.1017 304.239 40.5908 304.248 41.0906C304.238 41.8321 303.945 42.5415 303.429 43.0739C302.912 43.6062 302.212 43.9212 301.472 43.9543C300.828 43.9136 300.21 43.6875 299.693 43.3035C297.847 41.9997 295.869 40.8944 293.792 40.0059C293.661 46.2974 289.409 48.3801 284.419 48.3801V48.1631ZM288.107 39.4852C288.107 39.0513 288.107 38.6174 288.107 38.1835C287.017 38.0022 285.915 37.9007 284.81 37.8798C281.165 37.8798 280.037 39.0513 280.037 40.4398C280.037 41.8282 281.078 42.8262 284.376 42.8262C286.806 43.2167 288.107 42.1754 288.107 39.8757V39.4852ZM304.118 15.5341C304.621 15.7986 305.046 16.1901 305.35 16.6697C305.655 17.1493 305.828 17.7002 305.854 18.2676C305.844 19.0091 305.55 19.7186 305.034 20.2509C304.518 20.7833 303.818 21.0982 303.077 21.1314C302.523 21.1136 301.984 20.9489 301.515 20.6541C299.144 19.2527 296.663 18.0482 294.095 17.0527C293.574 16.9136 293.112 16.6108 292.776 16.189C292.44 15.7672 292.248 15.2486 292.23 14.7097C292.252 13.9423 292.573 13.214 293.124 12.6793C293.675 12.1446 294.412 11.8457 295.18 11.846C295.51 11.7876 295.848 11.7876 296.178 11.846C298.98 12.7101 301.651 13.9508 304.118 15.5341V15.5341Z" fill="#010101"/>
<path d="M349.287 15.839C348.694 18.807 347.822 21.7125 346.684 24.517C345.268 27.9198 343.4 31.1162 341.13 34.0193C346.062 37.6843 351.685 40.3116 357.661 41.7427C358.336 41.8802 358.943 42.2427 359.385 42.7709C359.826 43.2991 360.075 43.9616 360.091 44.6498C360.103 45.0408 360.036 45.4303 359.896 45.7955C359.755 46.1607 359.544 46.4943 359.273 46.777C359.003 47.0596 358.679 47.2857 358.32 47.4419C357.961 47.5981 357.575 47.6815 357.184 47.6871C356.854 47.7421 356.516 47.7421 356.186 47.6871C349.257 45.8339 342.767 42.6182 337.094 38.2281C331.08 43.0876 324.098 46.6081 316.615 48.5548H315.703C315.331 48.555 314.963 48.4804 314.62 48.3355C314.278 48.1905 313.967 47.9782 313.708 47.7111C313.449 47.4439 313.247 47.1275 313.112 46.7805C312.978 46.4335 312.915 46.063 312.926 45.6911C312.93 45.0593 313.159 44.4496 313.573 43.9721C313.987 43.4946 314.558 43.1809 315.183 43.0877C321.766 41.5629 327.93 38.5993 333.233 34.4098C328.69 29.0343 325.532 22.6288 324.034 15.7523H315.964C315.355 15.6406 314.804 15.319 314.408 14.8433C314.011 14.3676 313.794 13.768 313.794 13.1489C313.794 12.5297 314.011 11.9301 314.408 11.4544C314.804 10.9788 315.355 10.6571 315.964 10.5455H333.84V4.25399C333.958 3.57997 334.31 2.96909 334.834 2.52886C335.357 2.08864 336.02 1.84729 336.704 1.84729C337.388 1.84729 338.05 2.08864 338.574 2.52886C339.098 2.96909 339.45 3.57997 339.568 4.25399V10.6323H357.314C357.923 10.7439 358.474 11.0656 358.87 11.5412C359.266 12.0169 359.484 12.6165 359.484 13.2357C359.484 13.8548 359.266 14.4544 358.87 14.9301C358.474 15.4057 357.923 15.7274 357.314 15.839H349.287ZM329.675 15.839C330.898 21.2525 333.448 26.2772 337.094 30.4614C340.387 26.1936 342.551 21.1645 343.386 15.839H329.675Z" fill="#C98124"/>
<path d="M385.778 31.7183C380.18 32.1522 374.583 32.4125 369.246 32.4559C368.894 32.4805 368.54 32.4307 368.209 32.3097C367.877 32.1888 367.574 31.9994 367.321 31.7539C367.067 31.5083 366.868 31.2122 366.736 30.8846C366.604 30.557 366.543 30.2054 366.556 29.8525C366.543 29.5054 366.603 29.1594 366.733 28.8371C366.862 28.5147 367.058 28.2233 367.308 27.9818C367.558 27.7403 367.855 27.5541 368.182 27.4353C368.508 27.3165 368.856 27.2679 369.203 27.2925C373.542 27.2925 378.401 27.2925 383.131 26.9888L384.866 25.3834C382.137 22.938 379.237 20.6905 376.188 18.658C375.847 18.466 375.56 18.1898 375.355 17.8557C375.15 17.5216 375.033 17.1405 375.017 16.7488C375.061 16.0544 375.368 15.4029 375.876 14.9272C376.384 14.4515 377.055 14.1875 377.75 14.1889C378.352 14.2004 378.939 14.3808 379.443 14.7095C380.102 15.0932 380.739 15.5132 381.352 15.9678C382.884 14.2133 384.236 12.3091 385.387 10.2838C381.048 10.7611 376.709 11.0648 372.37 11.2817C372.009 11.3187 371.644 11.2785 371.3 11.1638C370.956 11.049 370.64 10.8624 370.373 10.6162C370.106 10.37 369.895 10.0699 369.753 9.73579C369.611 9.4017 369.542 9.04124 369.55 8.67836C369.538 8.34266 369.595 8.00806 369.716 7.69498C369.838 7.3819 370.022 7.0969 370.258 6.85736C370.493 6.61781 370.775 6.42877 371.086 6.30171C371.397 6.17466 371.731 6.11228 372.066 6.11839C382.31 5.68735 392.485 4.2338 402.439 1.77942H403.22C403.984 1.79082 404.712 2.10212 405.248 2.64607C405.784 3.19003 406.084 3.92297 406.084 4.68652C406.068 5.28951 405.835 5.86656 405.429 6.31254C405.023 6.75852 404.47 7.04375 403.871 7.11633C399.532 8.15768 394.759 8.98209 390.073 9.63294C390.267 9.81725 390.421 10.0395 390.526 10.2858C390.63 10.5321 390.683 10.7973 390.681 11.0648C390.647 11.6964 390.42 12.3024 390.03 12.8004C388.593 14.9147 386.998 16.9164 385.257 18.7882C386.342 19.6126 387.426 20.5671 388.511 21.4349C390.795 18.8689 392.911 16.1587 394.846 13.3211C395.085 12.9503 395.412 12.6449 395.798 12.4328C396.185 12.2206 396.618 12.1083 397.059 12.1061C397.778 12.093 398.475 12.3552 399.008 12.8391C399.54 13.3231 399.867 13.9922 399.923 14.7095C399.923 15.3065 399.724 15.8866 399.359 16.3584C396.687 19.9393 393.788 23.3452 390.681 26.5549L400.66 25.7739L399.142 24.4722C398.834 24.2544 398.58 23.9691 398.4 23.6382C398.219 23.3073 398.117 22.9396 398.1 22.5631C398.166 21.9111 398.474 21.3078 398.965 20.8735C399.456 20.4392 400.092 20.2058 400.747 20.22C401.41 20.2259 402.052 20.4552 402.569 20.8709C405.568 23.2763 408.329 25.9644 410.813 28.898C411.264 29.3663 411.527 29.9841 411.551 30.6336C411.507 31.3626 411.186 32.0471 410.653 32.5472C410.121 33.0473 409.418 33.325 408.687 33.3237C408.252 33.3153 407.826 33.205 407.441 33.0015C407.057 32.798 406.726 32.5071 406.474 32.1522C405.948 31.4145 405.383 30.7048 404.782 30.0261C400.443 30.5034 396.104 30.8939 391.505 31.2844V47.946C391.388 48.6092 391.041 49.21 390.526 49.6429C390.01 50.0758 389.358 50.3131 388.685 50.3131C388.011 50.3131 387.359 50.0758 386.844 49.6429C386.328 49.21 385.981 48.6092 385.864 47.946L385.778 31.7183ZM370.938 47.5121C370.203 47.5142 369.495 47.2378 368.956 46.7387C368.416 46.2396 368.086 45.5548 368.031 44.822C368.046 44.4006 368.16 43.9886 368.364 43.6193C368.567 43.25 368.854 42.9337 369.203 42.6959C371.848 40.5516 374.171 38.0382 376.102 35.2328C376.419 34.7473 376.877 34.3712 377.415 34.1557C377.954 33.9403 378.545 33.8959 379.11 34.0287C379.674 34.1615 380.184 34.4649 380.569 34.8978C380.955 35.3307 381.198 35.8719 381.265 36.4478C381.245 36.9942 381.064 37.5225 380.744 37.9664C378.5 41.2168 375.813 44.1377 372.761 46.6443C372.281 47.1485 371.632 47.4576 370.938 47.5121V47.5121ZM408.08 41.4376C408.446 41.7116 408.745 42.0646 408.955 42.4702C409.165 42.8759 409.282 43.3238 409.295 43.7806C409.261 44.5173 408.945 45.2127 408.411 45.7219C407.878 46.2311 407.169 46.5149 406.431 46.5142C405.701 46.5603 404.978 46.345 404.392 45.9067C401.588 43.385 398.991 40.6427 396.625 37.7061C396.237 37.2606 396.022 36.6911 396.018 36.1006C396.083 35.4256 396.401 34.8003 396.908 34.3497C397.415 33.8992 398.073 33.6567 398.751 33.6708C399.168 33.6674 399.581 33.7594 399.957 33.9399C400.333 34.1204 400.662 34.3846 400.921 34.7122C403.115 37.1901 405.509 39.483 408.08 41.5677V41.4376Z" fill="#C98124"/>
<path d="M418.624 29.7669C418.624 17.8781 428.43 8.07202 442.748 8.07202C455.461 8.07202 462.794 16.0123 462.794 26.3825C462.871 30.7507 461.481 35.0186 458.846 38.5033C456.21 41.988 452.483 44.4883 448.259 45.6041C447.871 45.6644 447.475 45.6644 447.087 45.6041C446.698 45.6099 446.312 45.5376 445.951 45.3914C445.591 45.2452 445.263 45.0281 444.988 44.753C444.713 44.4778 444.496 44.1502 444.349 43.7896C444.203 43.429 444.131 43.0427 444.137 42.6536C444.149 42.002 444.372 41.3718 444.77 40.8562C445.169 40.3405 445.722 39.9666 446.35 39.7899C449.384 39.0846 452.077 37.3415 453.962 34.8617C455.848 32.382 456.808 29.3214 456.676 26.2089C456.717 24.5285 456.423 22.8568 455.813 21.2905C455.203 19.7242 454.289 18.2944 453.123 17.0839C451.956 15.8734 450.562 14.9061 449.019 14.238C447.477 13.57 445.817 13.2145 444.137 13.192C443.838 20.9097 441.838 28.4661 438.279 35.3207C437.47 37.2829 436.091 38.9568 434.319 40.1251C432.547 41.2934 430.465 41.9022 428.343 41.8726C423.006 42.1329 418.624 37.8807 418.624 29.7669ZM424.568 29.7669C424.568 34.5397 426.477 36.3187 428.343 36.3187C430.209 36.3187 431.337 35.4943 432.682 32.8041C435.745 26.9255 437.52 20.4615 437.889 13.8429C434.176 14.5609 430.824 16.5366 428.398 19.4371C425.971 22.3376 424.619 25.9857 424.568 29.7669V29.7669Z" fill="#010101"/>
<path d="M473.815 19.8732C473.443 19.9183 473.066 19.8812 472.71 19.7645C472.354 19.6477 472.027 19.4543 471.754 19.1977C471.481 18.9411 471.268 18.6277 471.129 18.2796C470.99 17.9315 470.93 17.5572 470.951 17.1831C470.928 16.8191 470.979 16.4541 471.1 16.1104C471.222 15.7666 471.413 15.4512 471.66 15.1833C471.908 14.9155 472.207 14.7008 472.541 14.5522C472.874 14.4037 473.233 14.3245 473.598 14.3194C476.071 14.1453 478.533 13.8411 480.974 13.4082C481.452 10.5445 481.669 8.24482 481.972 5.3811C482.049 4.69048 482.39 4.0563 482.924 3.61145C483.458 3.1666 484.143 2.94558 484.836 2.99466C485.226 2.9617 485.619 3.01428 485.986 3.14872C486.354 3.28316 486.688 3.49621 486.965 3.77303C487.242 4.04984 487.455 4.38373 487.589 4.75141C487.724 5.11908 487.776 5.51167 487.743 5.90176C487.483 8.41836 487.223 10.2407 486.919 12.28L491.258 11.2387H492.039C492.392 11.2499 492.74 11.3307 493.062 11.4763C493.384 11.622 493.674 11.8297 493.916 12.0876C494.158 12.3455 494.346 12.6485 494.471 12.9793C494.596 13.3102 494.654 13.6623 494.642 14.0156C494.655 14.6133 494.458 15.1965 494.085 15.6641C493.713 16.1317 493.188 16.4542 492.603 16.5756C490.216 17.2265 487.96 17.8339 485.877 18.2678C484.25 27.5891 481.811 36.7503 478.588 45.6467C478.35 46.3109 477.915 46.8868 477.342 47.2977C476.768 47.7085 476.083 47.9348 475.377 47.9464C474.648 47.9699 473.939 47.7055 473.403 47.2102C472.867 46.7149 472.547 46.0285 472.513 45.2996C472.529 44.7896 472.647 44.2879 472.861 43.8243C475.916 35.9107 478.24 27.7337 479.803 19.3959C477.807 19.3526 475.724 19.5695 473.815 19.8732ZM493.341 34.322C493.648 34.3044 493.957 34.3478 494.248 34.4496C494.539 34.5513 494.807 34.7095 495.036 34.9151C495.266 35.1207 495.453 35.3696 495.586 35.6475C495.72 35.9255 495.797 36.227 495.814 36.5349C496.204 39.8325 498.07 40.8738 503.754 40.8738C506.092 40.873 508.427 40.699 510.74 40.3532C511.152 40.2822 511.574 40.3037 511.977 40.4162C512.379 40.5286 512.752 40.7291 513.068 41.0032C513.383 41.2772 513.634 41.618 513.802 42.0009C513.969 42.3837 514.05 42.7991 514.037 43.2169C514.054 43.8929 513.819 44.551 513.378 45.0639C512.937 45.5768 512.322 45.9081 511.651 45.9938C509.066 46.3799 506.455 46.5685 503.841 46.5579C494.903 46.5579 490.824 43.7809 490.39 37.4027C490.315 36.9755 490.339 36.5367 490.461 36.1205C490.583 35.7042 490.799 35.3217 491.093 35.0027C491.387 34.6836 491.75 34.4367 492.155 34.281C492.56 34.1253 492.995 34.0651 493.427 34.105L493.341 34.322ZM509.004 18.6583C509.376 18.6459 509.746 18.7107 510.092 18.8486C510.437 18.9865 510.75 19.1945 511.011 19.4595C511.272 19.7246 511.475 20.0409 511.608 20.3884C511.74 20.7359 511.799 21.1072 511.781 21.4787C511.8 21.8312 511.744 22.1837 511.618 22.5133C511.491 22.8429 511.297 23.1423 511.048 23.3919C510.798 23.6415 510.499 23.8358 510.169 23.9622C509.839 24.0886 509.487 24.1442 509.134 24.1254C504.88 24.2045 500.641 24.6545 496.465 25.4705C496.069 25.5731 495.656 25.5812 495.257 25.4943C494.858 25.4074 494.485 25.2279 494.168 24.9703C493.851 24.7126 493.599 24.3841 493.433 24.0112C493.267 23.6383 493.19 23.2316 493.21 22.8237C493.157 22.1338 493.363 21.4489 493.789 20.9032C494.214 20.3574 494.828 19.9901 495.51 19.8732C499.983 18.974 504.529 18.4947 509.091 18.4414L509.004 18.6583Z" fill="#010101"/>
<path d="M544.237 39.3567C544.47 39.8131 544.589 40.3194 544.584 40.832C544.561 41.5533 544.259 42.2376 543.74 42.7397C543.222 43.2419 542.528 43.5225 541.807 43.5221C541.301 43.5168 540.808 43.3669 540.385 43.0901C539.962 42.8132 539.627 42.4211 539.42 41.9601C539.03 41.1791 538.596 40.3547 538.249 39.4869C537.239 40.5445 536.028 41.389 534.687 41.9703C533.345 42.5516 531.901 42.858 530.439 42.8713C526.1 42.8713 523.279 40.0943 523.279 34.8876C523.42 31.9033 524.23 28.9887 525.649 26.3599C527.069 23.7311 529.061 21.4553 531.48 19.7012C530.717 16.5703 530.137 13.3974 529.744 10.1989C529.718 9.81793 529.774 9.43582 529.91 9.07872C530.045 8.72162 530.256 8.39803 530.528 8.1301C530.8 7.86217 531.126 7.65628 531.486 7.52656C531.845 7.39683 532.228 7.34634 532.608 7.37855C532.922 7.34873 533.238 7.38129 533.539 7.47438C533.84 7.56748 534.12 7.71926 534.362 7.92095C534.604 8.12264 534.803 8.37024 534.949 8.6495C535.095 8.92876 535.184 9.23416 535.211 9.54803C535.472 11.8477 535.906 14.1907 536.383 16.5338C539.485 14.8941 542.873 13.8631 546.363 13.4965C546.71 11.4138 547.057 9.1575 547.317 6.94463C547.404 6.28827 547.742 5.69113 548.26 5.27852C548.777 4.86591 549.435 4.66994 550.094 4.73178C550.486 4.69969 550.88 4.7525 551.25 4.88664C551.619 5.02077 551.956 5.23307 552.236 5.50902C552.516 5.78497 552.733 6.11811 552.873 6.48568C553.012 6.85324 553.071 7.24658 553.045 7.63888C552.784 9.67819 552.437 11.6307 552.09 13.4965C555.957 13.6433 559.614 15.2951 562.281 18.0996C564.948 20.9042 566.413 24.6396 566.365 28.5093C566.529 32.5533 565.274 36.5273 562.818 39.7441C560.362 42.9609 556.859 45.2182 552.914 46.1255C552.541 46.1834 552.16 46.1834 551.786 46.1255C551.39 46.1313 550.996 46.0581 550.627 45.9102C550.259 45.7623 549.924 45.5427 549.641 45.2641C549.359 44.9855 549.134 44.6535 548.981 44.2874C548.828 43.9214 548.749 43.5285 548.749 43.1316C548.76 42.478 548.987 41.8464 549.395 41.3359C549.804 40.8254 550.37 40.465 551.005 40.3113C553.727 39.7834 556.177 38.3174 557.93 36.1688C559.682 34.0202 560.625 31.325 560.594 28.5527C560.609 25.9791 559.628 23.4995 557.857 21.6318C556.087 19.7641 553.663 18.6527 551.092 18.5297C549.384 24.7009 546.512 30.4888 542.631 35.5818C543.036 36.8835 543.571 38.1418 544.237 39.3567ZM532.868 25.1249C530.317 27.4466 528.762 30.6649 528.529 34.1066C528.529 36.4062 529.441 37.274 530.525 37.274C531.57 37.1833 532.587 36.8875 533.518 36.4035C534.448 35.9196 535.275 35.257 535.949 34.4537C534.908 31.373 533.823 28.2924 532.868 25.1249V25.1249ZM545.104 18.7033C542.429 19.2206 539.862 20.1889 537.511 21.567C538.292 24.3873 539.117 27.2076 540.158 30.2449C542.352 26.6551 544.018 22.768 545.104 18.7033V18.7033Z" fill="#010101"/>
<path d="M574.826 29.7669C574.826 17.8781 584.632 8.07202 598.951 8.07202C611.664 8.07202 618.997 16.0123 618.997 26.3825C619.074 30.7507 617.683 35.0186 615.048 38.5033C612.413 41.988 608.685 44.4883 604.461 45.6041C604.073 45.6644 603.678 45.6644 603.29 45.6041C602.901 45.6099 602.514 45.5376 602.154 45.3914C601.793 45.2452 601.466 45.0281 601.19 44.753C600.915 44.4778 600.698 44.1502 600.552 43.7896C600.406 43.429 600.333 43.0427 600.339 42.6536C600.352 42.002 600.574 41.3718 600.973 40.8562C601.371 40.3405 601.925 39.9666 602.552 39.7899C605.587 39.0846 608.279 37.3415 610.165 34.8617C612.05 32.382 613.01 29.3214 612.879 26.2089C612.919 24.5285 612.626 22.8568 612.016 21.2905C611.406 19.7242 610.491 18.2944 609.325 17.0839C608.159 15.8734 606.764 14.9061 605.222 14.238C603.68 13.57 602.02 13.2145 600.339 13.192C600.041 20.9097 598.041 28.4661 594.482 35.3207C593.673 37.2829 592.293 38.9568 590.521 40.1251C588.75 41.2934 586.668 41.9022 584.545 41.8726C579.209 42.1329 574.826 37.8807 574.826 29.7669ZM580.771 29.7669C580.771 34.5397 582.68 36.3187 584.545 36.3187C586.411 36.3187 587.539 35.4943 588.884 32.8041C591.948 26.9255 593.723 20.4615 594.091 13.8429C590.378 14.5609 587.027 16.5366 584.6 19.4371C582.174 22.3376 580.821 25.9857 580.771 29.7669Z" fill="#010101"/>
</svg>
